<svg xmlns="http://www.w3.org/2000/svg" viewBox="0 0 11.582 11.515">
    <path d="M5.791 0C2.596 0 0 2.582 0 5.758c0 3.177 2.597 5.758 5.793 5.758 3.194 0 5.789-2.581 5.789-5.758S8.985 0 5.791 0Zm0 .5c2.926 0 5.291 2.353 5.291 5.258s-2.363 5.258-5.289 5.258C2.865 11.016.5 8.663.5 5.758.5 2.854 2.864.5 5.791.5Z" />
    <path d="M4.39 3.076c-.495 0-.952.278-1.273.672-.32.394-.515.923-.437 1.467.037.262.18.525.373.832.193.306.443.644.717.988A38.5 38.5 0 0 0 5.404 8.92l.176.191.584-.58-.351-.355-.211.209A34.44 34.44 0 0 1 4.16 6.723a11.036 11.036 0 0 1-.685-.944c-.178-.28-.284-.526-.3-.634v-.002c-.054-.382.085-.778.329-1.079.244-.3.584-.488.887-.488.26 0 .478.091.648.207.17.116.292.264.336.336l.26.43.185-.467a.812.812 0 0 1 .266-.303c.155-.11.377-.203.701-.203.359 0 .835.256 1.088.647.253.39.32.883-.096 1.474l.409.287c.515-.731.453-1.495.107-2.03-.346-.536-.936-.878-1.508-.878a1.7 1.7 0 0 0-.99.295c-.117.082-.147.17-.219.26-.083-.09-.132-.176-.258-.262a1.653 1.653 0 0 0-.93-.293Z" />
    <path d="M5.54 6.797v.5h2.608v-.5z" />
    <path d="M6.594 5.742v2.61h.5v-2.61z" />
</svg>