<svg xmlns="http://www.w3.org/2000/svg" viewBox="0 0 11.582 11.515">
    <path d="M5.791.125C2.663.125.125 2.65.125 5.758c0 3.109 2.539 5.633 5.668 5.633 3.127 0 5.664-2.524 5.664-5.633 0-3.11-2.539-5.633-5.666-5.633Zm0 .25c2.993 0 5.416 2.41 5.416 5.383S8.786 11.14 5.793 11.14C2.798 11.14.375 8.73.375 5.758.375 2.786 2.797.375 5.791.375Z" />
    <path d="M4.39 3.201c-.447 0-.875.254-1.177.625-.302.371-.48.868-.408 1.371.032.224.164.483.353.783.19.3.437.635.71.977a38.47 38.47 0 0 0 1.628 1.879l.088.096.492-.489-.176-.177-.304.302a36.283 36.283 0 0 1-1.534-1.767 11.124 11.124 0 0 1-.693-.953c-.181-.288-.297-.539-.318-.686-.06-.422.094-.854.357-1.178.264-.323.632-.533.983-.533.29 0 .532.102.718.229.187.127.318.282.373.373l.13.217.093-.235a.901.901 0 0 1 .309-.357c.175-.124.425-.227.773-.227.412 0 .916.278 1.192.705.275.427.343.987-.098 1.614l.205.142c.49-.696.426-1.393.103-1.892-.322-.5-.883-.819-1.402-.819-.398 0-.703.12-.918.272-.154.109-.216.225-.285.338-.085-.11-.17-.227-.334-.338a1.525 1.525 0 0 0-.86-.272Z" />
    <path d="M5.54 6.922v.25h2.608v-.25z" />
    <path d="M6.719 5.742v2.61h.25v-2.61z" />
</svg>