<svg xmlns="http://www.w3.org/2000/svg" viewBox="0 0 11.832 11.765">
    <g stroke="currentColor" fill="none" stroke-width=".75">
        <path d="M11.457 5.882c0 3.041-2.48 5.508-5.54 5.508-3.062 0-5.542-2.467-5.542-5.508 0-3.04 2.48-5.507 5.541-5.507 3.06 0 5.541 2.466 5.541 5.507z"/>
        <path d="M8.109 5.966c.932-1.323-.266-2.514-1.197-2.514-.746 0-1.11.441-1.198.662-.133-.22-.56-.662-1.198-.662-.798 0-1.596.926-1.463 1.852.106.741 1.774 2.602 2.66 3.572l.4-.397"/>
        <path d="M8.274 7.172h-2.61Z"/>
        <path d="M6.969 8.477v-2.61z"/>
    </g>
</svg>