<svg xmlns="http://www.w3.org/2000/svg" viewBox="0 0 12.082 12.015">
    <g stroke="currentColor" fill="none" stroke-width="1">
        <path d="M11.582 6.007c0 3.041-2.48 5.508-5.54 5.508C2.98 11.515.5 9.048.5 6.007.5 2.967 2.98.5 6.041.5c3.06 0 5.541 2.466 5.541 5.507z"/>
        <path d="M8.234 6.091c.932-1.323-.266-2.514-1.197-2.514-.746 0-1.11.441-1.198.662-.133-.22-.56-.662-1.198-.662-.798 0-1.596.926-1.463 1.852.106.741 1.774 2.602 2.66 3.572l.4-.397"/>
        <path d="M8.399 7.297h-2.61Z"/>
        <path d="M7.094 8.602v-2.61z"/>
    </g>
</svg>