<svg xmlns="http://www.w3.org/2000/svg" viewBox="0 0 11.582 11.515">
    <g stroke="currentColor" fill="none" stroke-width=".5">
        <path d="M11.332 5.757c0 3.041-2.48 5.508-5.54 5.508C2.73 11.265.25 8.798.25 5.757.25 2.717 2.73.25 5.791.25c3.06 0 5.541 2.466 5.541 5.507z"/>
        <path d="M7.984 5.841c.932-1.323-.266-2.514-1.197-2.514-.746 0-1.11.441-1.198.662-.133-.22-.56-.662-1.198-.662-.798 0-1.596.926-1.463 1.852.106.741 1.774 2.602 2.66 3.572l.4-.397"/>
        <path d="M8.149 7.047h-2.61Z"/>
        <path d="M6.844 8.352v-2.61z"/>
    </g>
</svg>