<svg xmlns="http://www.w3.org/2000/svg" viewBox="0 0 46.333 12">
  <g fill="#4c4d4f" aria-label="GREAT">
    <path d="M29.913 5.883V5.79l.404-.065V2.478h-.725l-.333.87h-.127v-.98h2.86v.98h-.133l-.33-.87H30.8v3.247l.404.065v.093z" />
    <path d="M25.706 5.883V5.79l.43-.175 1.271-3.334h.07l1.2 3.444.402.065v.093h-1.29V5.79l.36-.057-.373-1.04h-1.17l-.355.922.396.175v.093zm.936-1.282h1.103l-.527-1.546Z" />
    <path d="M22.497 5.883V5.79l.404-.065V2.527l-.404-.062v-.096h2.643v1.006h-.117l-.34-.897h-1.3V4.06h.572l.259-.637h.114v1.388h-.114l-.263-.645h-.567v1.61h1.38l.36-.965h.113v1.072z" />
    <path d="M21.515 5.926q-.247 0-.37-.118t-.166-.403l-.084-.589q-.044-.3-.207-.466-.158-.172-.495-.172h-.343v1.547l.403.065v.093h-1.291V5.79l.405-.065V2.527l-.405-.062v-.096h1.23q.716 0 1.036.224.32.224.32.682 0 .753-.912.873v.026q.337.049.54.242.206.193.259.514l.057.378q.035.246.08.333.048.088.144.088.066 0 .14-.039.076-.044.14-.11l.076.079q-.128.145-.263.207-.136.062-.294.062zM20.34 4.073q.32 0 .496-.193.18-.198.18-.58v-.093q0-.729-.825-.729h-.342v1.595z" />
    <path d="M16.701 5.97q-.479 0-.838-.233-.362-.232-.558-.65-.194-.416-.194-.96 0-.546.206-.963.207-.417.576-.65.373-.233.853-.233.452 0 .764.228l.268-.227h.091v1.089h-.092l-.289-.725q-.317-.264-.743-.264-.307 0-.553.158-.242.158-.382.462-.136.303-.136.72v.803q0 .418.127.72.132.304.36.466.232.159.54.159.378 0 .585-.233.21-.233.21-.623v-.41l-.409-.061v-.096h1.314v.097l-.409.06v.41q0 .25-.135.47-.137.214-.427.35-.289.137-.729.137z" />
  </g>
  <g fill="#4c4d4f" aria-label="CITY">
    <path d="M44.14 5.883V5.79l.41-.065V4.39l-1.068-1.863-.347-.062v-.096h1.322v.097l-.408.062.922 1.593.848-1.445-.527-.21v-.097h.983v.097l-.338.215-.914 1.563v1.481l.41.065v.093z" />
    <path d="M40.755 5.883V5.79l.404-.065V2.478h-.724l-.334.87h-.127v-.98h2.86v.98H42.7l-.33-.87h-.729v3.247l.405.065v.093z" />
    <path d="M38.055 5.883V5.79l.405-.065V2.527l-.405-.062v-.096h1.29v.097l-.402.062v3.197l.403.065v.093z" />
    <path d="M36.093 5.97q-.478 0-.839-.233-.36-.232-.557-.65-.194-.416-.194-.96 0-.546.198-.963.202-.421.567-.65.368-.233.847-.233.189 0 .382.066.198.066.356.184l.294-.25h.093v1.09h-.093l-.272-.682q-.154-.14-.36-.223-.202-.084-.4-.084-.307 0-.545.158-.232.158-.364.462-.132.303-.132.72v.803q0 .418.128.72.127.304.355.466.228.159.537.159.223 0 .447-.097.224-.1.374-.269l.254-.706h.093v1.128h-.093l-.316-.224q-.158.128-.36.199-.202.07-.4.07z" />
  </g>
  <g fill="#9069ac" aria-label="MEDICAL">
    <path d="M30.895 9.514q-.08 0-.137-.055-.055-.058-.055-.137V7.515q0-.058.04-.097.04-.043.098-.043.057 0 .097.043.042.039.042.097v1.722h.996q.057 0 .097.042.042.04.042.098 0 .057-.042.097-.04.04-.097.04z" />
    <path d="M27.966 9.528q-.063 0-.1-.039-.037-.039-.037-.097 0-.025.016-.062l.775-1.83q.021-.048.064-.085.046-.04.114-.04h.03q.07 0 .113.04.04.037.063.085l.776 1.831q.015.036.015.061 0 .058-.037.097-.036.04-.1.04-.095 0-.13-.085l-.198-.475h-1.035l-.197.475q-.037.084-.131.084zm.435-.811h.821l-.41-.988Z" />
    <path d="M26.334 9.544q-.301 0-.545-.13-.24-.134-.38-.378-.14-.246-.14-.584 0-.34.14-.584.14-.244.38-.374.243-.134.545-.134.225 0 .39.055.164.054.303.134.03.015.045.042.019.025.022.067.003.049-.03.085-.034.037-.092.037-.03 0-.054-.012-.122-.064-.25-.104-.127-.04-.307-.04-.269 0-.45.11-.183.11-.274.3-.09.184-.09.418 0 .234.09.423.09.186.274.295.182.11.45.11.18 0 .308-.04.127-.04.249-.104.024-.011.054-.011.058 0 .092.036.033.036.03.085-.003.043-.02.07-.016.025-.047.039-.14.08-.304.134-.165.055-.389.055z" />
    <path d="M24.205 9.528q-.058 0-.097-.039-.04-.039-.04-.097V7.515q0-.058.04-.097.039-.043.097-.043.057 0 .098.043.041.039.041.097v1.877q0 .058-.041.097-.04.04-.098.04z" />
    <path d="M21.459 9.514q-.058 0-.097-.04-.04-.04-.04-.097V7.53q0-.058.04-.097.039-.042.097-.042h.611q.274 0 .475.093.2.093.335.248.134.151.197.34.067.188.067.38 0 .191-.067.38-.064.188-.197.344-.135.152-.335.246-.201.092-.475.092zm.14-.258h.438q.255 0 .441-.101.188-.104.29-.283.102-.183.102-.42t-.103-.417q-.101-.183-.289-.283-.186-.103-.44-.103h-.44z" />
    <path d="M19.056 9.514q-.058 0-.097-.04-.04-.04-.04-.097V7.53q0-.058.04-.097.039-.042.097-.042h1.22q.055 0 .091.04.04.035.04.09 0 .055-.04.092-.036.036-.09.036h-1.08v.672h.97q.055 0 .09.04.04.037.04.091 0 .055-.04.091-.035.036-.09.036h-.97v.676h1.08q.054 0 .09.04.04.036.04.091t-.04.09q-.036.038-.09.038z" />
    <path d="M15.656 9.528q-.058 0-.097-.039-.04-.039-.04-.097V7.576q0-.083.058-.14.057-.062.14-.062h.1q.061 0 .113.037.051.038.072.092l.692 1.722.69-1.722q.025-.054.072-.092.052-.036.114-.036h.1q.082 0 .14.061.057.058.057.14v1.816q0 .058-.04.097-.038.04-.096.04t-.1-.04q-.04-.039-.04-.097V7.664l-.703 1.737q-.025.058-.076.094-.052.033-.119.033-.066 0-.119-.033-.051-.036-.075-.094l-.702-1.737v1.728q0 .058-.044.097-.039.04-.097.04z" />
  </g>
  <rect width=".232" height="10.233" x="13.301" y=".648" fill="#4c4d4f" ry="0"/>
  <path fill="#9069ac" d="M6 0C2.688 0 0 2.687 0 5.999A6.003 6.003 0 0 0 6 12c3.312 0 6-2.69 6-6.001A6.002 6.002 0 0 0 6 0Zm0 .272a5.725 5.725 0 0 1 5.728 5.727A5.725 5.725 0 0 1 6 11.726 5.727 5.727 0 1 1 6 .272z" />
  <path fill="#4c4d4f" d="M7.137 5.784v1.124H6.012v.356h1.125v1.124h.355V7.264h1.13v-.356h-1.13V5.784z" />
  <path fill="#0957de" d="M4.775 3.126c-.45 0-.88.255-1.183.627-.303.372-.483.87-.41 1.377.032.226.166.485.355.785.19.3.437.637.709.979a38.204 38.204 0 0 0 1.63 1.878l.093.102.498-.494-.186-.19-.299.3a36.027 36.027 0 0 1-1.527-1.762 11.123 11.123 0 0 1-.693-.954c-.181-.287-.298-.538-.319-.683-.06-.42.093-.848.356-1.17.262-.322.629-.53.976-.53.29 0 .53.099.715.225.186.126.317.283.371.373l.137.229.1-.248a.891.891 0 0 1 .304-.356 1.3 1.3 0 0 1 .77-.222c.409 0 .91.274 1.185.699.275.425.343.98-.097 1.605l.216.153c.493-.699.428-1.401.104-1.903-.324-.501-.886-.82-1.408-.82-.4 0-.706.119-.922.271-.153.108-.211.223-.281.334-.086-.109-.169-.224-.33-.334a1.53 1.53 0 0 0-.864-.271Z" />
</svg>
