<svg width="132" height="17" viewBox="0 0 132 17" fill="none" xmlns="http://www.w3.org/2000/svg">
    <path d="M8.08688 1.64667C8.21543 1.25103 8.77516 1.25103 8.90372 1.64667L10.2504 5.79131C10.4229 6.32212 10.9175 6.68151 11.4756 6.68151H15.8336C16.2496 6.68151 16.4225 7.21385 16.086 7.45837L12.5604 10.0199C12.1088 10.348 11.9199 10.9295 12.0923 11.4603L13.439 15.6049C13.5676 16.0006 13.1147 16.3296 12.7782 16.085L9.25255 13.5235C8.80101 13.1954 8.18958 13.1954 7.73805 13.5235L4.21241 16.085C3.87585 16.3296 3.42302 16.0005 3.55157 15.6049L4.89825 11.4603C5.07072 10.9295 4.88178 10.348 4.43024 10.0199L0.904605 7.45837C0.568048 7.21385 0.741017 6.68151 1.15702 6.68151H5.51495C6.07308 6.68151 6.56773 6.32212 6.7402 5.79131L8.08688 1.64667Z" fill="#E6C8FF" stroke="#9069AC" stroke-width="0.858874"/>
    <path d="M36.8073 1.64667C36.9359 1.25103 37.4956 1.25103 37.6242 1.64667L38.9708 5.79131C39.1433 6.32212 39.638 6.68151 40.1961 6.68151H44.554C44.97 6.68151 45.143 7.21385 44.8064 7.45837L41.2808 10.0199C40.8293 10.348 40.6403 10.9295 40.8128 11.4603L42.1595 15.6049C42.288 16.0006 41.8352 16.3296 41.4986 16.085L37.973 13.5235C37.5215 13.1954 36.91 13.1954 36.4585 13.5235L32.9329 16.085C32.5963 16.3296 32.1435 16.0005 32.272 15.6049L33.6187 11.4603C33.7912 10.9295 33.6022 10.348 33.1507 10.0199L29.6251 7.45837C29.2885 7.21385 29.4615 6.68151 29.8775 6.68151H34.2354C34.7935 6.68151 35.2882 6.32212 35.4607 5.79131L36.8073 1.64667Z" fill="#E6C8FF" stroke="#9069AC" stroke-width="0.858874"/>
    <path d="M65.5278 1.64667C65.6564 1.25103 66.2161 1.25103 66.3446 1.64667L67.6913 5.79131C67.8638 6.32212 68.3584 6.68151 68.9166 6.68151H73.2745C73.6905 6.68151 73.8635 7.21385 73.5269 7.45837L70.0013 10.0199C69.5497 10.348 69.3608 10.9295 69.5333 11.4603L70.8799 15.6049C71.0085 16.0006 70.5557 16.3296 70.2191 16.085L66.6935 13.5235C66.2419 13.1954 65.6305 13.1954 65.179 13.5235L61.6533 16.085C61.3168 16.3296 60.8639 16.0005 60.9925 15.6049L62.3392 11.4603C62.5116 10.9295 62.3227 10.348 61.8712 10.0199L58.3455 7.45837C58.009 7.21385 58.1819 6.68151 58.5979 6.68151H62.9559C63.514 6.68151 64.0087 6.32212 64.1811 5.79131L65.5278 1.64667Z" fill="#E6C8FF" stroke="#9069AC" stroke-width="0.858874"/>
    <path d="M94.2483 1.64667C94.3768 1.25103 94.9365 1.25103 95.0651 1.64667L96.4118 5.79131C96.5842 6.32212 97.0789 6.68151 97.637 6.68151H101.995C102.411 6.68151 102.584 7.21385 102.247 7.45837L98.7217 10.0199C98.2702 10.348 98.0813 10.9295 98.2537 11.4603L99.6004 15.6049C99.729 16.0006 99.2761 16.3296 98.9396 16.085L95.4139 13.5235C94.9624 13.1954 94.351 13.1954 93.8994 13.5235L90.3738 16.085C90.0372 16.3296 89.5844 16.0005 89.713 15.6049L91.0596 11.4603C91.2321 10.9295 91.0432 10.348 90.5916 10.0199L87.066 7.45837C86.7294 7.21385 86.9024 6.68151 87.3184 6.68151H91.6763C92.2345 6.68151 92.7291 6.32212 92.9016 5.79131L94.2483 1.64667Z" fill="#E6C8FF" stroke="#9069AC" stroke-width="0.858874"/>
    <path d="M122.969 1.64667C123.097 1.25103 123.657 1.25103 123.786 1.64667L125.132 5.79131C125.305 6.32212 125.799 6.68151 126.357 6.68151H130.715C131.131 6.68151 131.304 7.21385 130.968 7.45837L127.442 10.0199C126.991 10.348 126.802 10.9295 126.974 11.4603L128.321 15.6049C128.449 16.0006 127.997 16.3296 127.66 16.085L124.134 13.5235C123.683 13.1954 123.071 13.1954 122.62 13.5235L119.094 16.085C118.758 16.3296 118.305 16.0005 118.433 15.6049L119.78 11.4603C119.953 10.9295 119.764 10.348 119.312 10.0199L115.786 7.45837C115.45 7.21385 115.623 6.68151 116.039 6.68151H120.397C120.955 6.68151 121.45 6.32212 121.622 5.79131L122.969 1.64667Z" fill="#E6C8FF" stroke="#9069AC" stroke-width="0.858874"/>
</svg>