<svg xmlns="http://www.w3.org/2000/svg" viewBox="0 0 24 24" width="24" height="24">
    <path d="M6.91 4A2.91 2.91 0 0 0 4 6.91v10.18C4 18.69 5.31 20 6.91 20h10.18A2.91 2.91 0 0 0 20 17.09V6.91A2.91 2.91 0 0 0 17.09 4H8.35Zm0 1.5H17.09c.924 0 1.409.474 1.409 1.41V17.09c0 .977-.536 1.409-1.41 1.409H6.91c-.833 0-1.41-.598-1.41-1.41V6.91c0-.937.494-1.41 1.41-1.41Z" />
    <path d="M10.107 7.044c-.857 0-1.62.471-2.153 1.126-.533.654-.856 1.532-.724 2.45.068.475.302.89.609 1.377.306.487.701 1.016 1.13 1.553.855 1.075 1.852 2.18 2.543 2.934l.432.472 1.075-1.065-.869-.875-.154.151c-.642-.708-1.386-1.527-2.068-2.383-.41-.515-.78-1.02-1.048-1.444-.267-.425-.418-.797-.433-.896-.074-.518.12-1.077.464-1.499.343-.422.815-.67 1.196-.67.353 0 .644.12.878.28.234.159.407.373.454.45l.639 1.057.457-1.147a1.1 1.1 0 0 1 .33-.367c.204-.144.5-.272.957-.272.459 0 1.147.356 1.495.896.35.54.459 1.179-.142 2.032l1.005.708c.844-1.198.75-2.51.17-3.406-.58-.896-1.544-1.462-2.528-1.462-.7 0-1.265.216-1.666.5-.114.08-.129.174-.218.26-.1-.091-.136-.18-.263-.267a2.79 2.79 0 0 0-1.568-.493Z" />
    <path d="M13.385 11.61v1.407h-1.408v1.23h1.408v1.407h1.23v-1.408h1.408v-1.229h-1.408V11.61Z" />
</svg>