<svg width="33" height="22" viewBox="0 0 33 22" fill="none" xmlns="http://www.w3.org/2000/svg">
    <path d="M7.05203 14.8504L7.32111 14.3388L6.75363 14.2289C3.59655 13.6173 1.21069 10.8349 1.21069 7.50128C1.21069 3.71914 4.2809 0.64892 8.06304 0.64892C11.8452 0.64892 14.9154 3.71914 14.9154 7.50128C14.9154 10.1169 14.3849 11.948 13.6138 13.3712C12.8386 14.8022 11.8077 15.8465 10.7487 16.8863L10.7487 16.8863C9.16256 18.4438 7.46435 19.5549 6.16045 20.2768C5.50922 20.6374 4.95833 20.8998 4.57182 21.0715C4.37862 21.1573 4.22666 21.2204 4.12395 21.2616C4.08309 21.2781 4.05003 21.291 4.0253 21.3006C4.01508 21.3014 4.0049 21.3021 3.99477 21.3029C3.80245 21.3175 3.62494 21.331 3.46553 21.3154C3.37737 21.3068 3.32077 21.291 3.28772 21.2756C3.27265 21.2686 3.26569 21.2631 3.26336 21.2611C3.26159 21.2595 3.26141 21.2591 3.26102 21.2584L3.26003 21.2566C3.24422 21.2288 3.21801 21.0981 3.27968 20.8485C3.33548 20.6226 3.43739 20.4065 3.52131 20.2886L3.52155 20.2882L3.17146 20.0395L3.52158 20.2882L3.52166 20.2881L3.52195 20.2877L3.52306 20.2861L3.52734 20.2801L3.54396 20.2566L3.60775 20.1663C3.6632 20.0876 3.74365 19.9731 3.84391 19.8295C4.0444 19.5423 4.32423 19.1385 4.64182 18.6715C5.27591 17.7393 6.06471 16.5496 6.67271 15.5338L6.67336 15.5328C6.80405 15.313 6.93473 15.0734 7.05203 14.8504Z" fill="#FAF4FF" stroke="#9069AC" stroke-width="0.858874"/>
    <path d="M23.9275 14.8504L24.1966 14.3388L23.6291 14.2289C20.472 13.6173 18.0862 10.8349 18.0862 7.50128C18.0862 3.71914 21.1564 0.64892 24.9385 0.64892C28.7207 0.64892 31.7909 3.71914 31.7909 7.50128C31.7909 10.1169 31.2604 11.948 30.4893 13.3712C29.7141 14.8022 28.6832 15.8465 27.6242 16.8863L27.6241 16.8863C26.0381 18.4438 24.3398 19.5549 23.0359 20.2768C22.3847 20.6374 21.8338 20.8998 21.4473 21.0715C21.2541 21.1573 21.1021 21.2204 20.9994 21.2616C20.9586 21.2781 20.9255 21.291 20.9008 21.3006C20.8906 21.3014 20.8804 21.3021 20.8703 21.3029C20.6779 21.3175 20.5004 21.331 20.341 21.3154C20.2529 21.3068 20.1963 21.291 20.1632 21.2756C20.1481 21.2686 20.1412 21.2631 20.1388 21.2611C20.1371 21.2595 20.1369 21.2591 20.1365 21.2584L20.1355 21.2566C20.1197 21.2288 20.0935 21.0981 20.1552 20.8485C20.211 20.6226 20.3129 20.4065 20.3968 20.2886L20.397 20.2882L20.0469 20.0395L20.3971 20.2882L20.3972 20.2881L20.3974 20.2877L20.3985 20.2861L20.4028 20.2801L20.4194 20.2566L20.4832 20.1663C20.5387 20.0876 20.6191 19.9731 20.7194 19.8295C20.9199 19.5423 21.1997 19.1385 21.5173 18.6715C22.1514 17.7393 22.9402 16.5496 23.5482 15.5338L23.5488 15.5328C23.6795 15.313 23.8102 15.0734 23.9275 14.8504Z" fill="#FAF4FF" stroke="#9069AC" stroke-width="0.858874"/>
</svg>