<svg width="50" height="50" viewBox="0 0 50 50" fill="none" xmlns="http://www.w3.org/2000/svg">
<path d="M9.75 46.1406V3.85938H39.8281V46.1406H9.75Z" fill="#FAF4FF"/>
<path d="M14.0469 8.15625H24.5312V18.6406H14.0469V8.15625Z" fill="#FAF4FF"/>
<path d="M19.2891 14.9801C20.2449 14.9801 21.0196 14.2053 21.0196 13.2496C21.0196 12.2938 20.2449 11.519 19.2891 11.519C18.3334 11.519 17.5586 12.2938 17.5586 13.2496C17.5586 14.2053 18.3334 14.9801 19.2891 14.9801Z" fill="#E6C8FF"/>
<path d="M22.8755 18.5658C22.8755 18.5907 22.8755 18.6156 22.8746 18.6405H15.704C15.7031 18.6156 15.7031 18.5907 15.7031 18.5658C15.7031 16.5858 17.3093 14.9805 19.2893 14.9805C21.2693 14.9805 22.8755 16.5858 22.8755 18.5658Z" fill="#E6C8FF"/>
<path d="M14.0469 38.4062H35.5312V41.8438H14.0469V38.4062Z" fill="#E6C8FF"/>
<path d="M39.8281 46.1406C43.3878 46.1406 46.2734 43.255 46.2734 39.6953C46.2734 36.1357 43.3878 33.25 39.8281 33.25C36.2685 33.25 33.3828 36.1357 33.3828 39.6953C33.3828 43.255 36.2685 46.1406 39.8281 46.1406Z" fill="#E6C8FF"/>
<path d="M24.7852 4.71875C25.2598 4.71875 25.6445 4.33399 25.6445 3.85938C25.6445 3.38476 25.2598 3 24.7852 3C24.3105 3 23.9258 3.38476 23.9258 3.85938C23.9258 4.33399 24.3105 4.71875 24.7852 4.71875Z" fill="#9069AC"/>
<path d="M14.043 19.5H24.5273C25.002 19.5 25.3867 19.1153 25.3867 18.6406V8.15625C25.3867 7.6817 25.002 7.29688 24.5273 7.29688H14.043C13.5683 7.29688 13.1836 7.6817 13.1836 8.15625V18.6406C13.1836 19.1153 13.5683 19.5 14.043 19.5ZM19.2852 14.1207C18.8048 14.1207 18.414 13.73 18.414 13.2496C18.414 12.7692 18.8048 12.3784 19.2852 12.3784C19.7655 12.3784 20.1563 12.7692 20.1563 13.2496C20.1563 13.73 19.7655 14.1207 19.2852 14.1207ZM19.2852 15.8399C20.516 15.8399 21.5584 16.6595 21.8963 17.7812H16.6739C17.0119 16.6595 18.0544 15.8399 19.2852 15.8399ZM14.9023 9.01562H23.668V17.7812H23.6599C23.4212 16.448 22.5869 15.3192 21.442 14.6812C21.7153 14.2709 21.8751 13.7786 21.8751 13.2497C21.8751 11.8216 20.7132 10.6597 19.2852 10.6597C17.857 10.6597 16.6953 11.8216 16.6953 13.2497C16.6953 13.7786 16.8549 14.2709 17.1283 14.6812C15.9834 15.3192 15.1491 16.448 14.9104 17.7812H14.9023V9.01562Z" fill="#9069AC"/>
<path d="M35.5273 22.0781H14.043C13.5683 22.0781 13.1836 22.4629 13.1836 22.9375C13.1836 23.4121 13.5683 23.7969 14.043 23.7969H35.5273C36.002 23.7969 36.3867 23.4121 36.3867 22.9375C36.3867 22.4629 36.002 22.0781 35.5273 22.0781Z" fill="#9069AC"/>
<path d="M36.3867 30.6719C36.3867 30.1973 36.002 29.8125 35.5273 29.8125H14.043C13.5683 29.8125 13.1836 30.1973 13.1836 30.6719C13.1836 31.1464 13.5683 31.5312 14.043 31.5312H35.5273C36.002 31.5312 36.3867 31.1464 36.3867 30.6719Z" fill="#9069AC"/>
<path d="M14.043 27.6641H17.8242C18.2989 27.6641 18.6836 27.2792 18.6836 26.8047C18.6836 26.3301 18.2989 25.9453 17.8242 25.9453H14.043C13.5683 25.9453 13.1836 26.3301 13.1836 26.8047C13.1836 27.2792 13.5683 27.6641 14.043 27.6641Z" fill="#9069AC"/>
<path d="M35.5277 25.9453H23.8574C23.3828 25.9453 22.998 26.3301 22.998 26.8047C22.998 27.2792 23.3828 27.6641 23.8574 27.6641H35.5277C36.0024 27.6641 36.3871 27.2792 36.3871 26.8047C36.3871 26.3301 36.0024 25.9453 35.5277 25.9453Z" fill="#9069AC"/>
<path d="M29.1504 33.6797C28.6758 33.6797 28.291 34.0645 28.291 34.5391C28.291 35.0136 28.6758 35.3984 29.1504 35.3984H31.4402C31.9148 35.3984 32.2996 35.0136 32.2996 34.5391C32.2996 34.0645 31.9148 33.6797 31.4402 33.6797H29.1504Z" fill="#9069AC"/>
<path d="M14.043 33.6797H25.7133V35.3984H14.043V33.6797Z" fill="#9069AC"/>
<path d="M27.9648 12.4961H35.5273C36.002 12.4961 36.3867 12.1113 36.3867 11.6367C36.3867 11.1622 36.002 10.7773 35.5273 10.7773H27.9648C27.4902 10.7773 27.1055 11.1622 27.1055 11.6367C27.1055 12.1113 27.4902 12.4961 27.9648 12.4961Z" fill="#9069AC"/>
<path d="M27.9648 16.0195H35.5273C36.002 16.0195 36.3867 15.6348 36.3867 15.1602C36.3867 14.6855 36.002 14.3008 35.5273 14.3008H27.9648C27.4902 14.3008 27.1055 14.6855 27.1055 15.1602C27.1055 15.6348 27.4902 16.0195 27.9648 16.0195Z" fill="#9069AC"/>
<path d="M40.6836 32.4429V3.85938C40.6836 3.38474 40.2989 3 39.8242 3H28.6523C28.1777 3 27.793 3.38474 27.793 3.85938C27.793 4.33401 28.1777 4.71875 28.6523 4.71875H38.9648V32.4429C36.0657 32.7844 33.6805 34.8288 32.8424 37.5469H14.043C13.5683 37.5469 13.1836 37.9317 13.1836 38.4062V41.8438C13.1836 42.3183 13.5683 42.7031 14.043 42.7031H33.1702C33.6237 43.7024 34.2949 44.5823 35.1243 45.2812H10.6055V4.71875H31.1367C31.6114 4.71875 31.9961 4.33401 31.9961 3.85938C31.9961 3.38474 31.6114 3 31.1367 3H9.74609C9.27146 3 8.88672 3.38474 8.88672 3.85938V46.1406C8.88672 46.6152 9.27146 47 9.74609 47H39.8242C43.852 47 47.1289 43.7231 47.1289 39.6953C47.1289 35.9584 44.3077 32.8698 40.6836 32.4429ZM14.9023 40.9844V39.2656H32.5332C32.5249 39.4079 32.5195 39.5509 32.5195 39.6953C32.5195 40.1353 32.5609 40.5656 32.6357 40.9844H14.9023ZM39.8242 45.2812C36.7441 45.2812 34.2383 42.7754 34.2383 39.6953C34.2383 36.6152 36.7441 34.1094 39.8242 34.1094C42.9043 34.1094 45.4102 36.6152 45.4102 39.6953C45.4102 42.7754 42.9043 45.2812 39.8242 45.2812Z" fill="#9069AC"/>
<path d="M42.1582 37.4011C41.7718 37.1259 41.2351 37.216 40.9598 37.6026L39.3153 39.9118L38.8046 39.3369C38.4893 38.982 37.9461 38.95 37.5914 39.2652C37.2365 39.5804 37.2045 40.1236 37.5196 40.4784L38.7469 41.8598C38.9104 42.044 39.1445 42.1484 39.3893 42.1484C39.4046 42.1484 39.4201 42.148 39.4356 42.1471C39.6969 42.1331 39.9375 42.0007 40.0894 41.7875L42.3598 38.5994C42.635 38.2129 42.5448 37.6764 42.1582 37.4011Z" fill="#9069AC"/>
</svg>
