<svg width="50" height="50" viewBox="0 0 50 50" fill="none" xmlns="http://www.w3.org/2000/svg">
<path d="M28.6582 41.8538C22.994 47.518 13.8105 47.518 8.14638 41.8539C2.48241 36.1898 2.48241 27.0064 8.14664 21.3422L21.3427 8.14614C27.0069 2.48191 36.1904 2.48191 41.8545 8.14597C47.5186 13.8101 47.5186 22.9936 41.8543 28.6578L28.6582 41.8538Z" fill="#E6C8FF"/>
<path d="M31.2353 29.4198C37.12 29.4198 41.8905 24.6493 41.8905 18.7646C41.8905 12.8799 37.12 8.10938 31.2353 8.10938C25.3506 8.10938 20.5801 12.8799 20.5801 18.7646C20.5801 24.6493 25.3506 29.4198 31.2353 29.4198Z" fill="#FAF4FF"/>
<path d="M14.7369 31.0916C14.4301 31.0916 14.132 30.934 13.9655 30.6494C13.965 30.6486 13.9606 30.641 13.9601 30.6401C13.7113 30.2118 13.8542 29.6593 14.2822 29.4098C14.7102 29.1604 15.2575 29.3011 15.5076 29.7288C15.5081 29.7295 15.5125 29.7372 15.513 29.738C15.7618 30.1664 15.6189 30.7188 15.1909 30.9683C15.0477 31.0519 14.8912 31.0916 14.7369 31.0916Z" fill="#9069AC"/>
<path d="M29.8452 24.9739C28.5701 24.9739 27.3507 24.4733 26.4384 23.561C25.4049 22.5275 24.8997 21.0999 25.0521 19.6439C25.1037 19.1508 25.5454 18.7924 26.0386 18.8444C26.5318 18.8959 26.8898 19.3377 26.8381 19.8308C26.7424 20.7456 27.0595 21.6424 27.7081 22.291C28.3568 22.9397 29.2528 23.2569 30.1683 23.1611C30.6616 23.1095 31.1031 23.4674 31.1548 23.9606C31.2064 24.4538 30.8485 24.8956 30.3552 24.9471C30.1848 24.9651 30.0144 24.9739 29.8452 24.9739Z" fill="#9069AC"/>
<path d="M29.8734 18.5011C29.1613 18.5012 28.4804 18.2215 27.9708 17.7118C27.3937 17.1347 27.1115 16.3375 27.1965 15.5247C27.2481 15.0315 27.6888 14.6739 28.183 14.7251C28.6762 14.7767 29.0342 15.2184 28.9826 15.7116C28.9542 15.9832 29.0482 16.2494 29.2407 16.4418C29.4333 16.6344 29.7 16.7284 29.971 16.7C30.4658 16.6474 30.9059 17.0065 30.9575 17.4996C31.0092 17.9929 30.6511 18.4345 30.1579 18.4861C30.0629 18.4961 29.9678 18.5011 29.8734 18.5011Z" fill="#9069AC"/>
<path d="M34.1898 22.818C33.4778 22.818 32.7967 22.5383 32.2872 22.0286C31.7101 21.4517 31.4279 20.6544 31.5129 19.8416C31.5645 19.3484 32.0048 18.9903 32.4994 19.0421C32.9926 19.0936 33.3507 19.5354 33.299 20.0286C33.2706 20.3002 33.3646 20.5664 33.5571 20.7587C33.7496 20.9514 34.0156 21.0454 34.2874 21.017C34.7809 20.9652 35.2223 21.3235 35.2739 21.8166C35.3256 22.3099 34.9675 22.7515 34.4743 22.803C34.3792 22.8131 34.2842 22.818 34.1898 22.818Z" fill="#9069AC"/>
<path d="M39.4059 26.9336C43.9102 22.4291 43.9102 15.0995 39.4058 10.5951C39.4025 10.5917 39.399 10.5885 39.3956 10.5852L39.3957 10.5851C39.3922 10.5816 39.3888 10.5786 39.3854 10.5753C37.2056 8.40596 34.3129 7.21143 31.2366 7.21143C28.1507 7.21143 25.2493 8.41318 23.0672 10.5952C18.5628 15.0997 18.5628 22.4292 23.0672 26.9337C24.2983 28.1649 25.7585 29.0837 27.3515 29.651C24.0783 29.4029 21.0347 28.0094 18.6892 25.6638C18.3386 25.3135 17.7701 25.3133 17.4192 25.6638C17.0686 26.0145 17.0686 26.5831 17.4192 26.9338C20.3555 29.8702 24.2598 31.4874 28.4125 31.4873C32.5387 31.4872 36.4191 29.89 39.3491 26.9891C39.3678 26.9705 39.3871 26.9525 39.4057 26.9337L39.4059 26.9336ZM24.3371 11.865C26.1799 10.0222 28.6302 9.00726 31.2365 9.00726C32.2617 9.00726 33.2623 9.16496 34.2118 9.46754C33.5706 9.70946 32.9822 10.086 32.4831 10.5851C31.7106 11.3575 31.2852 12.3847 31.2853 13.4771C31.2853 14.5696 31.7108 15.5967 32.4833 16.369C33.1245 17.0104 33.93 17.4021 34.752 17.4722C34.8419 17.4799 34.9312 17.4837 35.0198 17.4837C35.8159 17.4837 36.557 17.1767 37.1297 16.604C38.3156 15.4179 38.352 13.9217 37.2224 12.7921C36.8717 12.4416 36.3032 12.4416 35.9524 12.7921C35.6018 13.1427 35.6018 13.7114 35.9524 14.0621C36.1439 14.2535 36.542 14.6517 35.8598 15.3342C35.5966 15.5972 35.2751 15.7148 34.9047 15.6828C34.5042 15.6487 34.0951 15.4414 33.7531 15.0992C32.8587 14.2048 32.8586 12.7494 33.7529 11.8551C34.9555 10.6525 36.9098 10.6497 38.1161 11.8459C38.1226 11.8523 38.1293 11.8585 38.1358 11.865C41.94 15.6693 41.94 21.8593 38.1358 25.6637C38.0782 25.7213 38.0196 25.7776 37.9613 25.8341C36.1397 27.5692 33.7613 28.5215 31.2366 28.5215C28.6304 28.5215 26.1801 27.5067 24.3372 25.6638C20.5328 21.8594 20.5328 15.6693 24.3371 11.865Z" fill="#9069AC"/>
<path d="M9.80132 36.0345C9.48842 36.0345 9.18438 35.8706 9.01912 35.5787C8.76517 35.1528 8.90559 34.6034 9.33159 34.3494C9.75732 34.0955 10.3098 34.2369 10.5638 34.6627L10.5819 34.6941C10.8262 35.1257 10.6744 35.6737 10.2428 35.9179C10.1032 35.9969 9.9512 36.0345 9.80132 36.0345Z" fill="#9069AC"/>
<path d="M42.4896 7.51095C39.5805 4.60205 35.7128 3 31.5989 3C27.4849 3 23.617 4.60213 20.7078 7.5112L7.51179 20.7073C1.50656 26.7126 1.50647 36.4837 7.51161 42.489C10.4207 45.398 14.2884 47 18.4024 47C22.5165 47 26.3843 45.3979 29.2933 42.4888L42.4894 29.2927C48.4946 23.2875 48.4947 13.5163 42.4896 7.51095ZM41.2194 28.0228L28.0233 41.2188C25.4535 43.7887 22.0367 45.2041 18.4024 45.2041C14.7681 45.2041 11.3514 43.7888 8.78151 41.219C3.93232 36.3698 3.51681 28.7412 7.53293 23.4143C7.44639 23.7124 7.36672 24.013 7.29797 24.3171C6.66951 27.0973 6.81346 29.9937 7.71434 32.693C7.83981 33.069 8.19018 33.3069 8.56598 33.3069C8.66017 33.3069 8.75607 33.2919 8.85035 33.2604C9.32068 33.1035 9.5748 32.5948 9.41779 32.1244C7.78524 27.2327 8.9851 21.9388 12.5436 18.2367C12.4281 18.6118 12.3256 18.9916 12.2385 19.3764C11.6101 22.1567 11.754 25.053 12.6549 27.7524C12.7804 28.1286 13.1306 28.3663 13.5065 28.3663C13.6007 28.3663 13.6965 28.3514 13.7909 28.3199C14.2612 28.1629 14.5153 27.6543 14.3583 27.1838C12.6962 22.2035 13.9682 16.8051 17.678 13.0954C17.6742 13.0941 17.671 13.0928 17.6673 13.0915L21.9776 8.7811C24.5477 6.21131 27.9645 4.79592 31.5989 4.79592C35.2332 4.79592 38.6499 6.21123 41.2197 8.78102C46.5246 14.0859 46.5245 22.7178 41.2194 28.0228Z" fill="#9069AC"/>
</svg>
