<svg width="50" height="50" viewBox="0 0 50 50" fill="none" xmlns="http://www.w3.org/2000/svg">
<path d="M27.0125 47.1003H38.8739L39.7153 46.0067V32.7994L38.8739 30.6121L36.0139 25.8171V24.4711L37.1916 23.7982L37.6964 22.5363V20.0127H28.0222L27.0125 22.1158L28.4428 23.7982L28.9476 24.4711V25.3125V27.4997L25.5391 31.9961V36.0946V42.3154V45.6819L25.8326 46.7065L26.4913 47.1003H27.0125Z" fill="#E6C8FF"/>
<path d="M20.0949 3.04541H14.9244L15.4989 8.87874L13.7754 10.4697V30.6212V35.3939L14.9244 38.0454L17.7969 39.6363L20.6694 36.9848L21.8184 35.3939V31.6818V25.3181V17.3636V13.1212L21.2439 11L19.5204 9.93935L20.0949 3.04541Z" fill="#E6C8FF"/>
<path d="M13.7715 23.0847V11.344C13.7715 10.8469 14.1745 10.4438 14.6717 10.4438H15.5229H19.37H20.2684C20.7652 10.4438 21.1681 10.8464 21.1686 11.3432L21.1897 35.251C21.1899 35.4691 21.111 35.6798 20.9674 35.8441L17.4914 39.8223L14.0112 35.8505C13.8674 35.6863 13.788 35.4755 13.788 35.2573V31.1986" stroke="#9069AC" stroke-width="1.72212" stroke-miterlimit="10" stroke-linecap="round" stroke-linejoin="round"/>
<path d="M20.6949 23.9272L18.2109 23.9297" stroke="#9069AC" stroke-width="1.72212" stroke-miterlimit="10" stroke-linecap="round" stroke-linejoin="round"/>
<path d="M20.6949 19.8135L18.2109 19.8158" stroke="#9069AC" stroke-width="1.72212" stroke-miterlimit="10" stroke-linecap="round" stroke-linejoin="round"/>
<path d="M20.7477 28.041L18.2637 28.0434" stroke="#9069AC" stroke-width="1.72212" stroke-miterlimit="10" stroke-linecap="round" stroke-linejoin="round"/>
<path d="M20.8004 32.1548L18.3164 32.1571" stroke="#9069AC" stroke-width="1.72212" stroke-miterlimit="10" stroke-linecap="round" stroke-linejoin="round"/>
<path d="M20.8973 15.4082L13.998 15.4148" stroke="#9069AC" stroke-width="1.72212" stroke-miterlimit="10" stroke-linecap="round" stroke-linejoin="round"/>
<path d="M36.831 23.7996H28.3904C27.8933 23.7996 27.4902 23.3966 27.4902 22.8994V20.9891C27.4902 20.4919 27.8933 20.0889 28.3904 20.0889H36.831C37.3281 20.0889 37.7312 20.4919 37.7312 20.9891V22.8994C37.7312 23.3966 37.3281 23.7996 36.831 23.7996Z" stroke="#9069AC" stroke-width="1.72212" stroke-miterlimit="10" stroke-linecap="round" stroke-linejoin="round"/>
<path d="M39.6808 42.0415H25.5449" stroke="#9069AC" stroke-width="1.72212" stroke-miterlimit="10" stroke-linecap="round" stroke-linejoin="round"/>
<path d="M39.6808 36.2695H25.5449" stroke="#9069AC" stroke-width="1.72212" stroke-miterlimit="10" stroke-linecap="round" stroke-linejoin="round"/>
<path d="M36.0187 25.8067V23.7998H29.2041V25.8067C29.2041 26.6342 28.9341 27.4391 28.4351 28.0992L26.3119 30.9083C25.8129 31.5684 25.543 32.3734 25.543 33.2008V46.1721C25.543 46.6844 25.9583 47.0998 26.4706 47.0998H38.7519C39.2642 47.0998 39.6796 46.6844 39.6796 46.1721V33.2008C39.6796 32.3734 39.4096 31.5684 38.9106 30.9083L36.7874 28.0992C36.2887 27.4391 36.0187 26.6343 36.0187 25.8067Z" stroke="#9069AC" stroke-width="1.72212" stroke-miterlimit="10" stroke-linecap="round" stroke-linejoin="round"/>
<path d="M22.6071 2.90039H12.3203" stroke="#9069AC" stroke-width="1.72212" stroke-miterlimit="10" stroke-linecap="round" stroke-linejoin="round"/>
<path d="M13.7695 30.9856V21.9302" stroke="#9069AC" stroke-width="1.72212" stroke-miterlimit="10" stroke-linecap="round" stroke-linejoin="round"/>
<path d="M15.5234 10.3416V3.16797" stroke="#9069AC" stroke-width="1.72212" stroke-miterlimit="10" stroke-linecap="round" stroke-linejoin="round"/>
<path d="M19.3691 3.16797V10.3416" stroke="#9069AC" stroke-width="1.72212" stroke-miterlimit="10" stroke-linecap="round" stroke-linejoin="round"/>
<path d="M17.4922 39.8223V47.0996" stroke="#9069AC" stroke-width="1.72212" stroke-miterlimit="10" stroke-linecap="round" stroke-linejoin="round"/>
</svg>
