<svg width="50" height="50" viewBox="0 0 50 50" fill="none" xmlns="http://www.w3.org/2000/svg">
<path d="M42.6964 8.26066H39.7622V6.45185C39.7622 4.54851 38.2137 3 36.3104 3C34.407 3 32.8585 4.54851 32.8585 6.45185V8.26066H28.2737V6.45185C28.2737 4.54851 26.7252 3 24.8218 3C22.9185 3 21.37 4.54851 21.37 6.45185V8.26066H16.7852V6.45185C16.7853 4.54851 15.2368 3 13.3333 3C11.43 3 9.88148 4.54851 9.88148 6.45185V8.26066H7.30834C5.17185 8.26066 3.43359 9.99884 3.43359 12.1354V43.1251C3.43359 45.2616 5.17177 46.9998 7.30834 46.9998L29.1389 46.9999C29.6145 46.9999 30 46.6144 30 46.1388C30 45.6632 29.6145 45.2777 29.1389 45.2777L7.30834 45.2776C6.12137 45.2776 5.1557 44.312 5.1557 43.125V18.3356H44.8489V43.1251C44.8489 44.312 43.8833 45.2777 42.6963 45.2777H28.878C28.4024 45.2777 28.0169 45.6632 28.0169 46.1388C28.0169 46.6144 28.4024 46.9999 28.878 46.9999H42.6964C44.8329 46.9999 46.5711 45.2617 46.5711 43.1252V12.1354C46.5711 9.99892 44.8329 8.26066 42.6964 8.26066ZM34.5805 6.45185C34.5805 5.49803 35.3565 4.7221 36.3104 4.7221C37.2642 4.7221 38.0401 5.49803 38.0401 6.45185V8.26066H34.5805V6.45185ZM23.0921 6.45185C23.0921 5.49803 23.8681 4.7221 24.8219 4.7221C25.7757 4.7221 26.5516 5.49803 26.5516 6.45185V8.26066H23.0921V6.45185ZM11.6036 6.45185C11.6036 5.49803 12.3795 4.7221 13.3333 4.7221C14.2872 4.7221 15.0632 5.49803 15.0632 6.45185V8.26066H11.6036V6.45185ZM5.1557 12.1354C5.1557 10.9484 6.12137 9.98277 7.30834 9.98277H15.0631V12.8588C15.0631 13.3343 15.4486 13.7198 15.9242 13.7198C16.3998 13.7198 16.7853 13.3343 16.7853 12.8588V9.98285H26.5516V12.8588C26.5516 13.3344 26.9372 13.7199 27.4127 13.7199C27.8883 13.7199 28.2738 13.3344 28.2738 12.8588V9.98285H38.0402V12.8588C38.0402 13.3344 38.4257 13.7199 38.9013 13.7199C39.3769 13.7199 39.7624 13.3344 39.7624 12.8588V9.98285H42.6965C43.8835 9.98285 44.8492 10.9485 44.8492 12.1355V16.6136H5.1557V12.1354Z" fill="#E6C8FF"/>
<path d="M5.1557 12.1354C5.1557 10.9484 6.12137 9.98277 7.30834 9.98277H15.0631V12.8588C15.0631 13.3343 15.4486 13.7198 15.9242 13.7198C16.3998 13.7198 16.7853 13.3343 16.7853 12.8588V9.98285H26.5516V12.8588C26.5516 13.3344 26.9372 13.7199 27.4127 13.7199C27.8883 13.7199 28.2738 13.3344 28.2738 12.8588V9.98285H38.0402V12.8588C38.0402 13.3344 38.4257 13.7199 38.9013 13.7199C39.3769 13.7199 39.7624 13.3344 39.7624 12.8588V9.98285H42.6965C43.8835 9.98285 44.8492 10.9485 44.8492 12.1355V16.6136H5.1557V12.1354Z" fill="#E6C8FF"/>
<path d="M28.878 45.2777H29.1389H42.6963C43.8833 45.2777 44.8489 44.312 44.8489 43.1251V18.3356H5.1557V43.125C5.1557 44.312 6.12137 45.2776 7.30834 45.2776L28.878 45.2777Z" fill="#E6C8FF"/>
<path d="M42.6964 8.26066H39.7622V6.45185C39.7622 4.54851 38.2137 3 36.3104 3C34.407 3 32.8585 4.54851 32.8585 6.45185V8.26066H28.2737V6.45185C28.2737 4.54851 26.7252 3 24.8218 3C22.9185 3 21.37 4.54851 21.37 6.45185V8.26066H16.7852V6.45185C16.7853 4.54851 15.2368 3 13.3333 3C11.43 3 9.88148 4.54851 9.88148 6.45185V8.26066H7.30834C5.17185 8.26066 3.43359 9.99884 3.43359 12.1354V43.1251C3.43359 45.2616 5.17177 46.9998 7.30834 46.9998L29.6389 46.9999C30.1145 46.9999 30.5 46.6144 30.5 46.1388C30.5 45.6632 30.1145 45.2777 29.6389 45.2777L7.30834 45.2776C6.12137 45.2776 5.1557 44.312 5.1557 43.125V18.3356H44.8489V43.1251C44.8489 44.312 43.8833 45.2777 42.6963 45.2777H28.878C28.4024 45.2777 28.0169 45.6632 28.0169 46.1388C28.0169 46.6144 28.4024 46.9999 28.878 46.9999H42.6964C44.8329 46.9999 46.5711 45.2617 46.5711 43.1252V12.1354C46.5711 9.99892 44.8329 8.26066 42.6964 8.26066ZM34.5805 6.45185C34.5805 5.49803 35.3565 4.7221 36.3104 4.7221C37.2642 4.7221 38.0401 5.49803 38.0401 6.45185V8.26066H34.5805V6.45185ZM23.0921 6.45185C23.0921 5.49803 23.8681 4.7221 24.8219 4.7221C25.7757 4.7221 26.5516 5.49803 26.5516 6.45185V8.26066H23.0921V6.45185ZM11.6036 6.45185C11.6036 5.49803 12.3795 4.7221 13.3333 4.7221C14.2872 4.7221 15.0632 5.49803 15.0632 6.45185V8.26066H11.6036V6.45185ZM5.1557 12.1354C5.1557 10.9484 6.12137 9.98277 7.30834 9.98277H15.0631V12.8588C15.0631 13.3343 15.4486 13.7198 15.9242 13.7198C16.3998 13.7198 16.7853 13.3343 16.7853 12.8588V9.98285H26.5516V12.8588C26.5516 13.3344 26.9372 13.7199 27.4127 13.7199C27.8883 13.7199 28.2738 13.3344 28.2738 12.8588V9.98285H38.0402V12.8588C38.0402 13.3344 38.4257 13.7199 38.9013 13.7199C39.3769 13.7199 39.7624 13.3344 39.7624 12.8588V9.98285H42.6965C43.8835 9.98285 44.8492 10.9485 44.8492 12.1355V16.6136H5.1557V12.1354Z" fill="#9069AC"/>
<path d="M20.2552 29.0552C18.6369 29.0552 17.3203 30.3718 17.3203 31.9901C17.3203 33.6085 18.637 34.9251 20.2552 34.9251C21.8736 34.9251 23.1903 33.6085 23.1903 31.9901C23.1903 30.3718 21.8736 29.0552 20.2552 29.0552ZM20.2552 33.203C19.5865 33.203 19.0424 32.6589 19.0424 31.9901C19.0424 31.3213 19.5865 30.7773 20.2552 30.7773C20.924 30.7773 21.4682 31.3213 21.4682 31.9901C21.4682 32.6589 20.924 33.203 20.2552 33.203Z" fill="#9069AC"/>
<path d="M29.3842 34.9251C31.0025 34.9251 32.3192 33.6085 32.3192 31.9901C32.3192 30.3717 31.0025 29.0552 29.3842 29.0552C27.7658 29.0552 26.4492 30.3718 26.4492 31.9901C26.4492 33.6085 27.7659 34.9251 29.3842 34.9251ZM29.3842 30.7773C30.0529 30.7773 30.5971 31.3213 30.5971 31.9901C30.5971 32.6589 30.0529 33.203 29.3842 33.203C28.7154 33.203 28.1713 32.6589 28.1713 31.9901C28.1713 31.3213 28.7154 30.7773 29.3842 30.7773Z" fill="#9069AC"/>
<path d="M38.5131 34.9251C40.1314 34.9251 41.4481 33.6085 41.4481 31.9901C41.4481 30.3717 40.1314 29.0552 38.5131 29.0552C36.8947 29.0552 35.5781 30.3718 35.5781 31.9901C35.578 33.6085 36.8947 34.9251 38.5131 34.9251ZM38.5131 30.7773C39.1818 30.7773 39.726 31.3213 39.726 31.9901C39.726 32.6589 39.1818 33.203 38.5131 33.203C37.8443 33.203 37.3002 32.6589 37.3002 31.9901C37.3002 31.3213 37.8443 30.7773 38.5131 30.7773Z" fill="#9069AC"/>
<path d="M11.1264 42.6467C12.7448 42.6467 14.0614 41.3301 14.0614 39.7118C14.0614 38.0934 12.7447 36.7769 11.1264 36.7769C9.50805 36.7769 8.19141 38.0935 8.19141 39.7118C8.19141 41.3301 9.50805 42.6467 11.1264 42.6467ZM11.1264 38.4989C11.7952 38.4989 12.3393 39.0429 12.3393 39.7117C12.3393 40.3805 11.7952 40.9245 11.1264 40.9245C10.4577 40.9245 9.91351 40.3805 9.91351 39.7117C9.91351 39.0429 10.4577 38.4989 11.1264 38.4989Z" fill="#9069AC"/>
<path d="M20.2552 36.7769C18.6369 36.7769 17.3203 38.0935 17.3203 39.7118C17.3203 41.3302 18.637 42.6467 20.2552 42.6467C21.8736 42.6467 23.1903 41.3301 23.1903 39.7118C23.1903 38.0935 21.8736 36.7769 20.2552 36.7769ZM20.2552 40.9247C19.5865 40.9247 19.0424 40.3806 19.0424 39.7119C19.0424 39.0431 19.5865 38.499 20.2552 38.499C20.924 38.499 21.4682 39.0431 21.4682 39.7119C21.4682 40.3806 20.924 40.9247 20.2552 40.9247Z" fill="#9069AC"/>
<path d="M32.3192 39.7118C32.3192 38.0934 31.0025 36.7769 29.3842 36.7769C27.7658 36.7769 26.4492 38.0935 26.4492 39.7118C26.4492 41.3302 27.7659 42.6467 29.3842 42.6467C31.0025 42.6468 32.3192 41.3302 32.3192 39.7118ZM28.1713 39.7118C28.1713 39.043 28.7154 38.499 29.3842 38.499C30.0529 38.499 30.5971 39.043 30.5971 39.7118C30.5971 40.3806 30.0529 40.9246 29.3842 40.9246C28.7154 40.9246 28.1713 40.3806 28.1713 39.7118Z" fill="#9069AC"/>
<path d="M38.5131 42.6467C40.1314 42.6467 41.4481 41.3301 41.4481 39.7118C41.4481 38.0934 40.1314 36.7769 38.5131 36.7769C36.8947 36.7769 35.5781 38.0935 35.5781 39.7118C35.578 41.3301 36.8947 42.6467 38.5131 42.6467ZM38.5131 38.4989C39.1818 38.4989 39.726 39.0429 39.726 39.7117C39.726 40.3805 39.1818 40.9245 38.5131 40.9245C37.8443 40.9245 37.3002 40.3805 37.3002 39.7117C37.3001 39.0429 37.8443 38.4989 38.5131 38.4989Z" fill="#9069AC"/>
<path d="M9.03349 26.3622C9.20158 26.5303 9.42201 26.6143 9.64236 26.6143C9.8627 26.6143 10.0831 26.5303 10.2512 26.3621L11.1265 25.4868L12.0018 26.3621C12.1699 26.5303 12.3903 26.6143 12.6106 26.6143C12.831 26.6143 13.0514 26.5303 13.2195 26.3622C13.5558 26.0259 13.5558 25.4807 13.2195 25.1445L12.3441 24.2691L13.2195 23.3937C13.5558 23.0575 13.5557 22.5123 13.2195 22.176C12.8832 21.8397 12.338 21.8398 12.0018 22.176L11.1265 23.0513L10.2512 22.176C9.91495 21.8397 9.36976 21.8398 9.03349 22.176C8.69721 22.5123 8.69721 23.0575 9.03349 23.3937L9.90885 24.2691L9.03349 25.1445C8.69713 25.4807 8.69721 26.0259 9.03349 26.3622Z" fill="#9069AC"/>
<path d="M13.2194 29.8972C12.8831 29.561 12.3379 29.561 12.0017 29.8972L11.1264 30.7725L10.2511 29.8972C9.91485 29.561 9.36966 29.561 9.03339 29.8972C8.6972 30.2335 8.6972 30.7787 9.03339 31.115L9.90866 31.9902L9.03339 32.8655C8.6972 33.2018 8.6972 33.747 9.03339 34.0832C9.20148 34.2513 9.42191 34.3354 9.64226 34.3354C9.8626 34.3354 10.083 34.2513 10.2511 34.0832L11.1264 33.208L12.0017 34.0832C12.1698 34.2513 12.3902 34.3354 12.6105 34.3354C12.8309 34.3354 13.0513 34.2513 13.2194 34.0832C13.5557 33.747 13.5557 33.2018 13.2194 32.8655L12.3441 31.9902L13.2194 31.115C13.5557 30.7788 13.5557 30.2335 13.2194 29.8972Z" fill="#9069AC"/>
<path d="M18.1624 26.3622C18.3305 26.5303 18.5509 26.6143 18.7712 26.6143C18.9916 26.6143 19.212 26.5303 19.3801 26.3621L20.2554 25.4868L21.1306 26.3621C21.2988 26.5303 21.5192 26.6143 21.7395 26.6143C21.9599 26.6143 22.1803 26.5303 22.3484 26.3622C22.6846 26.0259 22.6846 25.4807 22.3484 25.1445L21.473 24.2691L22.3484 23.3937C22.6846 23.0575 22.6846 22.5123 22.3484 22.176C22.0121 21.8397 21.4669 21.8398 21.1306 22.176L20.2554 23.0513L19.3801 22.176C19.0438 21.8397 18.4986 21.8398 18.1624 22.176C17.8261 22.5123 17.8261 23.0575 18.1624 23.3937L19.0377 24.2691L18.1624 25.1445C17.8261 25.4807 17.8261 26.0259 18.1624 26.3622Z" fill="#9069AC"/>
<path d="M27.2913 26.3622C27.4594 26.5303 27.6798 26.6143 27.9002 26.6143C28.1205 26.6143 28.3409 26.5303 28.509 26.3621L29.3843 25.4868L30.2596 26.3621C30.4278 26.5303 30.6481 26.6143 30.8684 26.6143C31.0888 26.6143 31.3092 26.5303 31.4773 26.3622C31.8136 26.0259 31.8136 25.4807 31.4773 25.1445L30.602 24.2691L31.4773 23.3937C31.8136 23.0575 31.8135 22.5123 31.4773 22.176C31.141 21.8397 30.5959 21.8398 30.2596 22.176L29.3843 23.0513L28.509 22.176C28.1728 21.8397 27.6276 21.8398 27.2913 22.176C26.955 22.5123 26.955 23.0575 27.2913 23.3937L28.1667 24.2691L27.2913 25.1445C26.9549 25.4807 26.955 26.0259 27.2913 26.3622Z" fill="#9069AC"/>
<path d="M36.4202 26.3622C36.5883 26.5303 36.8087 26.6143 37.029 26.6143C37.2494 26.6143 37.4698 26.5303 37.6379 26.3621L38.5132 25.4868L39.3885 26.3621C39.5566 26.5303 39.777 26.6143 39.9973 26.6143C40.2177 26.6143 40.4381 26.5303 40.6062 26.3622C40.9425 26.0259 40.9425 25.4807 40.6062 25.1445L39.7308 24.2691L40.6062 23.3937C40.9425 23.0575 40.9424 22.5123 40.6062 22.176C40.2699 21.8397 39.7247 21.8398 39.3885 22.176L38.5132 23.0513L37.6379 22.176C37.3016 21.8397 36.7564 21.8398 36.4202 22.176C36.0839 22.5123 36.0839 23.0575 36.4202 23.3937L37.2955 24.2691L36.4202 25.1445C36.0839 25.4807 36.0839 26.0259 36.4202 26.3622Z" fill="#9069AC"/>
</svg>
