<svg width="50" height="50" viewBox="0 0 50 50" fill="none" xmlns="http://www.w3.org/2000/svg">
<path d="M23.8383 42.0608H13.8257C12.8767 42.0608 12.1074 41.2916 12.1074 40.3425V35.4956H23.8382V42.0608H23.8383Z" fill="#E6C8FF"/>
<path d="M20.4588 42.0608H15.4863V39.9766C15.4863 39.5847 15.804 39.2671 16.1959 39.2671H19.7492C20.1411 39.2671 20.4588 39.5847 20.4588 39.9766V42.0608H20.4588Z" fill="#E6C8FF"/>
<path d="M24.8641 7.69824H11.0811C10.2672 7.69824 9.62902 8.39737 9.70313 9.20796L12.1072 35.4956H23.838L26.242 9.20796C26.3162 8.39737 25.678 7.69824 24.8641 7.69824Z" fill="#E6C8FF"/>
<path d="M24.8641 7.69824H11.0811C10.2672 7.69824 9.62902 8.39737 9.70313 9.20796L9.85601 10.8796H26.0892L26.2421 9.20796C26.3162 8.39737 25.678 7.69824 24.8641 7.69824Z" fill="#E6C8FF"/>
<path d="M37.6141 42.0608H23.5636C21.85 42.0608 20.4609 40.6717 20.4609 38.9582V33.6013C20.4609 32.81 21.1024 32.1685 21.8938 32.1685H39.284C40.0753 32.1685 40.7168 32.81 40.7168 33.6013V38.9582C40.7167 40.6717 39.3276 42.0608 37.6141 42.0608Z" fill="#E6C8FF"/>
<path d="M39.536 27.2227H21.6417C20.9896 27.2227 20.4609 27.7513 20.4609 28.4034V32.1688H40.7167V28.4034C40.7167 27.7513 40.1881 27.2227 39.536 27.2227Z" fill="#E6C8FF"/>
<path d="M37.7116 13.5768C39.1055 13.745 40.3403 14.3509 41.3006 15.234C40.5 15.8588 39.8871 16.6976 39.5604 17.6591C38.5937 20.5046 35.7356 22.38 32.6354 21.998C31.9046 21.908 31.2174 21.6992 30.5904 21.3939C30.4395 20.7058 30.4001 19.9815 30.4865 19.2428C30.9007 15.696 34.1414 13.1459 37.7116 13.5768Z" fill="#E6C8FF"/>
<path d="M39.5348 26.524H33.7306C33.3449 26.524 33.0322 26.8367 33.0322 27.2225C33.0322 27.6082 33.3449 27.9209 33.7306 27.9209H39.5348C39.8008 27.9209 40.0172 28.1373 40.0172 28.4032V31.4702H21.1582V28.4032C21.1582 28.1373 21.3746 27.9209 21.6406 27.9209H37.4448C37.8304 27.9209 38.1432 27.6082 38.1432 27.2225C38.1432 26.8367 37.8304 26.524 37.4448 26.524H25.3607L26.9385 9.27177C26.9917 8.6904 26.7965 8.10966 26.4029 7.67852C26.0094 7.24731 25.4489 7 24.8651 7H11.0821C10.4983 7 9.93773 7.24731 9.54417 7.67852C9.1506 8.10973 8.95539 8.6904 9.00861 9.27177L11.4098 35.5277V40.3428C11.4098 41.6754 12.4939 42.7595 13.8265 42.7595H37.613C39.7089 42.7595 41.4141 41.0544 41.4141 38.9585V33.6015C41.4141 33.2682 41.337 32.9526 41.1999 32.6713C41.3317 32.5443 41.4141 32.3663 41.4141 32.1688V28.4034C41.414 27.367 40.571 26.524 39.5348 26.524ZM21.6406 26.524C20.6044 26.524 19.7614 27.367 19.7614 28.4032V32.1686C19.7614 32.3662 19.8437 32.5441 19.9755 32.6712C19.8385 32.9525 19.7614 33.2681 19.7614 33.6015V34.7974H12.7457L10.6222 11.5783H25.3249L23.9581 26.5241L21.6406 26.524ZM10.576 8.62014C10.7073 8.47619 10.8871 8.39685 11.0821 8.39685H24.8651C25.0601 8.39685 25.2398 8.47612 25.3712 8.62014C25.5027 8.76416 25.5652 8.95043 25.5475 9.14452L25.4527 10.1813H10.4944L10.3996 9.14452C10.3819 8.95043 10.4445 8.76416 10.576 8.62014ZM12.8067 40.3428V36.1942H19.7615V38.5694C19.7577 38.5694 19.7541 38.5689 19.7503 38.5689H16.197C15.4206 38.5689 14.789 39.2005 14.789 39.9768V41.3626H13.8264C13.2641 41.3626 12.8067 40.9051 12.8067 40.3428ZM16.1858 41.3626V39.9768C16.1858 39.9707 16.1907 39.9657 16.1969 39.9657H19.7503C19.7564 39.9657 19.7614 39.9707 19.7614 39.9768V41.3626H16.1858ZM40.0172 38.9584C40.0172 40.2841 38.9386 41.3626 37.613 41.3626H23.5625C22.2368 41.3626 21.1583 40.2841 21.1583 38.9584V33.6015C21.1583 33.1965 21.4878 32.8671 21.8927 32.8671H39.2829C39.6878 32.8671 40.0173 33.1965 40.0173 33.6015L40.0172 38.9584Z" fill="#9069AC"/>
<path d="M41.7734 14.7196C40.6628 13.6981 39.2872 13.0631 37.7954 12.8831C35.8801 12.6518 33.9905 13.1821 32.475 14.3759C30.9671 15.5637 30.0145 17.2633 29.7928 19.1614C29.7017 19.9416 29.7367 20.7198 29.895 21.476C29.6257 22.1133 29.443 22.7904 29.3604 23.4895C29.3151 23.8725 29.5888 24.2197 29.972 24.265C29.9998 24.2683 30.0274 24.2699 30.0549 24.2699C30.4039 24.2699 30.7056 24.0086 30.7476 23.6534C30.8014 23.1987 30.9041 22.7592 31.0511 22.3401C31.5346 22.5095 32.036 22.6276 32.5501 22.6909C32.842 22.7269 33.1328 22.7445 33.4214 22.7445C36.453 22.7444 39.2295 20.8049 40.2219 17.8835C40.5007 17.0629 41.0224 16.337 41.7305 15.7842C41.8923 15.6579 41.9904 15.4669 41.9987 15.2618C42.0067 15.0568 41.9244 14.8585 41.7734 14.7196ZM38.8991 17.4341C38.024 20.01 35.4256 21.6376 32.7208 21.3046C32.3619 21.2604 32.011 21.1828 31.6704 21.0745C32.181 20.2846 32.8783 19.6166 33.7265 19.1269C34.0606 18.934 34.175 18.5069 33.9821 18.1728C33.7893 17.8388 33.3621 17.7243 33.0281 17.9172C32.3223 18.3247 31.6962 18.8439 31.168 19.4456C31.1719 19.4049 31.1755 19.3643 31.1803 19.3235C31.3586 17.7969 32.1254 16.4295 33.3394 15.4732C34.5611 14.5108 36.0843 14.0838 37.628 14.2699C38.571 14.3837 39.4565 14.7238 40.2264 15.2636C39.6272 15.8862 39.1744 16.6242 38.8991 17.4341Z" fill="#9069AC"/>
</svg>
