<svg width="50" height="50" viewBox="0 0 50 50" fill="none" xmlns="http://www.w3.org/2000/svg">
<path d="M36.6044 46.1402C33.7306 45.2511 31.771 42.5937 31.771 39.5854V38.6631H21.9329V39.5854C21.9329 42.5936 19.9734 45.2511 17.0996 46.1402H36.6044Z" fill="#E6C8FF"/>
<path d="M37.5032 31.2813C41.6386 28.4828 44.3021 24.0949 44.3021 19.1618C44.3021 10.7102 36.4843 3.85889 26.8405 3.85889C17.1967 3.85889 9.37891 10.7103 9.37891 19.1618C9.37891 24.095 12.0426 28.483 16.1783 31.2816L37.5032 31.2813Z" fill="#E6C8FF"/>
<path d="M38.7631 26.7353C38.7631 33.5759 33.6359 39.3302 26.8405 40.1161C20.0452 39.3302 14.918 33.5759 14.918 26.7353V21.915C14.918 18.9625 16.5653 16.2486 19.1969 14.91C23.9858 12.474 29.6953 12.474 34.4842 14.91C37.1158 16.2486 38.7631 18.9625 38.7631 21.915V26.7353Z" fill="#E6C8FF"/>
<path d="M18.3281 30.1064L21.7305 33.5088L12.5084 42.7309L9.10605 39.3285L18.3281 30.1064Z" fill="#E6C8FF"/>
<path d="M9.59375 39.8154L12.0241 42.2457L8.86466 45.4051L6.43434 42.9748L9.59375 39.8154Z" fill="#E6C8FF"/>
<path d="M38.8564 31.3627C42.8652 28.2883 45.1607 23.8545 45.1607 19.1622C45.1607 15.4522 43.7015 11.8286 41.0517 8.95923C38.4628 6.15563 34.8455 4.17823 30.8664 3.39131C30.4003 3.29919 29.9487 3.60203 29.8566 4.06763C29.7646 4.53324 30.0673 4.98535 30.5329 5.07739C38.0129 6.55653 43.442 12.48 43.442 19.1621C43.442 22.6028 42.0343 25.8967 39.5146 28.4874C39.5849 27.9126 39.6216 27.328 39.6216 26.7356V21.9153C39.6216 21.2851 39.5549 20.6669 39.4274 20.0684C40.178 19.2047 40.7348 18.1747 41.0462 17.0648C41.1744 16.6079 40.9079 16.1335 40.451 16.0052C39.9939 15.8769 39.5197 16.1434 39.3914 16.6004C39.2442 17.1247 39.0266 17.6257 38.7486 18.0889C37.9383 16.4162 36.5983 15.022 34.8728 14.1442C34.785 14.0995 34.6964 14.0571 34.608 14.014C35.1588 13.0135 35.447 11.895 35.447 10.7274C35.447 10.2527 35.0622 9.868 34.5876 9.868C34.113 9.868 33.7282 10.2527 33.7282 10.7274C33.7282 11.6587 33.4844 12.5484 33.0183 13.3333C31.3018 12.6964 29.5059 12.3331 27.699 12.246V9.15868C27.699 8.68406 27.3143 8.29932 26.8396 8.29932C26.365 8.29932 25.9803 8.68406 25.9803 9.15868V12.246C24.1733 12.3332 22.3775 12.6964 20.661 13.3333C20.1949 12.5484 19.9511 11.6587 19.9511 10.7274C19.9511 10.2527 19.5663 9.868 19.0917 9.868C18.6171 9.868 18.2323 10.2527 18.2323 10.7274C18.2323 11.895 18.5205 13.0135 19.0712 14.014C18.9829 14.0571 18.8942 14.0996 18.8065 14.1442C17.081 15.0219 15.741 16.4162 14.9307 18.0889C14.6527 17.6256 14.4351 17.1247 14.2879 16.6004C14.1597 16.1434 13.6854 15.8768 13.2283 16.0052C12.7714 16.1334 12.5049 16.6077 12.6331 17.0648C12.9446 18.1746 13.5013 19.2047 14.2519 20.0683C14.1244 20.6668 14.0577 21.285 14.0577 21.9152V26.7355C14.0577 27.3255 14.0941 27.9097 14.1644 28.4872C11.6448 25.8966 10.2374 22.603 10.2374 19.1621C10.2374 12.4714 15.6749 6.5463 23.1666 5.07343C23.6322 4.98191 23.9355 4.53014 23.844 4.06445C23.7525 3.59885 23.3006 3.29506 22.835 3.38702C18.8506 4.17033 15.2281 6.14661 12.6345 8.95175C9.98037 11.8225 8.51868 15.4486 8.51868 19.1621C8.51868 23.8551 10.8143 28.2887 14.8236 31.3631C14.9101 31.616 15.004 31.8671 15.1051 32.116L9.10227 38.1189L8.85916 37.8757C8.52358 37.5402 7.97943 37.5402 7.64376 37.8757C7.30818 38.2113 7.30818 38.7555 7.64376 39.0911L8.37293 39.8203L6.42844 41.7648L6.30693 41.6433C5.97135 41.3077 5.4272 41.3077 5.09153 41.6433C4.75595 41.9789 4.75595 42.523 5.09153 42.8587L8.98059 46.7477C9.14842 46.9156 9.36833 46.9994 9.58824 46.9994C9.80815 46.9994 10.0282 46.9156 10.1959 46.7477C10.5315 46.4122 10.5315 45.868 10.1959 45.5323L10.0744 45.4108L12.0189 43.4663L12.748 44.1955C12.9159 44.3633 13.1358 44.4472 13.3557 44.4472C13.5756 44.4472 13.7956 44.3633 13.9634 44.1955C14.2989 43.8599 14.2989 43.3158 13.9634 42.9801L13.7203 42.7371L18.9438 37.5136C19.6109 38.1 20.3232 38.6182 21.0738 39.065V39.586C21.0738 42.2331 19.3748 44.5374 16.8458 45.3197C16.3924 45.46 16.1386 45.9413 16.2788 46.3947C16.393 46.7635 16.7327 47.0003 17.0995 47.0003C17.1837 47.0003 17.2692 46.9878 17.3538 46.9617C18.9405 46.4709 20.3001 45.5048 21.2858 44.1681C22.2029 42.9245 22.717 41.4663 22.7844 39.9319C24.0314 40.46 25.3587 40.8103 26.7408 40.9701C26.7736 40.9739 26.8066 40.9758 26.8396 40.9758C26.8726 40.9758 26.9055 40.9739 26.9383 40.9701C28.3413 40.8079 29.6769 40.4459 30.9192 39.916C30.9837 41.4563 31.4985 42.9201 32.4186 44.1681C33.4043 45.5048 34.764 46.4709 36.3507 46.9617C36.4352 46.9879 36.5207 47.0003 36.605 47.0003C36.9718 47.0003 37.3115 46.7635 37.4256 46.3947C37.5659 45.9413 37.3121 45.4601 36.8586 45.3197C34.3297 44.5374 32.6307 42.2331 32.6307 39.586V39.0452C35.5356 37.3119 37.7562 34.5881 38.8564 31.3627ZM20.5132 33.5136L12.5051 41.5217L10.3175 39.3342L18.3256 31.3261L20.5132 33.5136ZM7.64384 42.9801L9.58833 41.0356L10.8036 42.2509L8.85916 44.1954L7.64384 42.9801ZM26.8396 39.251C24.3414 38.9428 22.05 37.9264 20.1617 36.2958L22.3361 34.1213C22.6717 33.7858 22.6717 33.2416 22.3361 32.9059L21.2423 31.8121L23.5515 29.503C23.887 29.1674 23.887 28.6233 23.5515 28.2876C23.2159 27.952 22.6717 27.952 22.3361 28.2876L20.0269 30.5967L18.9333 29.503C18.5977 29.1675 18.0536 29.1675 17.7179 29.503L16.4406 30.7804C16 29.4828 15.7764 28.1273 15.7764 26.7356V21.9153C15.7764 19.2621 17.236 16.8715 19.5856 15.6762C24.1278 13.3657 29.5513 13.3658 34.0935 15.6762C36.4431 16.8714 37.9028 19.2621 37.9028 21.9153V26.7356C37.9029 33.1081 33.1537 38.4709 26.8396 39.251Z" fill="#9069AC"/>
<path d="M29.2914 32.4007L28.6634 31.9283C28.1347 31.5306 27.463 31.4224 26.8532 31.6133C26.2433 31.4221 25.5716 31.5306 25.0429 31.9283L24.415 32.4007C24.221 32.5466 24.0978 32.7678 24.0758 33.0095C24.0538 33.2513 24.1351 33.4911 24.2996 33.6696L24.5379 33.9283C25.1321 34.5735 25.9761 34.9436 26.8532 34.9436C27.7304 34.9436 28.5743 34.5735 29.1685 33.9284L29.4069 33.6696C29.5713 33.491 29.6526 33.2513 29.6306 33.0095C29.6086 32.7678 29.4854 32.5466 29.2914 32.4007Z" fill="#9069AC"/>
<path d="M34.5716 23.7287C34.2361 23.3932 33.6919 23.3932 33.3563 23.7287C32.4574 24.6276 30.9948 24.6276 30.0959 23.7287C29.7603 23.3932 29.2162 23.3932 28.8806 23.7287C28.545 24.0643 28.545 24.6085 28.8806 24.9441C29.665 25.7285 30.6956 26.1208 31.7261 26.1208C32.7566 26.1208 33.787 25.7286 34.5716 24.9441C34.9072 24.6085 34.9072 24.0643 34.5716 23.7287Z" fill="#9069AC"/>
<path d="M24.8236 23.7287C24.488 23.3932 23.9438 23.3932 23.6082 23.7287C22.7094 24.6276 21.2467 24.6276 20.3479 23.7287C20.0123 23.3932 19.4681 23.3932 19.1325 23.7287C18.797 24.0643 18.797 24.6085 19.1325 24.9441C19.9171 25.7285 20.9475 26.1208 21.978 26.1208C23.0085 26.1208 24.039 25.7286 24.8235 24.9441C25.1592 24.6086 25.1592 24.0644 24.8236 23.7287Z" fill="#9069AC"/>
</svg>
