<svg width="50" height="50" viewBox="0 0 50 50" fill="none" xmlns="http://www.w3.org/2000/svg">
<path fill-rule="evenodd" clip-rule="evenodd" d="M8.14062 16.3916H16.2295C16.8848 16.3916 17.4271 16.8343 17.656 17.4066L19.3126 21.5479H35.6406V5.21924C35.6406 4.74658 35.2539 4.35986 34.7812 4.35986H9C8.52734 4.35986 8.14062 4.74658 8.14062 5.21924V16.3916Z" fill="#FAF4FF"/>
<path fill-rule="evenodd" clip-rule="evenodd" d="M17.656 17.4064C17.4271 16.8343 16.8847 16.3914 16.2295 16.3914H8.14062H4.70304C4.23047 16.3914 3.84375 16.7781 3.84375 17.2508V42.1728C3.84375 43.1182 4.61719 43.8916 5.5625 43.8916H33.8099C27.2296 37.5809 29.2207 29.2095 29.2207 29.2095C31.3307 29.2095 35.9597 27.5703 37.5314 26.0162C38.0591 26.538 38.9315 27.0694 39.9375 27.5449V23.2664C39.9375 22.3212 39.1641 21.5478 38.2188 21.5478H35.6406H19.3126L17.656 17.4064Z" fill="#E6C8FF"/>
<path fill-rule="evenodd" clip-rule="evenodd" d="M33.1057 34.9848C33.7768 34.3136 34.865 34.3136 35.5361 34.9848L36.5468 35.9955L39.5263 33.0159C40.1975 32.3448 41.2857 32.3448 41.9568 33.0159C42.6279 33.687 42.6279 34.7753 41.9568 35.4463L37.762 39.6411C37.0909 40.3122 36.0027 40.3122 35.3316 39.6411L33.1057 37.4152C32.4345 36.7441 32.4345 35.6559 33.1057 34.9848ZM37.5313 26.016C35.9595 27.5701 31.3305 29.2092 29.2205 29.2092C29.2205 29.2092 27.2294 37.5808 33.8097 43.8914C34.8307 44.8706 36.058 45.8001 37.5313 46.6411C48.4989 40.3801 45.8419 29.2092 45.8419 29.2092C44.4404 29.2092 41.9274 28.486 39.9373 27.5449C38.9314 27.0692 38.0589 26.5378 37.5313 26.016Z" fill="#E6C8FF"/>
<path fill-rule="evenodd" clip-rule="evenodd" d="M36.548 35.996L35.5373 34.9853C34.8661 34.3142 33.778 34.3142 33.1069 34.9853C32.4357 35.6564 32.4357 36.7446 33.1069 37.4157L35.3328 39.6417C36.0039 40.3128 37.0921 40.3128 37.7632 39.6417L41.9579 35.4469C42.6291 34.7757 42.6291 33.6876 41.9579 33.0165C41.2869 32.3453 40.1986 32.3453 39.5275 33.0165L36.548 35.996Z" fill="#FAF4FF"/>
<path d="M33.7211 43.8916H5.5625C4.61727 43.8916 3.84375 43.1182 3.84375 42.1728V17.2508C3.84375 16.7781 4.23047 16.3914 4.70304 16.3914H16.2295C16.8847 16.3914 17.4271 16.8342 17.656 17.4064L19.3126 21.5478H38.2188C39.1641 21.5478 39.9375 22.3212 39.9375 23.2664V27.4267" stroke="#9069AC" stroke-width="1.71875" stroke-miterlimit="2.613" stroke-linecap="round" stroke-linejoin="round"/>
<path d="M8.14062 15.5322V5.21924C8.14062 4.74658 8.52734 4.35986 9 4.35986H34.7812C35.2539 4.35986 35.6406 4.74658 35.6406 5.21924V20.6885" stroke="#9069AC" stroke-width="1.71875" stroke-miterlimit="2.613" stroke-linecap="round" stroke-linejoin="round"/>
<path d="M37.5313 46.6416C48.4989 40.3806 45.842 29.2098 45.842 29.2098C43.732 29.2098 39.103 27.5705 37.5313 26.0165C35.9595 27.5705 31.3305 29.2098 29.2205 29.2098C29.2205 29.2098 26.5637 40.3806 37.5313 46.6416Z" stroke="#9069AC" stroke-width="1.71875" stroke-miterlimit="2.613" stroke-linecap="round" stroke-linejoin="round"/>
<path d="M12.1406 7.79736H31.6483" stroke="#9069AC" stroke-width="1.71875" stroke-miterlimit="2.613" stroke-linecap="round" stroke-linejoin="round"/>
<path d="M12.1406 11.2349H31.6483" stroke="#9069AC" stroke-width="1.71875" stroke-miterlimit="2.613" stroke-linecap="round" stroke-linejoin="round"/>
<path d="M21.8906 14.6724H31.6444" stroke="#9069AC" stroke-width="1.71875" stroke-miterlimit="2.613" stroke-linecap="round" stroke-linejoin="round"/>
<path d="M26.5781 18.1099H31.6484" stroke="#9069AC" stroke-width="1.71875" stroke-miterlimit="2.613" stroke-linecap="round" stroke-linejoin="round"/>
<path d="M33.1069 37.4157C32.4357 36.7446 32.4357 35.6564 33.1069 34.9853C33.7781 34.3142 34.8662 34.3142 35.5373 34.9853L36.548 35.996L39.5275 33.0165C40.1987 32.3453 41.2869 32.3453 41.958 33.0165C42.6291 33.6876 42.6291 34.7757 41.958 35.4469L37.7632 39.6417C37.0922 40.3128 36.0039 40.3128 35.3328 39.6417L33.1069 37.4157Z" stroke="#9069AC" stroke-width="1.71875" stroke-miterlimit="22.926" stroke-linecap="round" stroke-linejoin="round"/>
<path d="M9.17153 40.4541H4.44531" stroke="#9069AC" stroke-width="1.71875" stroke-miterlimit="22.926" stroke-linecap="round" stroke-linejoin="round"/>
</svg>
