<svg width="50" height="50" viewBox="0 0 50 50" fill="none" xmlns="http://www.w3.org/2000/svg">
<g clip-path="url(#clip0_32_11977)">
<path d="M17.9746 24.2988H32.132V47.1016H17.9746V24.2988Z" fill="#E6C8FF"/>
<path d="M13.3535 40.7915H17.9749V47.1016H13.3535V40.7915Z" fill="#E6C8FF"/>
<path d="M32.1328 40.7915H36.7542V47.1016H32.1328V40.7915Z" fill="#E6C8FF"/>
<path d="M19.5586 17.2075H30.5497V24.2989H19.5586V17.2075Z" fill="#E6C8FF"/>
<path d="M21.3418 13.2061H28.7655V17.2076H21.3418V13.2061Z" fill="#E6C8FF"/>
<path d="M27.5816 13.2059V11.1448L25.0536 9.3335V2.89844V9.33315L22.5254 11.1448V13.2059H27.5816Z" fill="#E6C8FF"/>
<path d="M42.5367 46.2031H37.6522V40.7914C37.6522 40.2952 37.25 39.893 36.7537 39.893H33.0308V24.2988C33.0308 23.8026 32.6283 23.4004 32.1324 23.4004H31.4477V17.2075C31.4477 16.7112 31.0452 16.309 30.5493 16.309H29.6638V13.2059C29.6638 12.7097 29.2616 12.3075 28.7654 12.3075H28.48V11.1448C28.48 10.8552 28.3404 10.5832 28.1049 10.4148L25.9521 8.87199V2.89844C25.9521 2.40219 25.5496 2 25.0537 2C24.5574 2 24.1553 2.40219 24.1553 2.89844V8.87164L22.0022 10.4144C21.7667 10.5832 21.627 10.8552 21.627 11.1448V12.3075H21.3417C20.8454 12.3075 20.4432 12.7097 20.4432 13.2059V16.3087H19.5578C19.0619 16.3087 18.6593 16.7109 18.6593 17.2071V23.4H17.9746C17.4787 23.4 17.0762 23.8026 17.0762 24.2984V39.893H13.3533C12.8571 39.893 12.4549 40.2952 12.4549 40.7914V46.2031H7.57031C7.07407 46.2031 6.67188 46.6053 6.67188 47.1016C6.67188 47.5978 7.07407 48 7.57031 48H42.5367C43.033 48 43.4352 47.5978 43.4352 47.1016C43.4352 46.6053 43.033 46.2031 42.5367 46.2031ZM23.4239 11.6063L25.0537 10.4386L26.6832 11.6063V12.3075H23.4242V11.6063H23.4239ZM22.2401 14.1043H27.8669V16.309H22.2401V14.1043ZM20.4566 18.1059H29.6508V23.4004H27.7058V19.9519C27.7058 19.4557 27.3036 19.0535 26.8074 19.0535C26.3115 19.0535 25.909 19.4557 25.909 19.9519V23.4004H24.1728V19.9519C24.1728 19.4557 23.7706 19.0535 23.2744 19.0535C22.7781 19.0535 22.3759 19.4557 22.3759 19.9519V23.4004H20.4566V18.1059ZM14.2517 41.6899H17.0762V46.2031H14.2517V41.6899ZM18.8734 40.7914V25.1972H31.234V46.2031H29.5961V27.5156C29.5961 27.0194 29.1939 26.6172 28.6976 26.6172C28.2017 26.6172 27.7992 27.0194 27.7992 27.5156V46.2031H26.0922V40.9817C26.0922 40.4854 25.69 40.0832 25.1937 40.0832C24.6978 40.0832 24.2953 40.4854 24.2953 40.9817V46.2031H22.4984V27.5156C22.4984 27.0194 22.0962 26.6172 21.6 26.6172C21.1041 26.6172 20.7015 27.0194 20.7015 27.5156V46.2031H18.8731V40.7914H18.8734ZM33.0308 46.2031V41.6899H35.8553V46.2031H33.0308Z" fill="#9069AC"/>
<path d="M25.1934 33.4734C25.6896 33.4734 26.0918 33.0712 26.0918 32.575V27.5156C26.0918 27.0194 25.6896 26.6172 25.1934 26.6172C24.6975 26.6172 24.2949 27.0194 24.2949 27.5156V32.575C24.2949 33.0712 24.6975 33.4734 25.1934 33.4734Z" fill="#9069AC"/>
<path d="M24.6944 37.6085C25.013 37.8208 25.4405 37.8054 25.7434 37.5716C26.0396 37.3432 26.1631 36.9399 26.0469 36.5844C25.9339 36.238 25.6156 35.9913 25.252 35.9664C24.8772 35.9408 24.5182 36.1612 24.369 36.5054C24.1999 36.896 24.3361 37.3737 24.6944 37.6085Z" fill="#9069AC"/>
</g>
<defs>
<clipPath id="clip0_32_11977">
<rect width="46" height="46" fill="white" transform="translate(2 2)"/>
</clipPath>
</defs>
</svg>
