<svg width="50" height="50" viewBox="0 0 50 50" fill="none" xmlns="http://www.w3.org/2000/svg">
<path d="M32.5859 23.5601V31.0534H25.0859V33.4267H32.5859V40.9201H34.9526V33.4267H42.4859V31.0534H34.9526V23.5601H32.5859Z" fill="#9069AC"/>
<path d="M16.8394 5.83984C13.8394 5.83984 10.9727 7.53984 8.95272 10.0198C6.93272 12.4998 5.73272 15.8198 6.21942 19.1998C6.43272 20.7065 7.32612 22.4332 8.58612 24.4332C9.85272 26.4332 11.4994 28.6798 13.3127 30.9598C16.7981 35.25 20.4223 39.4255 24.1794 43.4798L24.7994 44.1598L28.1194 40.8665L26.8794 39.5998L24.8861 41.5998C21.3669 37.7951 17.9718 33.8775 14.7061 29.8532C13.0547 27.8164 11.5125 25.6934 10.0861 23.4932C8.87942 21.5798 8.09942 19.9065 7.95942 18.9398C7.55942 16.1398 8.57942 13.2865 10.3327 11.1398C12.0794 8.99324 14.5261 7.60654 16.8394 7.60654C18.7727 7.60654 20.3727 8.26654 21.6061 9.10654C22.8461 9.94654 23.7194 10.9932 24.0794 11.5932L24.9994 13.1198L25.6661 11.4665C26.118 10.5089 26.8177 9.68954 27.6927 9.09324C29.2053 8.07164 31.0018 7.55374 32.8261 7.61324C35.5527 7.61324 38.8927 9.43984 40.7261 12.2732C42.5594 15.1065 43.0061 18.8065 40.0794 22.9732L41.5194 23.9932C44.8061 19.3332 44.3727 14.6532 42.2127 11.3065C40.0527 7.96654 36.3061 5.83984 32.8261 5.83984C30.1594 5.83984 28.1194 6.63324 26.6794 7.64654C25.6594 8.36654 25.2727 9.13324 24.8061 9.87324C24.2327 9.14654 23.6794 8.37984 22.6061 7.64654C20.9123 6.47694 18.8977 5.84714 16.8394 5.83984Z" fill="#9069AC"/>
</svg>
