<svg width="50" height="50" viewBox="0 0 50 50" fill="none" xmlns="http://www.w3.org/2000/svg">
<path d="M16.735 6.877C13.968 6.877 11.184 8.597 9.32001 10.884C7.45701 13.172 6.54001 16.388 6.99001 19.506C7.18701 20.895 8.39501 22.757 9.55701 24.602C10.725 26.447 12.551 28.786 14.223 30.889C17.278 34.649 20.411 38.289 23.692 41.853L23.694 41.855C24.544 42.705 25.017 42.712 25.9 41.833C29.4 38.173 32.83 33.998 35.664 30.515C37.258 28.485 38.94 26.338 40.32 24.158C43.555 19.805 43.68 15.445 41.496 12.166C39.156 8.57 35.765 6.89 32.437 6.875C29.511 6.875 26.727 8.322 25.594 9.978C24.972 10.695 24.35 10.655 23.729 9.998C21.64 8.14 20.084 6.934 16.735 6.877Z" fill="#ffffff" stroke="#9069AC" stroke-width="1.75" stroke-linecap="round" stroke-linejoin="round"/>
</svg>
