<svg width="50" height="50" viewBox="0 0 50 50" fill="none" xmlns="http://www.w3.org/2000/svg">
<path d="M24.9995 46.9747C24.9995 46.9747 48.0626 36.3308 48.0626 20.6388C48.0626 13.0717 42.0819 6.9375 34.7045 6.9375C30.8823 6.9375 27.4345 8.58441 24.9996 11.2237C22.5648 8.58441 19.1178 6.9375 15.2957 6.9375C7.91809 6.9375 1.9375 13.0718 1.9375 20.6388C1.9375 36.3308 24.9995 46.9747 24.9995 46.9747Z" fill="#E6C8FF"/>
<path d="M29.3431 25.6486L29.4852 24.742C29.6387 23.762 29.9718 22.8189 30.4678 21.9599C32.078 19.171 35.6441 18.2155 38.433 19.8256C41.2218 21.4359 42.1774 25.0019 40.5673 27.7908L40.544 27.8311C38.6569 31.0996 36.2936 34.069 33.5317 36.6411C32.2211 37.8617 30.2672 38.0837 28.7162 37.1882C26.7669 36.0627 26.099 33.5701 27.2244 31.6208L27.2491 31.5779C28.306 29.7473 29.016 27.7371 29.3431 25.6486Z" fill="#E6C8FF"/>
<path d="M34.6953 16.0971C35.5021 16.0971 36.1562 15.443 36.1562 14.6362C36.1562 13.8294 35.5021 13.1753 34.6953 13.1753C33.8884 13.1753 33.2344 13.8294 33.2344 14.6362C33.2344 15.443 33.8884 16.0971 34.6953 16.0971Z" fill="#E6C8FF"/>
<path d="M20.6547 25.6486L20.5127 24.742C20.3591 23.762 20.026 22.8189 19.5301 21.9599C17.9198 19.171 14.3538 18.2155 11.5649 19.8256C8.77603 21.4359 7.82043 25.0019 9.43059 27.7908L9.45384 27.8311C11.3409 31.0996 13.7043 34.069 16.4662 36.6411C17.7768 37.8617 19.7306 38.0837 21.2816 37.1882C23.231 36.0627 23.8988 33.5701 22.7735 31.6208L22.7487 31.5779C21.6918 29.7473 20.9818 27.7371 20.6547 25.6486Z" fill="#E6C8FF"/>
<path d="M15.3008 16.0971C16.1076 16.0971 16.7617 15.443 16.7617 14.6362C16.7617 13.8294 16.1076 13.1753 15.3008 13.1753C14.4939 13.1753 13.8398 13.8294 13.8398 14.6362C13.8398 15.443 14.4939 16.0971 15.3008 16.0971Z" fill="#E6C8FF"/>
<path d="M34.7043 6C31.0563 6 27.6459 7.37372 24.9994 9.88847C22.3531 7.37372 18.9429 6 15.2955 6C7.41297 6 1 12.567 1 20.6388C1 26.1616 3.67947 31.6422 8.96416 36.9287C9.33034 37.295 9.92378 37.295 10.2901 36.9289C10.6562 36.5628 10.6562 35.9692 10.2902 35.6031C5.36978 30.6811 2.875 25.6463 2.875 20.6388C2.875 13.6008 8.44694 7.875 15.2956 7.875C18.7385 7.875 21.94 9.29006 24.3105 11.8593C24.4879 12.0517 24.7378 12.1611 24.9995 12.1611C25.2613 12.1611 25.5111 12.0517 25.6886 11.8593C28.059 9.28997 31.2609 7.875 34.7045 7.875C41.5533 7.875 47.125 13.6009 47.125 20.6388C47.125 28.362 41.061 34.8518 35.9741 38.9362C31.1512 42.8084 26.2633 45.3144 24.949 45.9588C24.1026 45.6036 21.3392 44.3019 16.2836 40.6535C15.8639 40.3506 15.2778 40.4452 14.9747 40.8651C14.6718 41.285 14.7665 41.8709 15.1864 42.1739C18.5312 44.5877 20.8966 45.9927 22.2919 46.7465C24.0426 47.692 24.7031 47.9158 25.0506 47.9158C25.2002 47.9158 25.2917 47.8745 25.3872 47.8312C25.4124 47.8198 25.4369 47.8074 25.4608 47.794C26.1628 47.464 31.5983 44.8475 37.1174 40.4228C40.5387 37.68 43.2703 34.8118 45.236 31.8983C47.7337 28.1966 49 24.4084 49 20.6389C49 12.567 42.5869 6 34.7043 6Z" fill="#9069AC"/>
<path d="M15.2957 6C18.9437 6 22.3541 7.37372 25.0006 9.88847C27.6469 7.37372 31.0571 6 34.7045 6C42.587 6 49 12.567 49 20.6388C49 26.1616 46.3205 31.6422 41.0358 36.9287C40.6697 37.295 40.0762 37.295 39.7099 36.9289C39.3438 36.5628 39.3438 35.9692 39.7098 35.6031C44.6302 30.6811 47.125 25.6463 47.125 20.6388C47.125 13.6008 41.5531 7.875 34.7044 7.875C31.2615 7.875 28.06 9.29006 25.6895 11.8593C25.5121 12.0517 25.2622 12.1611 25.0005 12.1611C24.7387 12.1611 24.4889 12.0517 24.3114 11.8593C21.941 9.28997 18.7391 7.875 15.2955 7.875C8.44675 7.875 2.875 13.6009 2.875 20.6388C2.875 28.362 8.93903 34.8518 14.0259 38.9362C18.8488 42.8084 23.7367 45.3144 25.051 45.9588C25.8974 45.6036 28.6608 44.3019 33.7164 40.6535C34.1361 40.3506 34.7222 40.4452 35.0253 40.8651C35.3282 41.285 35.2335 41.8709 34.8136 42.1739C31.4688 44.5877 29.1034 45.9927 27.7081 46.7465C25.9574 47.692 25.2969 47.9158 24.9494 47.9158C24.7998 47.9158 24.7083 47.8745 24.6128 47.8312C24.5876 47.8198 24.5631 47.8074 24.5392 47.794C23.8372 47.464 18.4017 44.8475 12.8826 40.4228C9.46131 37.68 6.72972 34.8118 4.76397 31.8983C2.26628 28.1966 1 24.4084 1 20.6389C1 12.567 7.41306 6 15.2957 6Z" fill="#9069AC"/>
<path d="M29.6556 21.4912C29.0999 22.4538 28.7309 23.4987 28.5587 24.5968L28.4166 25.5034C28.106 27.4857 27.44 29.3716 26.437 31.109L26.4121 31.1519C25.7425 32.3115 25.5647 33.6625 25.9112 34.956C26.2578 36.2494 27.0873 37.3304 28.2469 37.9999C29.035 38.455 29.9007 38.6776 30.7594 38.6776C31.9934 38.6776 33.2134 38.218 34.17 37.327C37.0024 34.6892 39.4199 31.6519 41.3556 28.2993L41.3786 28.2595C42.2826 26.6938 42.5227 24.8699 42.0548 23.1235C41.5868 21.3771 40.4669 19.9176 38.9011 19.0137C35.6697 17.148 31.5217 18.2592 29.6556 21.4912ZM37.964 20.6375C39.096 21.291 39.9058 22.3464 40.244 23.6088C40.5823 24.8714 40.4087 26.19 39.7548 27.3225L39.7319 27.3623C37.8896 30.5531 35.5885 33.4441 32.8924 35.955C31.8767 36.9009 30.3868 37.0701 29.1846 36.3762C28.4587 35.957 27.9394 35.2803 27.7224 34.4706C27.5055 33.6609 27.6168 32.8152 28.0359 32.0895L28.0607 32.0465C29.1797 30.1084 29.9227 28.0046 30.2691 25.7935L30.4112 24.8867C30.5474 24.0174 30.8395 23.1902 31.2794 22.4283C32.6286 20.092 35.6271 19.2884 37.964 20.6375Z" fill="#9069AC"/>
<path d="M39.5144 16.7937C39.6888 16.6193 39.7891 16.3774 39.7891 16.1309C39.7891 15.8843 39.6888 15.6424 39.5144 15.468C39.3391 15.2927 39.0972 15.1934 38.8516 15.1934C38.6041 15.1934 38.3631 15.2927 38.1878 15.468C38.0135 15.6424 37.9141 15.8843 37.9141 16.1309C37.9141 16.3774 38.0135 16.6193 38.1878 16.7937C38.3622 16.968 38.6041 17.0684 38.8516 17.0684C39.098 17.0684 39.3391 16.968 39.5144 16.7937Z" fill="#9069AC"/>
<path d="M41.5469 16.9736C41.2993 16.9736 41.0584 17.0739 40.8831 17.2483C40.7088 17.4227 40.6094 17.6646 40.6094 17.9111C40.6094 18.1577 40.7088 18.3996 40.8831 18.5739C41.0584 18.7483 41.3003 18.8486 41.5469 18.8486C41.7934 18.8486 42.0353 18.7483 42.2096 18.5739C42.384 18.3996 42.4844 18.1577 42.4844 17.9111C42.4844 17.6636 42.3841 17.4227 42.2096 17.2483C42.0353 17.0739 41.7934 16.9736 41.5469 16.9736Z" fill="#9069AC"/>
<path d="M43.1367 19.3477C42.8891 19.3477 42.6472 19.448 42.473 19.6223C42.2986 19.7967 42.1992 20.0386 42.1992 20.2852C42.1992 20.5317 42.2986 20.7736 42.473 20.948C42.6472 21.1223 42.8891 21.2227 43.1367 21.2227C43.3833 21.2227 43.6252 21.1223 43.7994 20.948C43.9738 20.7736 44.0742 20.5317 44.0742 20.2852C44.0742 20.0386 43.9739 19.7977 43.7994 19.6223C43.6252 19.448 43.3833 19.3477 43.1367 19.3477Z" fill="#9069AC"/>
<path d="M43.0898 23.2656C43.0898 23.5122 43.1901 23.7541 43.3645 23.9284C43.5389 24.1028 43.7798 24.2031 44.0273 24.2031C44.2739 24.2031 44.5158 24.1028 44.6901 23.9284C44.8644 23.7541 44.9648 23.5122 44.9648 23.2656C44.9648 23.0191 44.8645 22.7772 44.6901 22.6028C44.5158 22.4284 44.2739 22.3281 44.0273 22.3281C43.7808 22.3281 43.5389 22.4284 43.3645 22.6028C43.1901 22.7772 43.0898 23.0181 43.0898 23.2656Z" fill="#9069AC"/>
<path d="M37.0936 14.6361C37.0936 13.3136 36.0176 12.2378 34.6952 12.2378C33.3728 12.2378 32.2969 13.3138 32.2969 14.6361C32.2969 15.9584 33.3728 17.0344 34.6952 17.0344C36.0176 17.0345 37.0936 15.9586 37.0936 14.6361ZM34.1717 14.6361C34.1717 14.3474 34.4065 14.1127 34.6951 14.1127C34.9837 14.1127 35.2186 14.3475 35.2186 14.6361C35.2186 14.9247 34.9837 15.1595 34.6951 15.1595C34.4064 15.1595 34.1717 14.9247 34.1717 14.6361Z" fill="#9069AC"/>
<path d="M19.2401 38.6778C20.099 38.6778 20.9647 38.4552 21.7526 38.0001C22.9123 37.3305 23.7418 36.2495 24.0883 34.9561C24.4348 33.6627 24.2571 32.3117 23.5873 31.1519L23.5627 31.1093C22.5595 29.3718 21.8935 27.4859 21.583 25.5036L21.4408 24.5969C21.2687 23.4987 20.8997 22.4538 20.344 21.4913C18.4779 18.2592 14.3303 17.1478 11.0981 19.0139C9.53242 19.9179 8.41258 21.3774 7.94449 23.1238C7.47658 24.8701 7.71667 26.694 8.62042 28.2593L8.64396 28.3001C10.5795 31.6522 12.997 34.6895 15.8293 37.3274C16.786 38.2182 18.0062 38.6778 19.2401 38.6778ZM10.2682 27.3629L10.2446 27.3221C9.59102 26.19 9.41749 24.8714 9.75574 23.6088C10.0941 22.3463 10.9038 21.291 12.0357 20.6375C12.8045 20.1937 13.6445 19.9829 14.4742 19.9829C16.1666 19.9829 17.815 20.8607 18.7203 22.4287C19.1602 23.1906 19.4524 24.0178 19.5885 24.8871L19.7306 25.7938C20.077 28.0048 20.8201 30.1086 21.9391 32.0469L21.9638 32.0896C22.3829 32.8155 22.4942 33.6613 22.2774 34.4709C22.0604 35.2806 21.541 35.9573 20.8151 36.3764C19.6133 37.0705 18.123 36.9012 17.1073 35.9551C14.4113 33.4442 12.1101 30.5533 10.2682 27.3629Z" fill="#9069AC"/>
<path d="M11.8083 16.7937C11.9827 16.6184 12.0831 16.3774 12.0831 16.1309C12.0831 15.8843 11.9828 15.6424 11.8083 15.4671C11.633 15.2927 11.3921 15.1934 11.1445 15.1934C10.898 15.1934 10.6561 15.2927 10.4818 15.4671C10.3074 15.6424 10.207 15.8834 10.207 16.1309C10.207 16.3774 10.3073 16.6193 10.4818 16.7937C10.6561 16.968 10.898 17.0684 11.1445 17.0684C11.392 17.0684 11.6329 16.968 11.8083 16.7937Z" fill="#9069AC"/>
<path d="M8.45312 18.8486C8.69969 18.8486 8.94156 18.7483 9.11584 18.5739C9.29022 18.3996 9.39062 18.1577 9.39062 17.9111C9.39062 17.6646 9.29031 17.4227 9.11584 17.2483C8.94156 17.0739 8.69969 16.9736 8.45312 16.9736C8.20656 16.9736 7.96469 17.0739 7.79031 17.2483C7.61594 17.4227 7.51562 17.6646 7.51562 17.9111C7.51562 18.1577 7.61584 18.3996 7.79031 18.5739C7.96563 18.7483 8.20656 18.8486 8.45312 18.8486Z" fill="#9069AC"/>
<path d="M7.80078 20.2852C7.80078 20.0386 7.70056 19.7967 7.52609 19.6223C7.35172 19.448 7.10984 19.3477 6.86234 19.3477C6.61578 19.3477 6.37484 19.448 6.19953 19.6223C6.02525 19.7967 5.92578 20.0386 5.92578 20.2852C5.92578 20.5327 6.02525 20.7736 6.19953 20.948C6.37484 21.1223 6.61578 21.2227 6.86234 21.2227C7.10984 21.2227 7.35172 21.1223 7.52609 20.948C7.70047 20.7736 7.80078 20.5327 7.80078 20.2852Z" fill="#9069AC"/>
<path d="M5.97266 22.3281C5.72609 22.3281 5.48422 22.4275 5.30984 22.6028C5.13547 22.7772 5.03516 23.0191 5.03516 23.2656C5.03516 23.5122 5.13538 23.7541 5.30984 23.9284C5.48422 24.1028 5.72609 24.2031 5.97266 24.2031C6.21922 24.2031 6.46109 24.1028 6.63538 23.9284C6.80975 23.7541 6.91016 23.5122 6.91016 23.2656C6.91016 23.0191 6.80984 22.7772 6.63538 22.6028C6.46109 22.4275 6.21922 22.3281 5.97266 22.3281Z" fill="#9069AC"/>
<path d="M17.6991 14.6361C17.6991 13.3136 16.6231 12.2378 15.3008 12.2378C13.9782 12.2378 12.9023 13.3138 12.9023 14.6361C12.9023 15.9584 13.9783 17.0344 15.3008 17.0344C16.6232 17.0345 17.6991 15.9586 17.6991 14.6361ZM14.7773 14.6361C14.7773 14.3474 15.0121 14.1127 15.3008 14.1127C15.5893 14.1127 15.8242 14.3475 15.8242 14.6361C15.8242 14.9247 15.5893 15.1595 15.3008 15.1595C15.0121 15.1595 14.7773 14.9247 14.7773 14.6361Z" fill="#9069AC"/>
<path d="M35.7178 28.941C35.8577 29.0151 36.0077 29.0501 36.1556 29.0501C36.4918 29.0501 36.8168 28.8688 36.985 28.551L38.1405 26.3682C38.9595 24.9291 38.4622 23.0902 37.0263 22.261C36.5777 22.0021 36.0045 22.1558 35.7455 22.6041C35.4866 23.0526 35.6403 23.6259 36.0886 23.8849C36.6348 24.2002 36.8225 24.901 36.5074 25.4471C36.5015 25.4571 36.496 25.4671 36.4907 25.4772L35.3279 27.6739C35.0856 28.1315 35.2602 28.6988 35.7178 28.941Z" fill="#9069AC"/>
<path d="M34.3438 31.6123C34.5903 31.6123 34.8322 31.512 35.0066 31.3376C35.1808 31.1623 35.2812 30.9214 35.2812 30.6748C35.2812 30.4282 35.1809 30.1864 35.0066 30.012C34.8322 29.8367 34.5903 29.7373 34.3438 29.7373C34.0962 29.7373 33.8553 29.8367 33.68 30.012C33.5056 30.1864 33.4062 30.4273 33.4062 30.6748C33.4062 30.9214 33.5056 31.1632 33.68 31.3376C33.8553 31.512 34.0962 31.6123 34.3438 31.6123Z" fill="#9069AC"/>
</svg>
