<svg width="50" height="50" viewBox="0 0 50 50" fill="none" xmlns="http://www.w3.org/2000/svg">
<path d="M11.2539 19.4648H40.5088V31.4117H11.2539V19.4648Z" fill="#FAF4FF"/>
<path d="M23.3099 29.307C22.4246 28.8624 21.5143 28.4682 20.5887 28.1156C19.6603 27.762 18.7164 27.4501 17.7626 27.173C16.8234 26.9001 15.8745 26.6608 14.9195 26.4501C13.9962 26.2463 13.067 26.0694 12.1341 25.9159C11.2662 25.773 10.3948 25.6505 9.52137 25.5465C8.73434 25.4527 7.94553 25.3741 7.1555 25.3099C6.47919 25.2549 5.80194 25.2105 5.12422 25.1771C4.58825 25.1507 4.05191 25.131 3.51538 25.1192C3.14919 25.1111 2.78291 25.1066 2.41672 25.1072C2.30656 25.1074 2.19631 25.108 2.08616 25.1093C2.03187 25.11 1.96878 25.1023 1.91516 25.1122C1.90869 25.1134 1.90119 25.1125 1.89453 25.1126C2.666 25.3097 3.40803 25.6167 4.08369 26.0393C4.70403 26.4275 5.26166 26.9077 5.75909 27.4432C6.26497 27.9878 6.70972 28.5861 7.12278 29.2031C7.55553 29.8495 7.95491 30.5175 8.35484 31.1845C8.77156 31.8796 9.18903 32.5746 9.63687 33.2502C10.1062 33.9583 10.6091 34.645 11.1662 35.2868C11.7541 35.9641 12.402 36.5893 13.1101 37.1403C13.9002 37.7549 14.7616 38.2743 15.6689 38.6962C16.7405 39.1946 17.8714 39.558 19.0232 39.818C20.4419 40.1382 21.8928 40.3046 23.3444 40.3734C24.9833 40.4512 26.6337 40.4209 28.2652 40.2421C29.5919 40.0967 30.9108 39.8477 32.1852 39.447C33.2399 39.1153 34.2625 38.6779 35.2172 38.1188C36.05 37.6312 36.8275 37.0521 37.5357 36.3966C38.1879 35.7928 38.7798 35.1268 39.3229 34.4238C39.8446 33.7484 40.3213 33.0398 40.7797 32.3202C41.2175 31.6328 41.6386 30.9351 42.0756 30.2471C42.4939 29.5885 42.9271 28.9378 43.4092 28.3238C43.8735 27.7325 44.3849 27.1755 44.9637 26.694C45.5539 26.2029 46.2118 25.7964 46.9197 25.4979C47.293 25.3405 47.6786 25.2127 48.0711 25.1125C47.9345 25.1091 47.7977 25.108 47.6611 25.1074C47.2772 25.1055 46.8933 25.1097 46.5095 25.1177C45.9173 25.1301 45.3252 25.1521 44.7337 25.1823C43.972 25.2212 43.211 25.2738 42.4512 25.3399C41.5587 25.4174 40.6677 25.5135 39.7794 25.6292C38.7945 25.7574 37.8128 25.9097 36.8359 26.0889C35.7967 26.2796 34.763 26.5009 33.7381 26.7578C32.6819 27.0228 31.635 27.3257 30.6036 27.6747C29.5622 28.0271 28.5363 28.4266 27.5366 28.8843C27.0189 29.1213 26.5167 29.4203 25.9659 29.5735C25.3824 29.7359 24.7626 29.7514 24.1719 29.6171C23.8734 29.5494 23.5835 29.4443 23.3099 29.307Z" fill="#E6C8FF"/>
<path d="M35.7671 14.4279C33.9405 12.2761 33.261 11.3989 30.5499 11.5274C28.4158 11.6286 28.0377 12.4831 26.4274 13.6552C25.5639 14.2838 24.3974 14.2838 23.5338 13.6552C21.9236 12.4831 21.5455 11.6286 19.4114 11.5274C13.9639 11.269 16.7188 15.0709 1.89258 25.1128C1.89258 25.1128 14.6105 27.8013 22.9438 23.1894C23.5871 22.8335 24.2837 22.6555 24.9803 22.6555C25.677 22.6555 26.3736 22.8335 27.0174 23.1894C35.3507 27.8017 48.0686 25.1128 48.0686 25.1128C44.4745 22.6784 41.9135 20.6107 40.0184 18.8787" fill="#E6C8FF"/>
<path d="M38.5741 9.58887L40.2269 14.0911L44.6933 15.7571L40.2269 17.4231L38.5741 21.9254L36.9214 17.4231L32.4551 15.7571L36.9214 14.0911L38.5741 9.58887Z" fill="#FAF4FF"/>
<path d="M48.9766 24.901C48.919 24.6527 48.7684 24.4515 48.571 24.3242C45.5278 22.262 43.004 20.3174 40.866 18.3869L40.9523 18.1518L44.9879 16.6465C45.3083 16.527 45.5553 16.2525 45.6116 15.9152C45.6873 15.4624 45.4301 15.0331 45.0143 14.8779L40.9523 13.3627L39.4579 9.2919C39.3394 8.96921 39.0639 8.72003 38.7248 8.66349C38.2702 8.58774 37.8396 8.84724 37.686 9.26556L36.182 13.3627L36.1098 13.3896C34.4887 11.4862 33.4645 10.4486 30.4985 10.5899C28.5673 10.6814 27.7558 11.359 26.8163 12.1437C26.53 12.3828 26.2339 12.6301 25.8685 12.896C25.3352 13.2842 24.612 13.2842 24.0788 12.896C23.7133 12.6301 23.4173 12.3828 23.131 12.1437C22.1915 11.359 21.38 10.6814 19.4488 10.5898C16.3364 10.4421 15.362 11.5915 13.5925 13.678C11.8243 15.7627 8.86511 19.2519 1.3593 24.3356C1.3592 24.3357 1.35836 24.3363 1.35667 24.3377C0.774953 24.8181 0.930578 25.7483 1.63614 26.0156L1.65339 26.0222C4.60895 26.7769 5.96823 29.044 7.54202 31.6691C8.64039 33.5011 9.8853 35.5776 11.8286 37.3024C14.0575 39.2806 16.87 40.5018 20.4271 41.0361C20.4744 41.0432 20.5213 41.0466 20.5676 41.0466C21.0375 41.0466 21.4479 40.6931 21.4999 40.2067C21.5539 39.7016 21.1763 39.2512 20.674 39.175C13.5864 38.1003 11.3321 34.3403 9.15198 30.7039C8.27627 29.2433 7.42539 27.8241 6.3077 26.6595C7.20583 26.7355 8.20183 26.7948 9.26495 26.8189C10.1168 26.8382 10.9465 26.834 11.7535 26.8066C16.1181 27.5069 19.861 28.6302 22.8798 30.1459C23.5451 30.48 24.2593 30.6469 24.9736 30.6469C25.6878 30.6469 26.4021 30.4799 27.0674 30.1458C30.0535 28.6466 33.8442 27.4561 37.7531 26.7893C38.3688 26.8171 38.998 26.831 39.6404 26.831C39.9836 26.831 40.3315 26.827 40.6823 26.8191C41.7297 26.7954 42.712 26.7374 43.5998 26.6629C42.4522 27.8355 41.5657 29.266 40.6533 30.7384C38.4046 34.3674 36.0794 38.1199 29.1306 39.1818L29.1216 39.1832C28.6184 39.2593 28.2415 39.7122 28.2974 40.218C28.351 40.7027 28.7605 41.0546 29.2293 41.0546C29.2758 41.0546 29.3229 41.0511 29.3703 41.044L29.4152 41.0372C32.8926 40.5058 35.667 39.2922 37.897 37.3273C39.8397 35.6154 41.1197 33.5497 42.249 31.727C43.8885 29.0811 45.3051 26.795 48.2724 26.0279C48.7683 25.8997 49.0925 25.3999 48.9766 24.901ZM37.2425 14.9706C37.4991 14.8749 37.7011 14.6717 37.7955 14.4147L38.5672 12.3126L39.3388 14.4147C39.4332 14.6718 39.6353 14.8749 39.8919 14.9706L42.0008 15.7573L39.892 16.5438C39.6353 16.6396 39.4332 16.8427 39.3388 17.0998L38.5672 19.2018L37.7955 17.0998C37.7011 16.8426 37.4991 16.6396 37.2424 16.5438L35.1336 15.7573L37.2425 14.9706ZM26.2254 28.4684C25.4183 28.8737 24.5293 28.8736 23.7222 28.4684C21.8923 27.5495 19.8203 26.7687 17.5265 26.1319C19.7289 25.661 21.6886 24.953 23.3914 24.0107C23.8909 23.7343 24.4231 23.5941 24.9735 23.5941C25.5238 23.5941 26.0564 23.7343 26.5561 24.0107C28.2365 24.9407 30.1667 25.6425 32.3335 26.1134C30.1146 26.7615 28.033 27.5607 26.2254 28.4684ZM27.4648 22.3682C26.6946 21.9422 25.8331 21.7171 24.9735 21.7171C24.1137 21.7171 23.2524 21.9422 22.4825 22.3683C16.604 25.6215 8.28733 25.0673 4.33473 24.5538C10.6571 20.041 13.3541 16.8613 15.0241 14.8923C16.7161 12.8972 17.1712 12.3612 19.36 12.465C20.6611 12.5267 21.0845 12.8802 21.9279 13.5846C22.2235 13.8315 22.5584 14.1113 22.9745 14.4141C24.1704 15.2846 25.7771 15.2846 26.9727 14.4141C27.3889 14.1112 27.7239 13.8315 28.0195 13.5846C28.863 12.8803 29.2864 12.5267 30.5875 12.465C32.4474 12.3768 33.0554 12.7507 34.2344 14.0892L32.12 14.8779C31.7529 15.0149 31.5094 15.3655 31.5094 15.7573C31.5094 16.1491 31.7529 16.4997 32.12 16.6367L36.182 18.1518L37.686 22.249C37.8217 22.6185 38.1735 22.8642 38.5671 22.8642C38.9607 22.8642 39.3125 22.6186 39.4481 22.249L40.1706 20.281C41.7703 21.6849 43.5686 23.0973 45.6132 24.5552C41.6624 25.0701 33.3506 25.6258 27.4648 22.3682Z" fill="#9069AC"/>
</svg>
