<svg width="50" height="50" viewBox="0 0 50 50" fill="none" xmlns="http://www.w3.org/2000/svg">
<path d="M30.1071 46.1406H19.9013C18.7337 46.1406 17.7871 45.1941 17.7871 44.0264V38.0625H32.2212V44.0264C32.2213 45.1941 31.2747 46.1406 30.1071 46.1406Z" fill="#E6C8FF"/>
<path d="M28.0637 46.1406H21.9453V43.5762C21.9453 43.094 22.3362 42.7031 22.8184 42.7031H27.1906C27.6728 42.7031 28.0636 43.094 28.0636 43.5762V46.1406H28.0637Z" fill="#E6C8FF"/>
<path d="M33.4822 3.85938H16.5231C15.5216 3.85938 14.7363 4.71961 14.8275 5.717L17.7856 38.0625H32.2196L35.1777 5.717C35.269 4.71961 34.4837 3.85938 33.4822 3.85938Z" fill="#E6C8FF"/>
<path d="M33.4823 3.85938H16.5231C15.5216 3.85938 14.7363 4.71961 14.8275 5.717L15.0156 7.77383H34.9897L35.1778 5.717C35.269 4.71961 34.4838 3.85938 33.4823 3.85938Z" fill="#E6C8FF"/>
<path d="M28.5293 19.8856C28.5293 22.5758 27.1231 24.9372 25.0059 26.2758C22.8886 24.9372 21.4824 22.5758 21.4824 19.8856C21.4824 17.9571 22.2051 16.1975 23.3944 14.8625C24.2542 13.8974 25.7576 13.8974 26.6174 14.8625C27.8066 16.1975 28.5293 17.9571 28.5293 19.8856Z" fill="#E6C8FF"/>
<path d="M35.38 3.8348C34.8958 3.3043 34.2061 3 33.4878 3H16.5287C15.8104 3 15.1207 3.3043 14.6364 3.8348C14.1522 4.36529 13.912 5.07986 13.9774 5.7952L16.9319 38.1017V44.0264C16.9319 45.6661 18.2658 47 19.9055 47H30.1112C31.7509 47 33.0848 45.6661 33.0848 44.0264V38.1017L36.0393 5.7952C36.1046 5.07995 35.8644 4.36537 35.38 3.8348ZM15.9059 4.99349C16.0676 4.81629 16.2888 4.71875 16.5287 4.71875H33.4878C33.7278 4.71875 33.9489 4.81629 34.1106 4.99349C34.2724 5.1707 34.3495 5.39989 34.3275 5.63871L34.2108 6.91445H28.8754C28.4008 6.91445 28.016 7.2992 28.016 7.77383C28.016 8.24846 28.4008 8.6332 28.8754 8.6332H34.0537L31.4409 37.2031H18.5755L15.9628 8.63329H21.141C21.6157 8.63329 22.0004 8.24855 22.0004 7.77391C22.0004 7.29928 21.6157 6.91454 21.141 6.91454H15.8056L15.6889 5.6388C15.6671 5.39989 15.7441 5.1707 15.9059 4.99349ZM22.8084 45.2812V43.5762C22.8084 43.5686 22.8145 43.5625 22.8221 43.5625H27.1943C27.2019 43.5625 27.208 43.5686 27.208 43.5762V45.2812H22.8084ZM31.3659 44.0264C31.3659 44.7183 30.803 45.2812 30.111 45.2812H28.9267V43.5762C28.9267 42.6209 28.1496 41.8438 27.1943 41.8438H22.8221C21.8668 41.8438 21.0896 42.6209 21.0896 43.5762V45.2812H19.9053C19.2135 45.2812 18.6505 44.7184 18.6505 44.0264V38.9219H31.3658V44.0264H31.3659Z" fill="#9069AC"/>
<path d="M24.1484 26.7323V27.7829C24.1484 28.2575 24.5332 28.6423 25.0078 28.6423C25.4824 28.6423 25.8672 28.2575 25.8672 27.7829V26.7323C28.082 25.1516 29.3906 22.6269 29.3906 19.8856C29.3906 17.8194 28.6343 15.8324 27.261 14.2909C26.6883 13.6481 25.867 13.2793 25.0078 13.2793C24.1486 13.2793 23.3273 13.6481 22.7546 14.2909C21.3813 15.8324 20.625 17.8193 20.625 19.8855C20.625 22.6269 21.9337 25.1515 24.1484 26.7323ZM24.0379 15.4341C24.2885 15.1529 24.6329 14.998 25.0078 14.998C25.3828 14.998 25.7271 15.1528 25.9777 15.4341C27.0702 16.6605 27.6719 18.2413 27.6719 19.8855C27.6719 21.6151 27.0171 23.2367 25.8672 24.4614V20.3489C25.8672 19.8743 25.4824 19.4896 25.0078 19.4896C24.5332 19.4896 24.1484 19.8743 24.1484 20.3489V24.4614C22.9985 23.2367 22.3438 21.6151 22.3438 19.8855C22.3438 18.2413 22.9454 16.6605 24.0379 15.4341Z" fill="#9069AC"/>
<path d="M28.457 30.9409H21.582C21.1074 30.9409 20.7227 31.3257 20.7227 31.8003C20.7227 32.2749 21.1074 32.6597 21.582 32.6597H28.457C28.9317 32.6597 29.3164 32.2749 29.3164 31.8003C29.3164 31.3257 28.9317 30.9409 28.457 30.9409Z" fill="#9069AC"/>
<path d="M28.7 6.91943H20.2826C19.7015 6.91943 19.2305 7.30198 19.2305 7.7739C19.2305 8.24583 19.7015 8.62838 20.2826 8.62838H28.7C29.2811 8.62838 29.7522 8.24583 29.7522 7.7739C29.7522 7.30198 29.2811 6.91943 28.7 6.91943Z" fill="#9069AC"/>
</svg>
