<svg width="50" height="50" viewBox="0 0 50 50" fill="none" xmlns="http://www.w3.org/2000/svg">
<path d="M44.2188 29.1468V39.3195C42.8788 39.0739 41.3342 39.3448 40.1602 40.0273C38.3133 41.1016 36.032 41.1016 34.1844 40.0273C32.3672 38.9531 30.028 38.9695 28.2094 40.0273C26.3782 41.0916 24.0647 41.0916 22.2336 40.0273C20.4155 38.9706 18.0736 38.948 16.2578 40.0273C14.4273 41.0914 12.1125 41.0898 10.282 40.0273C8.90391 39.2257 7.28281 39.0226 5.78125 39.4179V29.2452C7.28281 28.8499 8.90391 29.053 10.282 29.8547C12.1102 30.9085 14.432 30.9296 16.2578 29.8547C18.0725 28.7999 20.4178 28.8229 22.2336 29.8547C24.1234 30.9538 26.3509 30.8951 28.3023 29.8023C30.1091 28.7904 32.3891 28.7983 34.1844 29.8547C36.032 30.9289 38.3133 30.9289 40.1602 29.8547C41.4046 29.1312 42.8453 28.896 44.2188 29.1468Z" fill="#E6C8FF"/>
<path d="M14.8891 35.5584C14.8891 36.5061 14.1208 37.2744 13.173 37.2744C12.2253 37.2744 11.457 36.5061 11.457 35.5584C11.457 34.6107 12.2253 33.8424 13.173 33.8424C14.1208 33.8424 14.8891 34.6107 14.8891 35.5584Z" fill="#FAF4FF"/>
<path d="M38.9223 35.5584C38.9223 36.5061 38.154 37.2744 37.2062 37.2744C36.2585 37.2744 35.4902 36.5061 35.4902 35.5584C35.4902 34.6107 36.2585 33.8424 37.2062 33.8424C38.154 33.8424 38.9223 34.6107 38.9223 35.5584Z" fill="#FAF4FF"/>
<path d="M14.8891 35.5584C14.8891 36.5061 14.1208 37.2744 13.173 37.2744C12.2253 37.2744 11.457 36.5061 11.457 35.5584C11.457 34.6107 12.2253 33.8424 13.173 33.8424C14.1208 33.8424 14.8891 34.6107 14.8891 35.5584Z" stroke="#9069AC" stroke-width="1.5625" stroke-miterlimit="10" stroke-linecap="round" stroke-linejoin="round"/>
<path d="M38.9223 35.5584C38.9223 36.5061 38.154 37.2744 37.2062 37.2744C36.2585 37.2744 35.4902 36.5061 35.4902 35.5584C35.4902 34.6107 36.2585 33.8424 37.2062 33.8424C38.154 33.8424 38.9223 34.6107 38.9223 35.5584Z" stroke="#9069AC" stroke-width="1.5625" stroke-miterlimit="10" stroke-linecap="round" stroke-linejoin="round"/>
<path d="M44.2188 29.1468V39.3195C42.8788 39.0739 41.3342 39.3448 40.1602 40.0273C38.3133 41.1016 36.032 41.1016 34.1844 40.0273C32.3672 38.9531 30.028 38.9695 28.2094 40.0273C26.3782 41.0916 24.0647 41.0916 22.2336 40.0273C20.4155 38.9706 18.0736 38.948 16.2578 40.0273C14.4273 41.0914 12.1125 41.0898 10.282 40.0273C8.90391 39.2257 7.28281 39.0226 5.78125 39.4179V29.2452C7.28281 28.8499 8.90391 29.053 10.282 29.8547C12.1102 30.9085 14.432 30.9296 16.2578 29.8547C18.0725 28.7999 20.4178 28.8229 22.2336 29.8547C24.1234 30.9538 26.3509 30.8951 28.3023 29.8023C30.1091 28.7904 32.3891 28.7983 34.1844 29.8547C36.032 30.9289 38.3133 30.9289 40.1602 29.8547C41.4046 29.1312 42.8453 28.896 44.2188 29.1468Z" stroke="#9069AC" stroke-width="1.5625" stroke-miterlimit="10" stroke-linecap="round" stroke-linejoin="round"/>
<path d="M44.2207 17.8548V29.1462C42.8809 28.9009 41.3363 29.172 40.1621 29.854C38.3152 30.9282 36.034 30.9282 34.1864 29.854C32.3691 28.7806 30.0895 28.797 28.2113 29.854C26.3355 30.9095 24.0668 30.9181 22.2355 29.854C20.4176 28.7978 18.0754 28.7743 16.2598 29.854C14.4293 30.9181 12.1145 30.9173 10.284 29.854C8.90594 29.0524 7.28484 28.8492 5.7832 29.2446V17.7446C7.66211 17.5235 9.75195 17.9048 11.4419 18.8876C14.1254 20.4657 17.5332 20.4782 20.2332 18.9657C23.1504 17.3321 26.4793 17.2445 29.3043 18.8876C32.0176 20.429 35.523 20.4641 38.2356 18.8876C40.0949 17.793 42.1419 17.4587 44.2207 17.8548Z" fill="#E6C8FF"/>
<path d="M21.6995 18.2878C21.2024 18.4718 20.7122 18.6975 20.2332 18.9657C17.5333 20.4782 14.1255 20.4657 11.4419 18.8876C9.75195 17.9048 7.66211 17.5235 5.7832 17.7446V29.2446C7.28484 28.8493 8.90594 29.0524 10.2841 29.854C12.1145 30.9173 14.4293 30.9181 16.2598 29.854C18.0754 28.7743 20.4177 28.7978 22.2355 29.854C24.0669 30.9181 26.3356 30.9095 28.2114 29.854C30.0895 28.797 32.3691 28.7806 34.1864 29.854C36.034 30.9282 38.3153 30.9282 40.1621 29.854C41.3364 29.172 42.8809 28.9009 44.2207 29.1462V17.8548C42.1419 17.4587 40.095 17.793 38.2356 18.8876C35.523 20.4641 32.0176 20.429 29.3044 18.8876C29.0283 18.727 28.7473 18.5835 28.4623 18.4558" stroke="#9069AC" stroke-width="1.5625" stroke-miterlimit="10" stroke-linecap="round" stroke-linejoin="round"/>
<path d="M16.2129 9.16649V16.1196" stroke="#9069AC" stroke-width="1.5625" stroke-miterlimit="10" stroke-linecap="round" stroke-linejoin="round"/>
<path d="M18.5 13.5503L16.213 16.1196L13.9258 13.5503" stroke="#9069AC" stroke-width="1.5625" stroke-miterlimit="10" stroke-linecap="round" stroke-linejoin="round"/>
<path d="M25.1543 26.8667V21.0073" stroke="#9069AC" stroke-width="1.5625" stroke-miterlimit="10" stroke-linecap="round" stroke-linejoin="round"/>
<path d="M22.8672 23.5767L25.1542 21.0072L27.4414 23.5767" stroke="#9069AC" stroke-width="1.5625" stroke-miterlimit="10" stroke-linecap="round" stroke-linejoin="round"/>
<path d="M33.9375 9.16649V16.1196" stroke="#9069AC" stroke-width="1.5625" stroke-miterlimit="10" stroke-linecap="round" stroke-linejoin="round"/>
<path d="M36.2266 13.5503L33.9395 16.1196L31.6523 13.5503" stroke="#9069AC" stroke-width="1.5625" stroke-miterlimit="10" stroke-linecap="round" stroke-linejoin="round"/>
</svg>
