<svg width="50" height="50" viewBox="0 0 50 50" fill="none" xmlns="http://www.w3.org/2000/svg">
<path d="M26.763 16.2195L26.6736 15.383C26.577 14.4789 26.6483 13.5647 26.8836 12.6866C27.6476 9.8352 30.5785 8.14309 33.4299 8.90707C36.2814 9.67114 37.9735 12.602 37.2095 15.4534L37.1985 15.4946C36.303 18.8364 34.9149 22.0262 33.0797 24.959C32.2088 26.3508 30.5315 27.0108 28.9457 26.5859C26.9527 26.0519 25.77 24.0033 26.304 22.0102L26.3158 21.9664C26.8171 20.0947 26.9688 18.1464 26.763 16.2195Z" fill="#E6C8FF"/>
<path d="M28.8899 6.53819C29.6295 6.53819 30.2291 5.93863 30.2291 5.19903C30.2291 4.45943 29.6295 3.85986 28.8899 3.85986C28.1503 3.85986 27.5508 4.45943 27.5508 5.19903C27.5508 5.93863 28.1503 6.53819 28.8899 6.53819Z" fill="#E6C8FF"/>
<path d="M23.2335 20.1336L23.3228 19.297C23.4194 18.393 23.3482 17.4788 23.1129 16.6007C22.3488 13.7493 19.418 12.0571 16.5665 12.8211C13.7151 13.5852 12.0229 16.516 12.787 19.3675L12.798 19.4087C13.6935 22.7504 15.0815 25.9403 16.9168 28.8731C17.7877 30.2647 19.465 30.9249 21.0507 30.4999C23.0438 29.9659 24.2265 27.9173 23.6925 25.9243L23.6807 25.8805C23.1794 24.0086 23.0276 22.0604 23.2335 20.1336Z" fill="#E6C8FF"/>
<path d="M21.1067 10.4518C21.8463 10.4518 22.4459 9.8522 22.4459 9.1126C22.4459 8.373 21.8463 7.77344 21.1067 7.77344C20.3671 7.77344 19.7676 8.373 19.7676 9.1126C19.7676 9.8522 20.3671 10.4518 21.1067 10.4518Z" fill="#E6C8FF"/>
<path d="M10.0029 28.2908L7.97286 26.8485L7.97234 26.8477V17.5838V16.0341C7.97234 14.8986 7.05178 13.978 5.91629 13.978C4.7808 13.978 3.85938 14.8987 3.85938 16.0343L3.86032 34.0565C3.86041 36.0831 4.42115 38.0701 5.48059 39.7978L9.36969 46.1404H14.3062H19.2427V41.2559C19.2427 38.118 17.8821 35.1344 15.5132 33.0768L11.2955 29.4134L11.4099 29.3644L10.0029 28.2908Z" fill="#E6C8FF"/>
<path d="M40.4768 27.8745L42.0274 26.8485L42.0279 26.8477V17.5838V16.0341C42.0279 14.8986 42.9485 13.978 44.084 13.978H44.0849C45.2205 13.978 46.1411 14.8986 46.1409 16.0342L46.1399 34.0564C46.1399 36.083 45.5791 38.07 44.5197 39.7977L40.6306 46.1403H30.7578V41.2558C30.7578 38.118 32.1184 35.1343 34.4873 33.0767L38.7049 29.4135L38.5905 29.3644L40.4768 27.8745Z" fill="#E6C8FF"/>
<path d="M44.7968 28.7044C44.5534 27.8167 43.9293 27.0984 43.0843 26.7337C43.0193 26.7057 42.9535 26.6802 42.8873 26.6571V16.0341C42.8873 15.3743 43.4241 14.8374 44.085 14.8374C44.4047 14.8374 44.7052 14.9619 44.9312 15.1879C45.1572 15.414 45.2818 15.7146 45.2818 16.0343L45.2817 18.7268C45.2817 19.2014 45.6664 19.5861 46.1411 19.5861C46.6156 19.5861 47.0004 19.2014 47.0004 18.7268L47.0005 16.0343C47.0005 15.2554 46.6973 14.5233 46.1466 13.9726C45.596 13.4219 44.8639 13.1187 44.0841 13.1187C42.4765 13.1187 41.1688 14.4265 41.1688 16.034V26.5789C40.712 26.691 40.2793 26.9078 39.9135 27.2256L33.9239 32.4278C31.3656 34.6497 29.8984 37.8674 29.8984 41.2557V46.1402C29.8984 46.6148 30.2832 46.9996 30.7578 46.9996C31.2324 46.9996 31.6172 46.6148 31.6172 46.1402V41.2557C31.6172 38.3654 32.8687 35.6207 35.0509 33.7254L41.0404 28.5232C41.4141 28.1988 41.949 28.1157 42.4033 28.3119C42.7665 28.4686 43.0348 28.7773 43.1393 29.1587C43.2438 29.5402 43.1705 29.9426 42.9381 30.2626L37.8953 37.2054C37.6163 37.5894 37.7016 38.1269 38.0855 38.4058C38.4696 38.6846 39.007 38.5995 39.2859 38.2155L44.3287 31.2727C44.8695 30.528 45.0402 29.5918 44.7968 28.7044Z" fill="#9069AC"/>
<path d="M46.1403 17.1405C45.6656 17.1405 45.2809 17.5253 45.2809 17.9999L45.2809 34.0563C45.2808 35.9253 44.7643 37.7552 43.7875 39.3484L39.8984 45.6911C39.6503 46.0956 39.7771 46.6248 40.1817 46.8729C40.3219 46.9589 40.477 46.9998 40.6301 46.9998C40.9192 46.9998 41.2014 46.854 41.3636 46.5896L45.2527 40.247C46.3954 38.3832 46.9996 36.2427 46.9997 34.0566V18C46.9997 17.5253 46.6149 17.1405 46.1403 17.1405Z" fill="#9069AC"/>
<path d="M16.0766 32.4277L10.087 27.2255C9.72117 26.9078 9.28856 26.6909 8.83181 26.5787V16.034C8.83181 14.4264 7.52392 13.1187 5.91543 13.1187C5.13666 13.1187 4.40448 13.4219 3.85388 13.9726C3.30319 14.5231 3 15.2553 3 16.0341L3.00095 34.0563C3.00103 36.2424 3.60517 38.383 4.74797 40.2468L8.63699 46.5894C8.79915 46.8538 9.08137 46.9997 9.37038 46.9996C9.52352 46.9996 9.67863 46.9586 9.8188 46.8728C10.2234 46.6246 10.3503 46.0954 10.1021 45.6909L6.21312 39.3483C5.23618 37.755 4.71978 35.9251 4.7197 34.0562L4.71875 16.034C4.71875 15.7143 4.84319 15.4138 5.06929 15.1878C5.2953 14.9618 5.59583 14.8372 5.91646 14.8372C6.57629 14.8372 7.11314 15.3741 7.11314 16.0339V26.6569C7.04688 26.6801 6.98114 26.7055 6.91617 26.7336C6.07115 27.0983 5.44698 27.8165 5.20361 28.7041C4.96023 29.5917 5.13091 30.5279 5.6718 31.2724L10.7147 38.2152C10.9936 38.5993 11.5311 38.6845 11.9151 38.4055C12.299 38.1266 12.3842 37.5892 12.1053 37.2051L7.06244 30.2623C6.82998 29.9423 6.75667 29.54 6.86126 29.1585C6.96584 28.7771 7.23414 28.4683 7.59731 28.3116C8.05158 28.1154 8.58654 28.1984 8.96011 28.5229L14.9497 33.7252C17.1319 35.6205 18.3834 38.3651 18.3834 41.2554V46.14C18.3834 46.6145 18.7682 46.9993 19.2428 46.9993C19.7174 46.9993 20.1022 46.6145 20.1022 46.14V41.2554C20.1019 37.8673 18.6347 34.6496 16.0766 32.4277Z" fill="#9069AC"/>
<path d="M33.8094 25.4152C35.6916 22.4075 37.1114 19.1446 38.0299 15.7173L38.0409 15.6762C38.4698 14.0754 38.2497 12.4035 37.421 10.9681C36.5924 9.5329 35.2545 8.50638 33.6537 8.07738C32.0529 7.64838 30.381 7.86864 28.9456 8.69716C27.5103 9.52586 26.4838 10.8637 26.0548 12.4645C25.7911 13.4486 25.7122 14.4614 25.8204 15.4746L25.9097 16.3111C26.105 18.1399 25.9627 19.9679 25.4866 21.7447L25.475 21.7881C25.1573 22.9738 25.3203 24.2121 25.9341 25.2752C26.5478 26.3382 27.5388 27.0987 28.7244 27.4163C29.1254 27.5237 29.5293 27.5757 29.928 27.5757C31.4818 27.5756 32.9513 26.7863 33.8094 25.4152ZM27.4225 24.4159C27.0383 23.7504 26.9363 22.9752 27.1352 22.2326L27.1468 22.1892C27.6778 20.2075 27.8365 18.1686 27.6187 16.1286L27.5293 15.2921C27.4436 14.49 27.506 13.6883 27.7149 12.9094C28.2513 10.9076 30.0682 9.58421 32.0487 9.58421C32.4319 9.58421 32.8214 9.63379 33.2087 9.73761C35.5978 10.3778 37.0207 12.8423 36.3805 15.2316L36.3695 15.2727C35.4954 18.5349 34.1438 21.6406 32.3522 24.5036C31.6773 25.5821 30.3983 26.0856 29.1691 25.7564C28.427 25.5572 27.8067 25.0812 27.4225 24.4159Z" fill="#9069AC"/>
<path d="M32.9258 6.39563C33.1527 6.39563 33.3735 6.30453 33.5334 6.14383C33.6941 5.98398 33.7852 5.76312 33.7852 5.53625C33.7852 5.31023 33.6941 5.08852 33.5334 4.92867C33.3735 4.76883 33.1527 4.67773 32.9258 4.67773C32.6998 4.67773 32.478 4.76883 32.3182 4.92867C32.1584 5.08852 32.0664 5.31023 32.0664 5.53625C32.0664 5.76312 32.1584 5.98398 32.3182 6.14383C32.478 6.30453 32.6998 6.39563 32.9258 6.39563Z" fill="#9069AC"/>
<path d="M35.7324 7.33301C35.9584 7.33301 36.1802 7.24191 36.34 7.08121C36.4998 6.92137 36.5918 6.70051 36.5918 6.47363C36.5918 6.24762 36.4998 6.0259 36.34 5.86605C36.1802 5.70621 35.9584 5.61426 35.7324 5.61426C35.5064 5.61426 35.2847 5.70621 35.1248 5.86605C34.965 6.0259 34.873 6.24762 34.873 6.47363C34.873 6.70051 34.965 6.92137 35.1248 7.08121C35.2847 7.242 35.5064 7.33301 35.7324 7.33301Z" fill="#9069AC"/>
<path d="M37.7031 9.05859C37.9291 9.05859 38.1509 8.96664 38.3107 8.8068C38.4705 8.64695 38.5625 8.42523 38.5625 8.19922C38.5625 7.97234 38.4705 7.75148 38.3107 7.59164C38.1509 7.43094 37.9291 7.33984 37.7031 7.33984C37.4762 7.33984 37.2554 7.43094 37.0955 7.59164C36.9357 7.75148 36.8438 7.97234 36.8438 8.19922C36.8438 8.42523 36.9357 8.64695 37.0955 8.8068C37.2554 8.96664 37.4762 9.05859 37.7031 9.05859Z" fill="#9069AC"/>
<path d="M38.5916 11.234C38.7515 11.3939 38.9732 11.4858 39.1992 11.4858C39.4261 11.4858 39.647 11.3939 39.8068 11.234C39.9675 11.0733 40.0586 10.8525 40.0586 10.6265C40.0586 10.3996 39.9675 10.1787 39.8068 10.0189C39.6478 9.85818 39.4261 9.76709 39.1992 9.76709C38.9732 9.76709 38.7515 9.85818 38.5916 10.0189C38.4318 10.1779 38.3398 10.3996 38.3398 10.6265C38.3398 10.8524 38.4318 11.0741 38.5916 11.234Z" fill="#9069AC"/>
<path d="M27.7914 7.10331C28.1302 7.2989 28.5061 7.39885 28.8871 7.39876C29.0781 7.39876 29.2703 7.37367 29.4598 7.32288C30.0271 7.17086 30.5012 6.80708 30.7948 6.29851C31.0884 5.78993 31.1665 5.19739 31.0144 4.6302C30.7007 3.45922 29.4927 2.76201 28.3219 3.07559C27.7546 3.22762 27.2805 3.59139 26.9869 4.09997C26.6932 4.60855 26.6153 5.20108 26.7672 5.76827C26.9191 6.33555 27.2829 6.80966 27.7914 7.10331ZM28.4752 4.95934C28.5393 4.84831 28.6427 4.76899 28.7666 4.73573C28.808 4.72465 28.8496 4.71932 28.8906 4.71932C29.1024 4.71932 29.2968 4.86094 29.3542 5.07501C29.3874 5.19876 29.3704 5.3281 29.3063 5.43905C29.2422 5.55008 29.1387 5.6294 29.0148 5.66265C28.891 5.69591 28.7617 5.67881 28.6508 5.6147C28.5398 5.55059 28.4605 5.44712 28.4272 5.32329C28.394 5.19962 28.4111 5.07029 28.4752 4.95934Z" fill="#9069AC"/>
<path d="M24.5123 25.6578C24.0363 23.8814 23.894 22.0534 24.0892 20.2247L24.1786 19.3882C24.2868 18.3749 24.208 17.3621 23.9442 16.378C23.0587 13.0736 19.6501 11.1054 16.3454 11.9909C14.7447 12.4199 13.4067 13.4465 12.5781 14.8817C11.7494 16.3169 11.5293 17.9889 11.9582 19.5896L11.9693 19.631C12.8877 23.0582 14.3076 26.321 16.1898 29.3287C17.0479 30.7 18.5171 31.4893 20.071 31.4893C20.4696 31.4893 20.8738 31.4374 21.2746 31.33C22.4603 31.0123 23.4512 30.2519 24.0649 29.1888C24.6787 28.1258 24.8417 26.8875 24.5242 25.7024L24.5123 25.6578ZM22.5766 28.3294C22.1923 28.9949 21.572 29.4708 20.8299 29.6697C19.601 29.999 18.3217 29.4956 17.6468 28.417C15.8552 25.5542 14.5037 22.4483 13.6295 19.1862L13.6184 19.1449C12.9783 16.7558 14.4012 14.2912 16.7903 13.6511C17.1768 13.5475 17.569 13.4963 17.9586 13.4963C18.7359 13.4963 19.503 13.7002 20.1942 14.0992C21.2319 14.6983 21.9741 15.6657 22.2842 16.823C22.493 17.602 22.5554 18.4037 22.4697 19.2057L22.3804 20.0422C22.1625 22.0822 22.3212 24.1211 22.8521 26.1021L22.8639 26.1465C23.0627 26.8886 22.9606 27.6639 22.5766 28.3294Z" fill="#9069AC"/>
<path d="M17.0742 10.3101C17.3002 10.3101 17.522 10.2181 17.6818 10.0583C17.8416 9.89756 17.9336 9.6767 17.9336 9.45068C17.9336 9.22381 17.8416 9.00295 17.6818 8.84311C17.522 8.6824 17.3002 8.59131 17.0742 8.59131C16.8482 8.59131 16.6265 8.6824 16.4666 8.84311C16.3068 9.00295 16.2148 9.22381 16.2148 9.45068C16.2148 9.6767 16.3068 9.89756 16.4666 10.0583C16.6265 10.218 16.8482 10.3101 17.0742 10.3101Z" fill="#9069AC"/>
<path d="M14.2656 11.2474C14.4916 11.2474 14.7134 11.1555 14.8732 10.9956C15.033 10.8349 15.125 10.6141 15.125 10.3872C15.125 10.1612 15.033 9.94033 14.8732 9.77963C14.7134 9.61979 14.4916 9.52783 14.2656 9.52783C14.0396 9.52783 13.8179 9.61979 13.658 9.77963C13.4982 9.93947 13.4062 10.1612 13.4062 10.3872C13.4062 10.6141 13.4982 10.8349 13.658 10.9956C13.818 11.1555 14.0396 11.2474 14.2656 11.2474Z" fill="#9069AC"/>
<path d="M12.2949 12.9722C12.5209 12.9722 12.7427 12.8802 12.9025 12.7204C13.0623 12.5605 13.1543 12.3388 13.1543 12.1128C13.1543 11.8868 13.0623 11.6651 12.9025 11.5052C12.7427 11.3454 12.5209 11.2534 12.2949 11.2534C12.0689 11.2534 11.8472 11.3454 11.6873 11.5052C11.5275 11.6651 11.4355 11.8868 11.4355 12.1128C11.4355 12.3388 11.5275 12.5605 11.6873 12.7204C11.8472 12.8801 12.0689 12.9722 12.2949 12.9722Z" fill="#9069AC"/>
<path d="M10.7988 15.3989C11.0248 15.3989 11.2466 15.307 11.4064 15.1471C11.5662 14.9873 11.6582 14.7656 11.6582 14.5396C11.6582 14.3135 11.5662 14.0918 11.4064 13.932C11.2466 13.7713 11.0248 13.6802 10.7988 13.6802C10.5728 13.6802 10.3511 13.7713 10.1913 13.932C10.0305 14.0918 9.93945 14.3135 9.93945 14.5396C9.93945 14.7656 10.0305 14.9873 10.1913 15.1471C10.3511 15.307 10.5728 15.3989 10.7988 15.3989Z" fill="#9069AC"/>
<path d="M20.5386 11.2365C20.728 11.2873 20.9202 11.3124 21.1112 11.3124C21.4922 11.3124 21.8681 11.2125 22.2069 11.0169C22.7155 10.7232 23.0793 10.2491 23.2313 9.68193C23.3833 9.11474 23.3053 8.5222 23.0116 8.01362C22.718 7.50505 22.2439 7.14119 21.6767 6.98925C20.5057 6.6754 19.2978 7.37296 18.9841 8.54386C18.8321 9.11113 18.9101 9.70358 19.2037 10.2122C19.4973 10.7207 19.9714 11.0845 20.5386 11.2365ZM20.6441 8.98867C20.7015 8.77451 20.8959 8.63289 21.1078 8.63289C21.1488 8.63289 21.1903 8.63822 21.2318 8.6493C21.3556 8.68248 21.4591 8.76188 21.5232 8.87291C21.5873 8.98394 21.6042 9.11319 21.5711 9.23703C21.538 9.36087 21.4586 9.46434 21.3475 9.52844C21.2365 9.59247 21.1072 9.60948 20.9835 9.5764C20.8597 9.54323 20.7562 9.46382 20.6921 9.35279C20.628 9.24176 20.611 9.11251 20.6441 8.98867Z" fill="#9069AC"/>
</svg>
