<svg width="50" height="50" viewBox="0 0 50 50" fill="none" xmlns="http://www.w3.org/2000/svg">
<path d="M27.5696 28.104L32.4739 19.6096C34.4774 16.1394 33.2774 11.6614 29.8072 9.65797C26.337 7.65449 21.8591 8.85434 19.8556 12.3244L14.7559 21.157L26.9531 28.1996C27.1543 28.1657 27.3599 28.1338 27.5696 28.104Z" fill="#E6C8FF"/>
<path d="M26.953 28.1998L14.7557 21.1572L9.65602 29.9904C7.65248 33.4605 8.85246 37.9386 12.3227 39.942C15.5998 41.834 19.7753 40.8688 21.9172 37.8329L21.9173 30.7133C21.9173 29.6421 23.9397 28.706 26.953 28.1998Z" fill="#E6C8FF"/>
<path d="M26.9537 28.1995C23.9404 28.7057 21.918 29.6419 21.918 30.713C21.918 31.7453 23.796 32.652 26.629 33.1696L37.7151 28.2766C36.1081 27.9744 34.1845 27.7988 32.1172 27.7988C30.4833 27.7988 28.9392 27.9087 27.5702 28.1039C27.3604 28.1337 27.1548 28.1656 26.9537 28.1995Z" fill="#E6C8FF"/>
<path d="M37.715 28.2764L26.6289 33.1693C28.2134 33.4589 30.0966 33.6269 32.1171 33.6269C37.75 33.6269 42.3164 32.3222 42.3164 30.7127C42.3164 29.6937 40.4867 28.7971 37.715 28.2764Z" fill="#E6C8FF"/>
<path d="M42.3145 30.7129C42.3145 32.3224 37.7481 33.6271 32.1153 33.6271C30.0948 33.6271 28.2116 33.4591 26.6271 33.1695C23.7941 32.652 21.9161 31.7451 21.916 30.713V37.8327V37.9981C21.916 39.6076 26.4824 40.9122 32.1154 40.9122C37.7482 40.9122 42.3147 39.6076 42.3147 37.9981L42.3145 30.7129Z" fill="#E6C8FF"/>
<path d="M43 30.713C43 29.5721 41.8261 28.6583 39.5112 27.9969C39.008 27.8531 38.4638 27.7258 37.8869 27.6156C37.8543 27.6071 37.821 27.6011 37.7873 27.5975C36.1057 27.284 34.153 27.1153 32.1172 27.1153C30.9893 27.1153 29.8877 27.1678 28.8425 27.2671L33.0664 19.9514C34.1266 18.1149 34.4063 15.9683 33.8539 13.9068C33.3015 11.8454 31.9859 10.1262 30.1495 9.06606C26.3441 6.86913 21.461 8.17739 19.2641 11.9826L14.1657 20.8131C14.1652 20.8138 14.1646 20.8144 14.1642 20.8152C14.1638 20.8159 14.1635 20.8167 14.1631 20.8174L9.06456 29.6483C8.00424 31.4848 7.72458 33.6314 8.27692 35.6929C8.82927 37.7543 10.1449 39.4735 11.9814 40.5337C13.1965 41.2352 14.561 41.5958 15.945 41.5958C16.5281 41.5958 17.1148 41.5318 17.695 41.4022C19.2392 41.0575 20.6274 40.2751 21.7039 39.1597C22.2449 39.7762 23.2517 40.2973 24.7171 40.716C26.7029 41.2833 29.3308 41.5958 32.1169 41.5958C34.903 41.5958 37.5309 41.2833 39.5166 40.716C41.8278 40.0557 42.9997 39.1412 42.9997 37.9981V30.7171C42.9999 30.7158 43 30.7145 43 30.713ZM41.6329 30.7119C41.6329 30.7123 41.6328 30.7127 41.6328 30.7131V30.7149C41.63 30.9085 41.178 31.5311 39.1357 32.1148C37.265 32.6492 34.7724 32.9436 32.1172 32.9436C31.0875 32.9436 30.083 32.8988 29.129 32.8134L37.7913 28.9902C38.2666 29.0851 38.7174 29.1919 39.1356 29.3114C41.1806 29.8956 41.6312 30.5193 41.6329 30.7119ZM35.2336 28.6246L26.5499 32.4573C26.0348 32.3573 25.5484 32.243 25.0987 32.1146C23.05 31.5292 22.6014 30.9043 22.6014 30.7129C22.6014 30.5215 23.0501 29.8965 25.0987 29.3111C26.9695 28.7767 29.462 28.4822 32.1172 28.4822C33.1932 28.4824 34.2415 28.5315 35.2336 28.6246ZM20.448 12.6661C22.268 9.51375 26.3134 8.42991 29.4659 10.2499C30.986 11.1276 32.0755 12.552 32.5334 14.2606C32.9913 15.9693 32.7601 17.7476 31.8825 19.2678L27.1421 27.4782C27.1235 27.4811 27.1054 27.4843 27.0869 27.4873L15.69 20.9069L20.448 12.6661ZM12.665 39.3497C11.1448 38.4721 10.0554 37.0477 9.59749 35.339C9.13962 33.6303 9.37088 31.8521 10.2485 30.3318L15.0065 22.0907L25.0712 27.902C24.9533 27.9328 24.8368 27.9643 24.723 27.9968C22.4105 28.6575 21.2369 29.5702 21.2344 30.7093C21.2344 30.7106 21.2342 30.7117 21.2342 30.713V37.6071C19.2515 40.2326 15.5311 41.0046 12.665 39.3497ZM39.1413 39.4015C37.2742 39.9349 34.7796 40.2287 32.1171 40.2287C29.4545 40.2287 26.9598 39.9349 25.0928 39.4015C23.0488 38.8176 22.6013 38.1904 22.6013 37.9981V32.5795C23.1467 32.8973 23.8547 33.1809 24.7231 33.4291C25.2594 33.5823 25.8434 33.7163 26.4627 33.8313C26.4928 33.8389 26.5233 33.8446 26.5542 33.848C28.2115 34.1488 30.1243 34.3106 32.1171 34.3106C34.8957 34.3106 37.5217 33.9975 39.5111 33.4291C40.3794 33.1811 41.0872 32.8975 41.6327 32.5797V37.9981C41.6328 38.1904 41.1852 38.8176 39.1413 39.4015Z" fill="#9069AC"/>
</svg>
