<svg width="50" height="50" viewBox="0 0 50 50" fill="none" xmlns="http://www.w3.org/2000/svg">
<g clip-path="url(#clip0_32_12523)">
<path d="M30.0275 22.9429L32.385 20.5844H23.4497V29.5206L25.8843 27.0859L37.5737 38.7772L37.7614 38.9649C34.3281 41.8994 29.8721 43.6695 25.0028 43.6695C22.8725 43.6695 20.8211 43.3305 18.9008 42.7045C14.6075 41.3033 10.9643 38.4642 8.53926 34.7554C6.52072 31.6679 5.34766 27.9783 5.34766 24.0144C5.34766 22.694 5.47768 21.4045 5.72613 20.1583C6.747 15.0281 9.76329 10.6173 13.9343 7.77047C17.0864 5.61812 20.8973 4.35938 25.0028 4.35938C25.1443 4.35938 25.2849 4.36032 25.4265 4.36513C30.7735 4.47685 35.5955 6.72562 39.0731 10.2908C42.5296 13.8329 44.658 18.6752 44.658 24.0144C44.658 27.8811 43.5404 31.4904 41.6114 34.5308L36.4941 29.4094L30.0275 22.9429Z" fill="#E6C8FF"/>
<path d="M39.5655 22.4014V25.3918C39.5655 25.9985 39.3238 26.5792 38.8952 27.0087L36.4933 29.4096L30.0266 22.9429L32.3842 20.5844H29.9512V16.2339C29.9512 15.6272 29.7104 15.0455 29.2819 14.616L26.0951 11.4311C25.6665 11.0007 25.4258 10.4199 25.4258 9.81317V4.36523C30.7727 4.47696 35.5948 6.72572 39.0724 10.2909L36.2178 13.1455C35.7874 13.574 35.5466 14.1567 35.5466 14.7634V16.4882C35.5466 17.0949 35.7874 17.6757 36.2178 18.1052L38.8952 20.7835C39.3238 21.2121 39.5655 21.7948 39.5655 22.4014Z" fill="#E6C8FF"/>
<path d="M18.5048 13.2396V19.4686C18.5048 20.0413 18.2777 20.5904 17.8724 20.9957L16.3805 22.4876C15.537 23.3312 14.1698 23.3312 13.3273 22.4876L11.6306 20.7909C11.2254 20.3868 10.6762 20.1585 10.1035 20.1585H5.72266C6.74318 15.0279 9.76007 10.6173 13.9309 7.771L17.8724 11.7125C18.2776 12.1177 18.5048 12.6669 18.5048 13.2396Z" fill="#E6C8FF"/>
<path d="M25.16 42.1178L25.1446 43.669C25.0982 43.6698 25.0509 43.6698 25.0045 43.6698C22.8741 43.6698 20.8227 43.3312 18.9028 42.7047C16.6847 41.9811 14.6402 40.8734 12.8476 39.4605L12.4844 39.1703L16.7973 34.9178C17.1901 34.5328 17.7194 34.3188 18.2694 34.3248L20.2048 34.3437C21.3495 34.3549 22.269 35.2925 22.2579 36.4381L22.2476 37.4126C22.2424 37.9618 22.4564 38.4929 22.8405 38.8848L24.5671 40.6456C24.9512 41.0375 25.1652 41.5669 25.16 42.1178Z" fill="#E6C8FF"/>
<path d="M43.3481 42.5976L40.614 45.3308C40.3722 45.5725 40.1093 45.7805 39.8319 45.9549C40.9192 44.2262 40.7102 41.9158 39.205 40.4115L37.5751 38.7773L25.8858 27.0861L23.4512 29.5208V20.5845H32.3865L30.0289 22.943L43.3482 36.2674C45.096 38.0153 45.096 40.8497 43.3481 42.5976Z" fill="#FAF4FF"/>
<path d="M39.8302 45.9546C38.1015 47.0448 35.7892 46.8368 34.283 45.3305L31.5195 42.5629C33.828 41.7519 35.9381 40.5231 37.7611 38.9648L39.2032 40.4111C40.7085 41.9156 40.9175 44.2259 39.8302 45.9546Z" fill="#FAF4FF"/>
<path d="M42.6969 34.4016C44.5439 31.2608 45.5172 27.6847 45.5172 24.0145C45.5172 14.8524 39.1812 6.57069 30.334 4.19765C28.5992 3.73238 26.7986 3.5 25.0028 3.5C13.821 3.5 4.48828 12.8315 4.48828 24.0145C4.48828 28.0152 5.64038 31.8919 7.81996 35.2258C11.5432 40.9201 18.2919 44.7603 25.1712 44.5271C27.2616 44.5099 29.3221 44.1742 31.2841 43.5433L33.6756 45.9385C34.536 46.7989 35.6751 47.3432 36.8829 47.471C38.4726 47.6393 40.0901 47.0688 41.2203 45.9386L43.9546 43.2053C44.9623 42.1975 45.5172 40.8577 45.5172 39.4325C45.5172 38.0073 44.9622 36.6674 43.9547 35.6599L42.6969 34.4016ZM29.89 14.0081L26.7048 10.8248C26.4346 10.5534 26.2859 10.1941 26.2859 9.81317V5.26338C30.5893 5.54956 34.7076 7.34654 37.8513 10.2972L35.6122 12.5364C35.0248 13.1211 34.6878 13.9328 34.6878 14.7634V16.4882C34.6878 17.329 35.0159 18.1193 35.6107 18.7128L38.2881 21.3912C38.5541 21.6572 38.7067 22.0254 38.7067 22.4014V25.3918C38.7067 25.7721 38.5578 26.1307 38.2882 26.4009L36.494 28.1944L31.2427 22.943L32.993 21.192C33.2387 20.9462 33.3121 20.5766 33.1791 20.2555C33.0461 19.9345 32.7327 19.7251 32.3852 19.7251H32.3849H30.8112V16.234C30.8113 15.394 30.4845 14.6038 29.89 14.0081ZM41.4381 33.1417L37.7093 29.4099L39.5043 27.6157C40.0985 27.0201 40.4257 26.2304 40.4257 25.3917V22.4013C40.4257 21.5728 40.0895 20.7616 39.5037 20.1759L36.8256 17.4967C36.5555 17.2272 36.4067 16.869 36.4067 16.4881V14.7633C36.4067 14.3867 36.5591 14.0189 36.8263 13.753L39.0512 11.5281C42.1187 14.9718 43.7985 19.3722 43.7985 24.0145C43.7984 27.2269 42.9853 30.3602 41.4381 33.1417ZM6.86046 19.0862C7.95944 15.0218 10.4552 11.3923 13.8406 8.8925L17.2682 12.3202C17.5136 12.5655 17.6488 12.892 17.6488 13.2395V19.4683C17.6488 19.8158 17.5136 20.1423 17.2681 20.3877L15.7762 21.8796C15.5306 22.1252 15.2041 22.2606 14.8569 22.2606C14.5099 22.2606 14.1838 22.1255 13.9384 21.8796L12.241 20.1822C11.6699 19.6125 10.912 19.2989 10.107 19.2989H6.80442C6.82273 19.2279 6.84138 19.157 6.86046 19.0862ZM22.2251 39.4862L23.9517 41.2471C24.1753 41.4751 24.3018 41.7893 24.2989 42.1089L24.2921 42.7966C20.5057 42.6484 16.8269 41.3598 13.7855 39.0934L17.3972 35.5311C17.6259 35.3068 17.9266 35.1837 18.2457 35.1837C18.2502 35.1837 18.2547 35.1837 18.2592 35.1838L20.1947 35.2027C20.864 35.2093 21.4033 35.7595 21.3968 36.4286L21.3865 37.4043C21.3792 38.1762 21.6848 38.935 22.2251 39.4862ZM34.8914 44.7236L33.0578 42.8871C34.7202 42.178 36.2861 41.2454 37.704 40.1247L38.596 41.0192C39.7276 42.15 39.985 43.9259 39.2028 45.3281C37.8116 46.1006 36.0278 45.8599 34.8914 44.7236ZM42.7393 41.9898L41.3696 43.3589C41.3167 42.0308 40.7524 40.7441 39.8122 39.8046L35.6321 35.6197C35.2966 35.2839 34.7525 35.2839 34.4168 35.6194L34.4167 35.6195L34.4166 35.6196C34.0809 35.9551 34.0809 36.4993 34.4165 36.835L36.4801 38.8991C36.4762 38.9021 36.4723 38.9051 36.4683 38.9081C33.4603 41.2261 29.8087 42.5781 26.011 42.7823L26.0175 42.1261C26.0175 42.126 26.0175 42.1258 26.0175 42.1256C26.0249 41.3423 25.7271 40.603 25.1789 40.0438L23.4524 38.283C23.2287 38.0548 23.1021 37.7404 23.1051 37.4216L23.1154 36.4463C23.1312 34.8288 21.8284 33.5 20.2113 33.4842L18.2769 33.4653C18.2659 33.4651 18.2552 33.465 18.2444 33.465C17.4734 33.465 16.7463 33.7623 16.192 34.3058L12.448 37.9987C11.2353 36.91 10.1594 35.6633 9.2585 34.2853C7.26222 31.2318 6.20698 27.6802 6.20698 24.0145C6.20698 23.0081 6.28819 22.0034 6.44606 21.0177H10.1069C10.4487 21.0177 10.784 21.1568 11.0263 21.3985L12.7226 23.0947C13.2924 23.6652 14.0504 23.9794 14.8568 23.9794C15.6631 23.9794 16.4212 23.6654 16.9915 23.0951L18.4833 21.6033C19.0535 21.0332 19.3675 20.275 19.3675 19.4684V13.2396C19.3675 12.4329 19.0535 11.6748 18.4834 11.1047L15.2954 7.91666C18.0954 6.22315 21.2727 5.2993 24.5669 5.22437V9.81334C24.5669 10.652 24.8936 11.4419 25.4882 12.0391L28.674 15.2231C28.9438 15.4935 29.0924 15.8524 29.0924 16.234V19.7251H23.4498H23.4494C22.9748 19.7251 22.59 20.1099 22.59 20.5845V29.5206C22.59 30.2689 23.527 30.659 24.0575 30.1283L25.8843 28.3015L29.0694 31.487C29.4004 31.818 29.9539 31.8179 30.285 31.4869C30.6206 31.1513 30.6206 30.6071 30.285 30.2715L26.4922 26.4783C26.1612 26.1472 25.6081 26.1466 25.2765 26.4782L24.3093 27.4454V21.4436H30.3106L29.4194 22.3353C29.0888 22.6659 29.0887 23.2197 29.4194 23.5505L42.7392 36.875C44.1331 38.269 44.1332 40.5957 42.7393 41.9898Z" fill="#9069AC"/>
<path d="M32.1826 32.7099C31.8318 32.781 31.5569 33.0681 31.5021 33.4216C31.4431 33.8016 31.6518 34.1817 32.0028 34.3375C32.7219 34.657 33.4657 33.8779 33.1209 33.173C32.9526 32.8291 32.5584 32.6348 32.1826 32.7099Z" fill="#9069AC"/>
</g>
<defs>
<clipPath id="clip0_32_12523">
<rect width="44" height="44" fill="white" transform="translate(3 3.5)"/>
</clipPath>
</defs>
</svg>
