<svg width="50" height="50" viewBox="0 0 50 50" fill="none" xmlns="http://www.w3.org/2000/svg">
<path d="M15.4492 25C15.4492 23.4267 15.5292 22 15.6892 20.72C15.8759 19.44 16.1959 18.2134 16.6492 17.04C17.1026 15.8667 17.6759 14.8934 18.3692 14.12C19.0892 13.32 20.0092 12.6934 21.1292 12.24C22.2492 11.76 23.5426 11.52 25.0092 11.52C26.4759 11.52 27.7692 11.76 28.8892 12.24C30.0092 12.6934 30.9159 13.32 31.6092 14.12C32.3292 14.8934 32.9026 15.8667 33.3292 17.04C33.7826 18.2134 34.0892 19.44 34.2492 20.72C34.4359 22 34.5292 23.4267 34.5292 25C34.5292 26.5734 34.4359 28 34.2492 29.28C34.0892 30.5334 33.7826 31.7467 33.3292 32.92C32.9026 34.0667 32.3292 35.04 31.6092 35.84C30.9159 36.6134 30.0092 37.24 28.8892 37.72C27.7692 38.1734 26.4759 38.4 25.0092 38.4C23.1692 38.4 21.6092 38.0667 20.3292 37.4C19.0492 36.7067 18.0626 35.72 17.3692 34.44C16.6759 33.16 16.1826 31.76 15.8892 30.24C15.5959 28.72 15.4492 26.9734 15.4492 25ZM25.0092 15.6C21.3559 15.6 19.5292 18.7334 19.5292 25C19.5292 31.2667 21.3559 34.4 25.0092 34.4C28.6359 34.4 30.4492 31.2667 30.4492 25C30.4492 18.7334 28.6359 15.6 25.0092 15.6Z" fill="#9069AC"/>
</svg>
