<svg width="50" height="50" viewBox="0 0 50 50" fill="none" xmlns="http://www.w3.org/2000/svg">
<path d="M7.69531 14.92L16.0953 11.6V38H12.0153V17.16L7.69531 18.72V14.92Z" fill="#9069AC"/>
<path d="M22.3253 25C22.3253 23.4267 22.4053 22 22.5653 20.72C22.752 19.44 23.072 18.2134 23.5253 17.04C23.9786 15.8667 24.552 14.8934 25.2453 14.12C25.9653 13.32 26.8853 12.6934 28.0053 12.24C29.1253 11.76 30.4186 11.52 31.8853 11.52C33.352 11.52 34.6453 11.76 35.7653 12.24C36.8853 12.6934 37.792 13.32 38.4853 14.12C39.2053 14.8934 39.7786 15.8667 40.2053 17.04C40.6586 18.2134 40.9653 19.44 41.1253 20.72C41.312 22 41.4053 23.4267 41.4053 25C41.4053 26.5734 41.312 28 41.1253 29.28C40.9653 30.5334 40.6586 31.7467 40.2053 32.92C39.7786 34.0667 39.2053 35.04 38.4853 35.84C37.792 36.6134 36.8853 37.24 35.7653 37.72C34.6453 38.1734 33.352 38.4 31.8853 38.4C30.0453 38.4 28.4853 38.0667 27.2053 37.4C25.9253 36.7067 24.9386 35.72 24.2453 34.44C23.552 33.16 23.0586 31.76 22.7653 30.24C22.472 28.72 22.3253 26.9734 22.3253 25ZM31.8853 15.6C28.232 15.6 26.4053 18.7334 26.4053 25C26.4053 31.2667 28.232 34.4 31.8853 34.4C35.512 34.4 37.3253 31.2667 37.3253 25C37.3253 18.7334 35.512 15.6 31.8853 15.6Z" fill="#9069AC"/>
</svg>
