<svg width="50" height="50" viewBox="0 0 50 50" fill="none" xmlns="http://www.w3.org/2000/svg">
<path d="M33.0355 38H16.6755V36.04L27.3155 23.24C28.5155 21.8266 29.1155 20.5066 29.1155 19.28C29.1155 18.1866 28.7022 17.2933 27.8755 16.6C27.0489 15.88 26.0222 15.52 24.7955 15.52C23.6489 15.52 22.6622 15.8933 21.8355 16.64C21.0089 17.36 20.5155 18.32 20.3555 19.52L16.4355 18.68C16.7822 16.4933 17.7289 14.7466 19.2755 13.44C20.8489 12.1333 22.7155 11.48 24.8755 11.48C27.2222 11.48 29.1955 12.2133 30.7955 13.68C32.3955 15.12 33.1955 16.9866 33.1955 19.28C33.1955 21.6533 32.2489 23.8933 30.3555 26C26.8355 30.1333 24.5689 32.8 23.5555 34H33.0355V38Z" fill="#9069AC"/>
</svg>
