<svg width="50" height="50" viewBox="0 0 50 50" fill="none" xmlns="http://www.w3.org/2000/svg">
<path d="M24.5188 26.0001H21.5988V22.2001H24.5188C25.4788 22.2268 26.2388 21.9335 26.7988 21.3201C27.3855 20.7068 27.7455 20.0135 27.8788 19.2401C28.1188 17.5868 27.4788 16.4535 25.9588 15.8401C25.5322 15.6535 24.9322 15.5601 24.1588 15.5601C22.6388 15.5335 21.4122 16.2135 20.4788 17.6001L17.3588 15.3201C18.0788 14.0668 19.1322 13.0935 20.5188 12.4001C21.9055 11.6801 23.4122 11.3735 25.0388 11.4801C27.1722 11.5868 28.9322 12.3468 30.3188 13.7601C31.7055 15.1735 32.3988 16.8268 32.3988 18.7201C32.3988 19.7335 32.1055 20.7068 31.5188 21.6401C30.9588 22.5735 30.1988 23.3201 29.2388 23.8801C30.5188 24.3601 31.5322 25.2535 32.2788 26.5601C33.0522 27.8668 33.4388 29.2535 33.4388 30.7201C33.4388 33.0935 32.5855 34.9735 30.8788 36.3601C29.1722 37.7201 26.9855 38.4001 24.3188 38.4001C22.3455 38.4001 20.6122 37.9201 19.1188 36.9601C17.6255 35.9735 16.5188 34.6935 15.7988 33.1201L19.3988 31.2001C19.7455 32.0268 20.4255 32.7735 21.4388 33.4401C22.4522 34.0801 23.4122 34.4001 24.3188 34.4001H24.2788C25.8788 34.4001 27.0922 34.0268 27.9188 33.2801C28.7722 32.5335 29.1988 31.5735 29.1988 30.4001C29.1988 29.2801 28.7722 28.2668 27.9188 27.3601C27.0922 26.4268 25.9588 25.9735 24.5188 26.0001Z" fill="#9069AC"/>
</svg>
