<svg width="50" height="50" viewBox="0 0 50 50" fill="none" xmlns="http://www.w3.org/2000/svg">
<path d="M30.2931 29.3999C30.2931 27.8532 29.7865 26.6666 28.7731 25.8399C27.7865 24.9866 26.5465 24.5599 25.0531 24.5599C22.9465 24.5599 20.8398 25.3466 18.7331 26.9199L16.2931 25.1199L18.5331 11.8799H32.8131V15.7599H21.8531L20.6131 22.3599C21.1731 21.9332 21.9198 21.5866 22.8531 21.3199C23.7865 21.0266 24.6665 20.8799 25.4931 20.8799C28.0265 20.8799 30.1331 21.6399 31.8131 23.1599C33.4931 24.6532 34.3331 26.7332 34.3331 29.3999C34.3331 32.0932 33.4131 34.2666 31.5731 35.9199C29.7331 37.5732 27.3065 38.3999 24.2931 38.3999C22.4798 38.3999 20.7598 37.8799 19.1331 36.8399C17.5331 35.7732 16.3065 34.3599 15.4531 32.5999C15.7465 32.4666 16.3465 32.1332 17.2531 31.5999C18.1598 31.0399 18.7198 30.7066 18.9331 30.5999C19.4665 31.7732 20.1998 32.7066 21.1331 33.3999C22.0931 34.0666 23.1465 34.3999 24.2931 34.3999C26.2131 34.3999 27.6931 33.9332 28.7331 32.9999C29.7731 32.0399 30.2931 30.8399 30.2931 29.3999Z" fill="#9069AC"/>
</svg>
