<svg width="50" height="50" viewBox="0 0 50 50" fill="none" xmlns="http://www.w3.org/2000/svg">
<path d="M29.8295 29.8798C29.8295 28.5732 29.4162 27.4665 28.5895 26.5598C27.7895 25.6265 26.7629 25.1465 25.5095 25.1198C24.2295 25.0665 23.0962 25.4932 22.1095 26.3998C21.1495 27.2798 20.6695 28.3332 20.6695 29.5598C20.6695 30.8932 21.1095 32.0132 21.9895 32.9198C22.8695 33.8265 23.9362 34.2932 25.1895 34.3198C26.4695 34.3732 27.5629 33.9732 28.4695 33.1198C29.3762 32.2398 29.8295 31.1598 29.8295 29.8798ZM25.9095 21.1598C28.1762 21.1598 30.0829 22.0132 31.6295 23.7198C33.1762 25.3998 33.9495 27.5198 33.9495 30.0798C33.8695 32.4798 32.9762 34.4665 31.2695 36.0398C29.5895 37.6132 27.5095 38.3998 25.0295 38.3998C22.6829 38.3998 20.7095 37.5865 19.1095 35.9598C17.5362 34.3065 16.6429 32.1198 16.4295 29.3998C16.2695 28.0398 16.2295 26.6532 16.3095 25.2398C16.3895 23.7998 16.5095 22.4132 16.6695 21.0798C16.8295 19.7465 17.1495 18.4932 17.6295 17.3198C18.1362 16.1198 18.7362 15.0932 19.4295 14.2398C20.1229 13.3598 21.0429 12.6798 22.1895 12.1998C23.3362 11.6932 24.6429 11.4665 26.1095 11.5198C27.8162 11.5998 29.3095 12.0132 30.5895 12.7598C31.8695 13.4798 32.9229 14.7465 33.7495 16.5598L30.0295 18.1598C29.1229 16.2932 27.7629 15.3598 25.9495 15.3598C24.1362 15.3598 22.6962 16.1998 21.6295 17.8798C20.5629 19.5598 20.1362 21.6398 20.3495 24.1198C21.4429 22.1465 23.2962 21.1598 25.9095 21.1598Z" fill="#9069AC"/>
</svg>
