<svg width="50" height="50" viewBox="0 0 50 50" fill="none" xmlns="http://www.w3.org/2000/svg">
<path d="M21.7539 18.36C21.7539 19.24 22.0606 19.9733 22.6739 20.56C23.2872 21.12 24.0872 21.4 25.0739 21.4C26.0072 21.3733 26.7672 21.0666 27.3539 20.48C27.9406 19.8933 28.2339 19.1866 28.2339 18.36C28.2339 17.56 27.9272 16.88 27.3139 16.32C26.7006 15.7333 25.9272 15.44 24.9939 15.44C24.0606 15.44 23.2872 15.7333 22.6739 16.32C22.0606 16.88 21.7539 17.56 21.7539 18.36ZM19.8339 29.68C19.8339 31.0133 20.3272 32.1466 21.3139 33.08C22.3272 33.9866 23.5539 34.44 24.9939 34.44C26.4339 34.44 27.6472 33.9866 28.6339 33.08C29.6206 32.1466 30.1139 31.0133 30.1139 29.68C30.1139 28.4 29.6339 27.2933 28.6739 26.36C27.7139 25.4266 26.5272 24.96 25.1139 24.96H24.6739C23.3139 24.9866 22.1672 25.4666 21.2339 26.4C20.3006 27.3333 19.8339 28.4266 19.8339 29.68ZM17.7539 18.32C17.7539 16.4266 18.4472 14.8133 19.8339 13.48C21.2206 12.1466 22.9406 11.48 24.9939 11.48C27.0472 11.48 28.7806 12.1466 30.1939 13.48C31.6072 14.8133 32.3139 16.4266 32.3139 18.32C32.3139 20.1333 31.6339 21.6533 30.2739 22.88C31.5006 23.6266 32.4606 24.6 33.1539 25.8C33.8739 27 34.2339 28.3066 34.2339 29.72C34.2339 32.1466 33.3406 34.2 31.5539 35.88C29.7672 37.56 27.5806 38.4 24.9939 38.4C22.4072 38.4 20.2206 37.56 18.4339 35.88C16.6472 34.2 15.7539 32.1466 15.7539 29.72C15.7539 28.28 16.1006 26.96 16.7939 25.76C17.4872 24.56 18.4472 23.6 19.6739 22.88C18.3939 21.6533 17.7539 20.1333 17.7539 18.32Z" fill="#9069AC"/>
</svg>
