<svg width="50" height="50" viewBox="0 0 50 50" fill="none" xmlns="http://www.w3.org/2000/svg">
<path d="M20.1493 20.04C20.1493 21.3467 20.5493 22.4667 21.3493 23.4C22.176 24.3067 23.216 24.7734 24.4693 24.8C25.7493 24.8534 26.8693 24.44 27.8293 23.56C28.816 22.6534 29.3093 21.5867 29.3093 20.36C29.3093 19.0267 28.8693 17.9067 27.9893 17C27.1093 16.0934 26.0426 15.6267 24.7893 15.6C23.5093 15.5467 22.416 15.96 21.5093 16.84C20.6026 17.6934 20.1493 18.76 20.1493 20.04ZM24.0693 28.76C21.8026 28.76 19.896 27.92 18.3493 26.24C16.8026 24.5334 16.0293 22.4 16.0293 19.84C16.1093 17.44 16.9893 15.4534 18.6693 13.88C20.376 12.3067 22.4693 11.52 24.9493 11.52C27.296 11.52 29.256 12.3467 30.8293 14C32.4293 15.6267 33.336 17.8 33.5493 20.52C33.7093 21.88 33.7493 23.28 33.6693 24.72C33.5893 26.1334 33.4693 27.5067 33.3093 28.84C33.1493 30.1734 32.816 31.44 32.3093 32.64C31.8293 33.8134 31.2426 34.84 30.5493 35.72C29.856 36.5734 28.936 37.2534 27.7893 37.76C26.6426 38.24 25.336 38.4534 23.8693 38.4C22.1626 38.32 20.6693 37.92 19.3893 37.2C18.1093 36.4534 17.056 35.1734 16.2293 33.36L19.9493 31.76C20.856 33.6267 22.216 34.56 24.0293 34.56C25.8426 34.56 27.2826 33.72 28.3493 32.04C29.416 30.36 29.8426 28.28 29.6293 25.8C28.616 27.7734 26.7626 28.76 24.0693 28.76Z" fill="#9069AC"/>
</svg>
