<svg width="50" height="50" viewBox="0 0 50 50" fill="none" xmlns="http://www.w3.org/2000/svg">
<path d="M26.7976 18.8199V41.2255C26.7976 42.2671 25.9528 43.1119 24.9113 43.1119H9.05234C8.01078 43.1119 7.16602 42.2671 7.16602 41.2255V19.2273L9.45969 16.9336H24.9113C25.9528 16.9336 26.7976 17.7775 26.7976 18.8199Z" fill="#E6C8FF"/>
<path d="M16.978 33.3935C20.4986 33.3935 23.3525 30.5396 23.3525 27.019C23.3525 23.4985 20.4986 20.6445 16.978 20.6445C13.4575 20.6445 10.6035 23.4985 10.6035 27.019C10.6035 30.5396 13.4575 33.3935 16.978 33.3935Z" fill="#FAF4FF"/>
<path d="M42.787 8.75264C42.787 7.71365 41.9448 6.87061 40.9058 6.87061H25.0812C24.0423 6.87061 23.1992 7.71365 23.1992 8.75264V16.9339H24.9094C25.9518 16.9339 26.7957 17.7787 26.7957 18.8202V32.9904H40.6153L42.787 30.8188V8.75264Z" fill="#E6C8FF"/>
<path d="M32.997 23.2937C36.5096 23.2937 39.3572 20.4461 39.3572 16.9335C39.3572 13.4208 36.5096 10.5732 32.997 10.5732C29.4843 10.5732 26.6367 13.4208 26.6367 16.9335C26.6367 20.4461 29.4843 23.2937 32.997 23.2937Z" fill="#FAF4FF"/>
<path d="M3.85938 15.136L12.9568 6.03852L10.7865 3.86816H18.7602V11.8419L16.656 9.7377L3.85938 22.533V15.136Z" fill="#E6C8FF"/>
<path d="M46.1392 34.8644L37.0416 43.9618L39.212 46.1321H31.2383V38.1584L33.3425 40.2626L46.1392 27.4673V34.8644Z" fill="#E6C8FF"/>
<path d="M22.9327 37.249H11.0312C10.5566 37.249 10.1719 37.6338 10.1719 38.1084C10.1719 38.583 10.5566 38.9678 11.0312 38.9678H22.9326C23.4073 38.9678 23.792 38.583 23.792 38.1084C23.792 37.6338 23.4074 37.249 22.9327 37.249Z" fill="#9069AC"/>
<path d="M16.9819 19.7856C12.9931 19.7856 9.74805 23.0307 9.74805 27.0195C9.74805 31.0083 12.9931 34.2534 16.9819 34.2534C20.9707 34.2534 24.2158 31.0083 24.2158 27.0195C24.2158 23.0307 20.9707 19.7856 16.9819 19.7856ZM22.4298 26.1602H20.0228C19.9548 24.6559 19.7072 23.1635 19.265 22.0012C20.9196 22.7569 22.1383 24.3061 22.4298 26.1602ZM16.9819 32.5303C16.6285 32.3781 15.8006 30.8033 15.6609 27.879H18.3029C18.1632 30.8033 17.3353 32.3781 16.9819 32.5303ZM15.6609 26.1602C15.8006 23.2359 16.6285 21.6611 16.9819 21.5089C17.3353 21.6611 18.1632 23.2359 18.303 26.1602H15.6609ZM14.6988 22.0012C14.2566 23.1635 14.009 24.6559 13.941 26.1602H11.5341C11.8255 24.3061 13.0443 22.7569 14.6988 22.0012ZM11.5341 27.879H13.941C14.009 29.3833 14.2567 30.8757 14.6988 32.038C13.0443 31.2822 11.8255 29.733 11.5341 27.879ZM19.2649 32.038C19.7072 30.8757 19.9548 29.3833 20.0227 27.879H22.4297C22.1383 29.733 20.9196 31.2822 19.2649 32.038Z" fill="#9069AC"/>
<path d="M30.0332 27.1382C29.5587 27.1382 29.1738 27.5229 29.1738 27.9976C29.1738 28.4722 29.5587 28.8569 30.0332 28.8569H38.9321C39.4067 28.8569 39.7915 28.4722 39.7915 27.9976C39.7915 27.5229 39.4067 27.1382 38.9321 27.1382H30.0332Z" fill="#9069AC"/>
<path d="M46.7484 34.2568C46.4128 33.9212 45.8688 33.9212 45.533 34.2568L36.4356 43.3542C36.1 43.6898 36.1 44.234 36.4356 44.5696L37.1389 45.2729H32.0993V40.2333L32.7364 40.8704C33.0721 41.2061 33.6162 41.2061 33.9517 40.8704L46.7484 28.075C47.084 27.7395 47.084 27.1953 46.7484 26.8597C46.4131 26.5242 45.8689 26.524 45.5331 26.8597L43.6477 28.7449V23.4111C43.6477 22.9365 43.2629 22.5518 42.7884 22.5518C42.3138 22.5518 41.929 22.9365 41.929 23.4111V30.4631L40.2607 32.1313H27.6565V21.7892C28.9779 23.2409 30.8818 24.1534 32.9948 24.1534C36.9757 24.1534 40.2144 20.9146 40.2144 16.9338C40.2144 12.9529 36.9757 9.71423 32.9948 9.71423C29.2525 9.71423 26.1668 12.5766 25.8103 16.2267C25.5282 16.1286 25.2257 16.0746 24.9108 16.0746H24.06V8.75277C24.06 8.18884 24.5187 7.73011 25.0826 7.73011H40.9072C41.4707 7.73011 41.9291 8.18884 41.9291 8.75277L41.929 25.5C41.929 25.9746 42.3138 26.3594 42.7884 26.3594C43.2629 26.3594 43.6477 25.9746 43.6477 25.5L43.6478 8.75285C43.6478 7.24121 42.4184 6.01145 40.9072 6.01145H25.0826C23.571 6.01145 22.3412 7.24121 22.3412 8.75285V16.0747H11.5339L16.6561 10.953L18.1527 12.4496C18.3985 12.6954 18.7681 12.7689 19.0893 12.6359C19.4104 12.5029 19.6198 12.1896 19.6198 11.842V3.86816C19.6198 3.39353 19.235 3.00879 18.7604 3.00879H10.7866C10.4391 3.00879 10.1257 3.21822 9.99263 3.53928C9.85959 3.86034 9.93316 4.23005 10.1789 4.47583L11.7415 6.03852L3.25169 14.5283C2.9161 14.8639 2.9161 15.408 3.25169 15.7437C3.58728 16.0793 4.13143 16.0793 4.4671 15.7437L13.5647 6.64618C13.9003 6.31059 13.9003 5.76644 13.5647 5.43077L12.8614 4.72745H17.901V9.76709L17.2639 9.12995C16.9283 8.79436 16.3842 8.79436 16.0486 9.12995L3.25186 21.9254C2.91628 22.2609 2.91619 22.8051 3.25186 23.1407C3.4197 23.3085 3.63961 23.3924 3.85953 23.3924C4.07944 23.3924 4.29935 23.3085 4.46719 23.1407L6.30617 21.3019V41.226C6.30617 42.7399 7.53791 43.9717 9.05187 43.9717H24.9108C26.4247 43.9717 27.6565 42.7399 27.6565 41.226V33.85H38.5421L33.3442 39.0474L31.8476 37.5508C31.6019 37.3049 31.2322 37.2315 30.9111 37.3645C30.59 37.4975 30.3806 37.8108 30.3806 38.1584V46.1322C30.3806 46.6069 30.7654 46.9916 31.24 46.9916H39.2137C39.5613 46.9916 39.8746 46.7822 40.0077 46.4611C40.1406 46.14 40.0671 45.7703 39.8214 45.5246L38.2587 43.9619L46.7484 35.4721C47.0841 35.1365 47.0841 34.5924 46.7484 34.2568ZM27.5616 17.7932H29.959C30.0269 19.2919 30.2735 20.7785 30.7136 21.9374C29.0661 21.1832 27.8526 19.64 27.5616 17.7932ZM32.9948 11.4377C33.3473 11.5921 34.1712 13.1632 34.3109 16.0745H31.6789C31.8185 13.1632 32.6424 11.5921 32.9948 11.4377ZM34.3109 17.7932C34.1712 20.7045 33.3473 22.2755 32.9948 22.43C32.6424 22.2755 31.8184 20.7044 31.6789 17.7932H34.3109ZM35.2761 21.9373C35.7163 20.7784 35.9629 19.2918 36.0307 17.7931H38.4281C38.1371 19.6399 36.9236 21.1831 35.2761 21.9373ZM38.4281 16.0745H36.0308C35.9629 14.5759 35.7163 13.0893 35.2762 11.9304C36.9236 12.6846 38.1371 14.2278 38.4281 16.0745ZM30.7137 11.9303C30.2735 13.0892 30.0269 14.5758 29.9591 16.0745H27.5617C27.8526 14.2277 29.0661 12.6845 30.7137 11.9303ZM25.9377 41.226C25.9377 41.7922 25.477 42.2529 24.9108 42.2529H9.05187C8.48563 42.2529 8.02492 41.7922 8.02492 41.226V19.5836L9.81517 17.7934H24.9108C25.4697 17.7934 25.9377 18.2613 25.9377 18.8203V32.9906V41.226Z" fill="#9069AC"/>
</svg>
