<svg width="50" height="50" viewBox="0 0 50 50" fill="none" xmlns="http://www.w3.org/2000/svg">
<g clip-path="url(#clip0_32_11843)">
<path d="M25.0003 39.2329C25.0003 39.2329 22.309 38.8002 21.2236 32.2222C20.6516 28.7462 21.1283 26.3922 21.715 24.9402C22.2576 23.5836 22.0083 22.0729 21.055 20.9216C20.7396 20.5329 20.351 20.1956 19.9036 19.9389C18.5323 19.1542 17.6816 18.0616 17.6816 16.8442C17.6816 14.4609 20.9596 12.5322 25.0076 12.5322C29.0483 12.5322 32.3263 14.4609 32.3263 16.8442C32.3263 18.0616 31.4756 19.1542 30.1043 19.9389C29.657 20.1956 29.2756 20.5329 28.953 20.9216C27.9996 22.0729 27.7503 23.5836 28.293 24.9402C28.8723 26.3922 29.3563 28.7462 28.7843 32.2222C27.6916 38.8002 25.0003 39.2329 25.0003 39.2329Z" fill="#E6C8FF"/>
<path d="M25.0007 39.9662C24.9641 39.9662 24.9201 39.9662 24.8834 39.9588C24.5534 39.9075 21.6347 39.2402 20.4981 32.3395C19.8821 28.6215 20.4467 26.1135 21.0261 24.6615C21.4661 23.5542 21.2681 22.3295 20.4834 21.3835C20.2047 21.0462 19.8821 20.7748 19.5374 20.5695C17.8654 19.6162 16.9414 18.2888 16.9414 16.8368C16.9414 14.0062 20.4834 11.7915 25.0007 11.7915C29.5181 11.7915 33.0527 14.0062 33.0527 16.8368C33.0527 18.2888 32.1287 19.6088 30.4567 20.5695C30.1047 20.7675 29.7894 21.0388 29.5107 21.3835C28.7261 22.3295 28.5207 23.5615 28.9681 24.6688C29.5474 26.1208 30.1121 28.6288 29.4961 32.3468C28.3594 39.2475 25.4407 39.9148 25.1107 39.9662C25.0814 39.9662 25.0374 39.9662 25.0007 39.9662ZM25.0007 13.2582C21.4294 13.2582 18.4081 14.9008 18.4081 16.8368C18.4081 17.7388 19.0681 18.6115 20.2634 19.2935C20.7694 19.5795 21.2167 19.9682 21.6127 20.4448C22.7421 21.8162 23.0354 23.5908 22.3901 25.2042C21.8767 26.4802 21.3854 28.7095 21.9427 32.0975C22.7641 37.0695 24.4947 38.2208 25.0007 38.4555C25.5067 38.2208 27.2374 37.0695 28.0587 32.0975C28.6161 28.7168 28.1247 26.4802 27.6114 25.2042C26.9661 23.5908 27.2594 21.8162 28.3887 20.4448C28.7847 19.9682 29.2394 19.5795 29.7381 19.2935C30.9334 18.6115 31.5934 17.7388 31.5934 16.8368C31.5934 14.9008 28.5721 13.2582 25.0007 13.2582Z" fill="#9069AC"/>
<path d="M39.6067 23.5908C38.2647 25.2628 36.3947 25.9962 35.434 25.2262C34.4734 24.4562 34.7814 22.4762 36.1234 20.8042C37.4654 19.1322 39.3354 18.3988 40.296 19.1688C41.2567 19.9388 40.9487 21.9188 39.6067 23.5908Z" fill="#E6C8FF"/>
<path d="M36.373 26.26C35.845 26.26 35.3683 26.1134 34.9723 25.798C33.6743 24.7567 33.931 22.3587 35.5443 20.342C37.165 18.3254 39.4457 17.5554 40.7437 18.5967C42.0417 19.638 41.785 22.036 40.1717 24.0527C39.0497 25.4607 37.5903 26.26 36.373 26.26ZM39.343 19.5867C38.6463 19.5867 37.5757 20.166 36.703 21.2587C35.5737 22.6667 35.3537 24.2067 35.9037 24.654C36.4537 25.094 37.913 24.544 39.0423 23.136C40.1717 21.728 40.399 20.188 39.8417 19.7407C39.7097 19.638 39.541 19.5867 39.343 19.5867Z" fill="#9069AC"/>
<path d="M40.3403 19.895C40.3109 19.895 40.2889 19.895 40.2596 19.895C39.8563 19.8804 39.5409 19.5357 39.5556 19.1324C39.5703 18.729 39.9076 18.4137 40.3183 18.4284C40.4576 18.4284 41.7483 18.3624 41.8583 16.0597V16.001C41.8803 15.297 41.5283 14.6884 40.9269 14.3437C40.2889 13.9844 39.5116 13.999 38.9029 14.395C36.5929 15.869 34.0116 16.4484 32.2589 16.683C31.8556 16.7344 31.4889 16.4557 31.4376 16.0524C31.3863 15.649 31.6723 15.2824 32.0683 15.231C33.6743 15.0257 36.0356 14.4977 38.1109 13.163C39.1816 12.4737 40.5383 12.437 41.6456 13.0677C42.7309 13.6837 43.3616 14.791 43.3249 16.023V16.0964C43.1856 19.125 41.3596 19.895 40.3403 19.895Z" fill="#9069AC"/>
<path d="M10.3929 23.5908C11.7349 25.2628 13.6049 25.9962 14.5656 25.2262C15.5262 24.4562 15.2182 22.4762 13.8762 20.8042C12.5342 19.1322 10.6642 18.3988 9.70357 19.1688C8.7429 19.9388 9.0509 21.9188 10.3929 23.5908Z" fill="#E6C8FF"/>
<path d="M13.6255 26.26C12.4082 26.26 10.9562 25.4607 9.81948 24.0527C8.19882 22.036 7.94948 19.638 9.24015 18.5967C10.5382 17.5554 12.8188 18.3254 14.4395 20.342C16.0602 22.3587 16.3095 24.7567 15.0188 25.798C14.6302 26.106 14.1462 26.26 13.6255 26.26ZM10.6555 19.5867C10.4502 19.5867 10.2815 19.638 10.1568 19.7334C9.60682 20.1734 9.83415 21.7207 10.9562 23.1287C12.0855 24.5367 13.5448 25.0867 14.0948 24.6467C14.6448 24.2067 14.4175 22.6594 13.2955 21.2514C12.4302 20.166 11.3522 19.5867 10.6555 19.5867Z" fill="#9069AC"/>
<path d="M9.65807 19.9024C8.64607 19.9024 6.81274 19.1324 6.67341 16.1404V16.0084C6.63674 14.7984 7.26007 13.691 8.35274 13.075C9.46741 12.4444 10.8241 12.481 11.8947 13.1704C13.9701 14.4977 16.3241 15.0257 17.9374 15.231C18.3407 15.2824 18.6194 15.649 18.5681 16.0524C18.5167 16.4557 18.1501 16.7344 17.7467 16.683C15.9867 16.4557 13.4054 15.8764 11.1027 14.4024C10.4941 14.0064 9.71674 13.9917 9.07874 14.351C8.46274 14.6884 8.11074 15.297 8.13274 15.979V16.0964C8.24274 18.355 9.52607 18.4284 9.68007 18.4284H9.68741C10.0834 18.4284 10.4207 18.7437 10.4281 19.147C10.4354 19.543 10.1347 19.8804 9.73141 19.895C9.70941 19.895 9.68007 19.9024 9.65807 19.9024Z" fill="#9069AC"/>
<path d="M24.999 48.2088C24.5956 48.2088 24.2656 47.8788 24.2656 47.4755V39.2328C24.2656 38.8295 24.5956 38.4995 24.999 38.4995C25.4023 38.4995 25.7323 38.8295 25.7323 39.2328V47.4682C25.7323 47.8788 25.4023 48.2088 24.999 48.2088Z" fill="#9069AC"/>
</g>
<defs>
<clipPath id="clip0_32_11843">
<rect width="50" height="50" fill="white"/>
</clipPath>
</defs>
</svg>
