<svg width="50" height="50" viewBox="0 0 50 50" fill="none" xmlns="http://www.w3.org/2000/svg">
<path fill-rule="evenodd" clip-rule="evenodd" d="M33.5938 10.7344C33.5938 11.6797 34.3673 12.4531 35.3125 12.4531H42.1875L33.5938 3.85938V10.7344Z" fill="#E6C8FF"/>
<path fill-rule="evenodd" clip-rule="evenodd" d="M35.3123 12.4531C34.3671 12.4531 33.5936 11.6797 33.5936 10.7343V3.85938H12.9687C12.0234 3.85938 11.25 4.63281 11.25 5.57812V7.29695V40.9842C11.25 41.9295 12.0236 42.703 12.9687 42.703H38.7497H40.4686C41.4136 42.703 42.1873 41.9291 42.1873 40.9842V12.4531H35.3123Z" fill="#FAF4FF"/>
<path fill-rule="evenodd" clip-rule="evenodd" d="M11.2502 40.9842V7.29688H9.53124C8.58593 7.29688 7.8125 8.07031 7.8125 9.01562V44.4218C7.8125 45.3671 8.58611 46.1406 9.53124 46.1406H37.031C37.9761 46.1406 38.7498 45.3667 38.7498 44.4218V42.7029H12.9688C12.0238 42.7029 11.2502 41.9296 11.2502 40.9842Z" fill="#E6C8FF"/>
<path d="M42.795 11.8454L34.2013 3.25171C34.0401 3.09058 33.8216 3 33.5936 3H12.9688C11.5472 3 10.3908 4.15654 10.3908 5.57811V6.43757H9.53124C8.10967 6.43757 6.95312 7.59411 6.95312 9.01569V44.4219C6.95312 45.8435 8.10967 47 9.53124 47H37.031C38.4526 47 39.6092 45.8435 39.6092 44.4219V43.5624V43.5623H40.4687C41.8903 43.5623 43.0467 42.4058 43.0467 40.9842V12.4531C43.0467 12.2252 42.9562 12.0066 42.795 11.8454ZM34.453 5.93415L40.1126 11.5937H35.3124C34.8385 11.5937 34.453 11.2082 34.453 10.7343V5.93415ZM41.328 40.9842C41.328 41.4581 40.9426 41.8436 40.4687 41.8436H12.9688C12.495 41.8436 12.1095 41.4581 12.1095 40.9842V20.1875C12.1095 19.713 11.7247 19.3281 11.2502 19.3281C10.7756 19.3281 10.3908 19.713 10.3908 20.1875V40.9842C10.3908 42.4058 11.5472 43.5623 12.9688 43.5623H37.8904V43.5624V44.4219C37.8904 44.8957 37.5049 45.2813 37.031 45.2813H9.53124C9.05738 45.2813 8.67187 44.8957 8.67187 44.4219V9.01569C8.67187 8.54183 9.05738 8.15632 9.53124 8.15632H10.3907L10.3908 12.4532C10.3908 12.9277 10.7756 13.3125 11.2502 13.3125C11.7247 13.3125 12.1095 12.9277 12.1095 12.4532V5.57811C12.1095 5.10426 12.495 4.71874 12.9688 4.71874H32.7343V10.7343C32.7343 12.1559 33.8908 13.3125 35.3124 13.3125H41.328V40.9842Z" fill="#9069AC"/>
<path d="M30.1556 11.5938H16.4062C15.9317 11.5938 15.5469 11.9786 15.5469 12.4531C15.5469 12.9277 15.9317 13.3125 16.4062 13.3125H30.1556C30.6302 13.3125 31.015 12.9277 31.015 12.4531C31.015 11.9786 30.6303 11.5938 30.1556 11.5938Z" fill="#9069AC"/>
<path d="M30.1556 19.958H16.4062C15.9317 19.958 15.5469 20.3428 15.5469 20.8174C15.5469 21.2919 15.9317 21.6768 16.4062 21.6768H30.1556C30.6302 21.6768 31.015 21.2919 31.015 20.8174C31.015 20.3428 30.6303 19.958 30.1556 19.958Z" fill="#9069AC"/>
<path d="M16.4062 25.8594H23.2809C23.7555 25.8594 24.1403 25.4745 24.1403 25C24.1403 24.5255 23.7555 24.1406 23.2809 24.1406H16.4062C15.9317 24.1406 15.5469 24.5255 15.5469 25C15.5469 25.4745 15.9316 25.8594 16.4062 25.8594Z" fill="#9069AC"/>
<path d="M16.4062 30.0415H23.2809C23.7555 30.0415 24.1403 29.6567 24.1403 29.1821C24.1403 28.7076 23.7555 28.3228 23.2809 28.3228H16.4062C15.9317 28.3228 15.5469 28.7076 15.5469 29.1821C15.5469 29.6567 15.9316 30.0415 16.4062 30.0415Z" fill="#9069AC"/>
<path d="M28.2659 32.5049H16.4062C15.9317 32.5049 15.5469 32.8897 15.5469 33.3643C15.5469 33.8388 15.9317 34.2236 16.4062 34.2236H28.2659C28.7404 34.2236 29.1253 33.8388 29.1253 33.3643C29.1253 32.8897 28.7404 32.5049 28.2659 32.5049Z" fill="#9069AC"/>
<path d="M27.5166 36.687H16.4062C15.9317 36.687 15.5469 37.0718 15.5469 37.5464C15.5469 38.0209 15.9317 38.4058 16.4062 38.4058H27.5166C27.9911 38.4058 28.376 38.0209 28.376 37.5464C28.376 37.0718 27.9912 36.687 27.5166 36.687Z" fill="#9069AC"/>
<path d="M16.4062 9.13037H23.2809C23.7555 9.13037 24.1403 8.74554 24.1403 8.271C24.1403 7.79645 23.7555 7.41162 23.2809 7.41162H16.4062C15.9317 7.41162 15.5469 7.79645 15.5469 8.271C15.5469 8.74554 15.9316 9.13037 16.4062 9.13037Z" fill="#9069AC"/>
<path d="M11.25 15.4609C10.7755 15.4609 10.3906 15.846 10.3906 16.3207C10.3906 16.7953 10.7755 17.18 11.25 17.18C11.7245 17.18 12.1094 16.7952 12.1094 16.3207V16.32C12.1094 15.8454 11.7245 15.4609 11.25 15.4609Z" fill="#9069AC"/>
</svg>
