<svg width="50" height="50" viewBox="0 0 50 50" fill="none" xmlns="http://www.w3.org/2000/svg">
<path d="M27.0443 6.66162C26.1694 6.66162 25.3651 7.24713 25.1292 8.13135L17.2611 37.4942C16.9783 38.5503 17.6068 39.6393 18.6628 39.9229L33.9839 44.028C35.0307 44.3102 36.1291 43.6818 36.4106 42.6257L44.278 13.2622C44.5608 12.2062 43.9324 11.1171 42.8777 10.8342L27.5558 6.72903C27.3853 6.68343 27.2135 6.66162 27.0443 6.66162Z" fill="#F5F9EC"/>
<path d="M41.3372 24.2373L31.1912 14.0913H23.5319L17.2611 37.494C16.9783 38.55 17.6068 39.6391 18.6628 39.9226L33.9839 44.0278C35.0307 44.31 36.129 43.6815 36.4106 42.6255L41.3372 24.2373Z" fill="#E6C8FF"/>
<path d="M21.709 20.8976L40.8584 26.0285L44.2796 13.2615C44.5625 12.2055 43.934 11.1164 42.8793 10.8336L27.5568 6.72903C27.3863 6.68343 27.2145 6.66162 27.046 6.66162C26.171 6.66162 25.3668 7.24713 25.1309 8.13135L21.709 20.8976Z" fill="#E6C8FF"/>
<path d="M9.32296 41.533C8.95883 41.533 8.66211 41.237 8.66211 40.8722V14.4382C8.66211 14.0734 8.95883 13.7773 9.32296 13.7773H29.1485C30.2415 13.7773 31.131 14.6668 31.131 15.7599V39.5505C31.131 40.6435 30.2415 41.533 29.1485 41.533H9.32296Z" fill="#E6C8FF"/>
<path d="M19.895 17.082C15.5156 17.082 11.9648 20.6328 11.9648 25.0122C11.9648 29.3917 15.5156 32.9424 19.895 32.9424C24.2745 32.9424 27.8252 29.3917 27.8252 25.0122C27.8252 20.6328 24.2752 17.082 19.895 17.082ZM25.764 22.0384H22.9059C22.6323 20.6685 22.2054 19.5615 21.7699 18.7077C23.5158 19.2291 24.9499 20.4398 25.764 22.0384ZM21.8776 25.0122C21.8776 25.6024 21.8333 26.1443 21.7725 26.6644H18.0176C17.9568 26.1443 17.9125 25.6024 17.9125 25.0122C17.9125 24.4221 17.9561 23.8802 18.0162 23.3601H21.7738C21.834 23.8802 21.8776 24.4221 21.8776 25.0122ZM18.237 22.0384C18.6037 20.3823 19.2091 19.1789 19.7027 18.4229C19.7682 18.4209 19.829 18.4037 19.895 18.4037C19.9618 18.4037 20.0232 18.4216 20.0893 18.4236C20.585 19.1842 21.1883 20.3883 21.5538 22.0384H18.237ZM18.0202 18.7077C17.586 19.5602 17.1585 20.6685 16.8849 22.0384H14.026C14.8402 20.4398 16.2742 19.2291 18.0202 18.7077ZM13.5211 23.3601H16.6846C16.6291 23.8835 16.5908 24.428 16.5908 25.0122C16.5908 25.5971 16.6304 26.141 16.6866 26.6644H13.5211C13.383 26.133 13.2865 25.5858 13.2865 25.0122C13.2865 24.4386 13.383 23.8914 13.5211 23.3601ZM14.026 27.9861H16.8882C17.1644 29.3586 17.592 30.4755 18.0182 31.3161C16.2729 30.7947 14.8402 29.584 14.026 27.9861ZM19.7027 31.6016C19.2289 30.8726 18.6123 29.6666 18.2383 27.9861H21.5518C21.1784 29.6653 20.5625 30.8713 20.0873 31.6016C20.0219 31.6035 19.9611 31.6207 19.895 31.6207C19.829 31.6207 19.7682 31.6035 19.7027 31.6016ZM21.7725 31.3161C22.1994 30.4742 22.6263 29.3586 22.9019 27.9861H25.764C24.9499 29.584 23.5178 30.7947 21.7725 31.3161ZM26.2689 26.6644H23.1041C23.1596 26.141 23.1993 25.5971 23.1993 25.0122C23.1993 24.428 23.161 23.8835 23.1061 23.3601H26.2689C26.4071 23.8914 26.5035 24.4386 26.5035 25.0122C26.5035 25.5858 26.4071 26.133 26.2689 26.6644Z" fill="#9069AC"/>
<path d="M26.5041 36.9072H13.2871V38.2289H26.5041V36.9072Z" fill="#9069AC"/>
<path d="M43.0475 10.1957L27.7277 6.09054C27.4984 6.02908 27.2684 6 27.0417 6C25.8747 6 24.8067 6.77914 24.4902 7.96008L23.1083 13.1167H9.3217C8.59212 13.1167 8 13.7082 8 14.4384V40.8724C8 41.6026 8.59212 42.1941 9.3217 42.1941H24.5873L33.8115 44.6657C34.0408 44.7271 34.2708 44.7562 34.4974 44.7562C35.6645 44.7562 36.7324 43.9771 37.049 42.7961L44.9171 13.4326C45.2951 12.023 44.4578 10.5737 43.0475 10.1957ZM9.3217 14.4384H29.1472C29.8761 14.4384 30.4689 15.0312 30.4689 15.7601V39.5507C30.4689 40.2796 29.8761 40.8724 29.1472 40.8724H9.3217V14.4384ZM43.6403 13.0909L35.7722 42.4545C35.6176 43.032 35.0929 43.4352 34.4968 43.4352C34.3818 43.4352 34.2661 43.42 34.1531 43.3896L29.5444 42.1544C30.8145 41.9608 31.7906 40.8744 31.7906 39.5507V29.0729L32.4673 29.2546L33.1519 26.7011L31.8752 26.3588L31.7906 26.6747V16.1711C32.2023 16.2815 32.6781 16.409 33.1394 16.5326L34.7023 21.643L35.7967 21.9364L35.6929 17.2173C36.4113 17.4102 37.1455 17.6065 37.6259 17.7354L38.4757 19.2335L39.2053 19.4291L39.0798 17.3428L40.2316 15.5988L39.502 15.4032L38.0171 16.2762C37.536 16.1473 36.8025 15.9511 36.0835 15.7581L38.5326 11.723L37.4382 11.4295L33.5293 15.0735C32.7607 14.8673 31.9221 14.6426 31.4674 14.521C31.0233 13.6896 30.1563 13.1167 29.1472 13.1167H24.477L25.7669 8.30174C25.9216 7.72482 26.4463 7.3217 27.0424 7.32104C27.1574 7.32104 27.273 7.33624 27.386 7.36664L42.7058 11.4718C43.0468 11.563 43.3317 11.7818 43.5081 12.0877C43.6846 12.3944 43.7315 12.7499 43.6403 13.0909Z" fill="#9069AC"/>
</svg>
