<svg width="50" height="50" viewBox="0 0 50 50" fill="none" xmlns="http://www.w3.org/2000/svg">
<path d="M25.0014 34.1182C24.478 34.8194 24.4779 34.8194 24.4778 34.8193L24.4774 34.819L24.4762 34.8181L24.4719 34.8149L24.4561 34.8031L24.3965 34.7581C24.3446 34.7189 24.2692 34.6616 24.1736 34.5882C23.9824 34.4414 23.7101 34.23 23.3835 33.9701C22.7313 33.451 21.8582 32.7346 20.9809 31.9498C20.1079 31.1688 19.2107 30.3023 18.5221 29.4842C18.1782 29.0756 17.8698 28.6598 17.6415 28.2573C17.5742 28.1386 17.5092 28.0132 17.4512 27.8827C12.4525 28.6902 8.63477 33.0254 8.63477 38.2535C8.63477 39.5687 8.87543 40.4857 9.25028 41.1381C9.61821 41.7784 10.1532 42.23 10.8701 42.5555C12.3786 43.2405 14.5657 43.3245 17.3231 43.3245C17.614 43.3245 17.9086 43.3237 18.208 43.3228L18.2187 43.3228C18.5214 43.3219 18.8288 43.3211 19.1398 43.3211H30.8591C31.1696 43.3211 31.4769 43.3219 31.7794 43.3228L31.7899 43.3228C32.0892 43.3237 32.3839 43.3245 32.675 43.3245C35.4328 43.3245 37.6206 43.2406 39.1297 42.5555C39.8468 42.2299 40.382 41.7783 40.7501 41.138C41.1251 40.4856 41.3658 39.5686 41.3658 38.2535C41.3658 33.0254 37.5489 28.6902 32.5495 27.8823C32.4915 28.0128 32.4267 28.1381 32.3594 28.2567C32.1312 28.6593 31.8229 29.0751 31.4791 29.4837C30.7907 30.3019 29.8938 31.1684 29.021 31.9495C28.144 32.7343 27.2711 33.4508 26.6191 33.9699C26.2926 34.2299 26.0203 34.4413 25.8292 34.588C25.7336 34.6615 25.6582 34.7188 25.6063 34.758L25.5467 34.803L25.5309 34.8148L25.5266 34.818L25.5254 34.8189L25.5251 34.8192C25.5249 34.8193 25.5249 34.8193 25.0014 34.1182ZM25.0014 34.1182L24.478 34.8194L25.0015 35.2101L25.5249 34.8193L25.0014 34.1182Z" fill="#E6C8FF" stroke="#9069AC" stroke-width="1.75"/>
<path d="M33.6188 15.288C33.6188 17.7092 32.6236 20.8258 30.9822 23.3352C29.321 25.8748 27.1782 27.5347 25.0043 27.5347C22.8308 27.5347 20.6882 25.8749 19.0271 23.3352C17.3858 20.8258 16.3906 17.7092 16.3906 15.288C16.3906 10.5314 20.2472 6.6748 25.0043 6.6748C29.7623 6.6748 33.6188 10.5315 33.6188 15.288Z" fill="#E6C8FF" stroke="#9069AC" stroke-width="1.75"/>
</svg>
