<svg width="50" height="50" viewBox="0 0 50 50" fill="none" xmlns="http://www.w3.org/2000/svg">
<g clip-path="url(#clip0_32_12221)">
<path d="M42.5399 33.6317V38.8948C42.5419 39.3834 42.4418 39.867 42.246 40.3147C42.0503 40.7624 41.7632 41.1643 41.4032 41.4946C41.0431 41.8249 40.6181 42.0764 40.1552 42.2329C39.6924 42.3894 39.2019 42.4476 38.7153 42.4036C33.3168 41.817 28.1311 39.9723 23.575 37.0176C19.3361 34.3241 15.7422 30.7302 13.0486 26.4913C10.0837 21.9145 8.23854 16.7036 7.66268 11.2808C7.61884 10.7956 7.67649 10.3067 7.83198 9.84504C7.98746 9.3834 8.23736 8.95919 8.56578 8.59942C8.89419 8.23965 9.29391 7.95221 9.7395 7.75539C10.1851 7.55857 10.6668 7.45668 11.1539 7.45622H16.4171C17.2685 7.44785 18.0939 7.74935 18.7395 8.30453C19.385 8.85971 19.8067 9.63069 19.9258 10.4738C20.148 12.1581 20.56 13.8119 21.1539 15.4036C21.3899 16.0315 21.441 16.714 21.3011 17.37C21.1612 18.0261 20.8361 18.6283 20.3644 19.1053L18.1364 21.3334C20.6338 25.7256 24.2705 29.3623 28.6627 31.8597L30.8907 29.6317C31.3677 29.16 31.97 28.8349 32.626 28.695C33.2821 28.5551 33.9646 28.6061 34.5925 28.8422C36.1842 29.4361 37.838 29.8481 39.5223 30.0703C40.3745 30.1905 41.1529 30.6197 41.7092 31.2764C42.2656 31.933 42.5612 32.7713 42.5399 33.6317Z" fill="#E6C8FF" stroke="#9069AC" stroke-width="1.75" stroke-linecap="round" stroke-linejoin="round"/>
</g>
<defs>
<clipPath id="clip0_32_12221">
<rect width="50" height="50" fill="white"/>
</clipPath>
</defs>
</svg>
