<svg width="50" height="50" viewBox="0 0 50 50" fill="none" xmlns="http://www.w3.org/2000/svg">
    <path
        d="m 24.47634,31.783288 h -4.444655 l -0.04884,-1.718138 c -0.195372,-4.319742 1.709482,-6.136033 4.884278,-7.314144 l 1.611792,-0.638085 c 2.100198,-0.736332 3.663195,-2.601698 3.663195,-4.957921 0,-3.23983 -2.051404,-5.105179 -4.933149,-5.105179 -2.735155,0 -5.421488,2.061701 -5.56802,5.792434 h -4.542337 c 0,-6.381499 4.78655,-10.3085465 10.159246,-10.3085465 5.372667,0 9.62195,3.6816105 9.62195,9.5722155 0,4.761521 -3.174788,8.24678 -6.93557,9.473968 -2.00261,0.638178 -3.419038,1.227187 -3.419038,3.485258 z m -2.246749,10.603003 c -1.856012,0 -3.418972,-1.37451 -3.418972,-3.239783 0,-1.865367 1.56296,-3.239877 3.418972,-3.239877 1.856004,0 3.370095,1.37451 3.370095,3.239877 0,1.865273 -1.514091,3.239783 -3.370095,3.239783 z"
        fill="#9069AC" />
</svg>