<svg width="50" height="50" viewBox="0 0 50 50" fill="none" xmlns="http://www.w3.org/2000/svg">
<path d="M37.2196 19.9277L36.9826 20.3808L37.4824 20.4782C41.7644 21.3129 45 25.1075 45 29.6546C45 34.8124 40.8368 39 35.7075 39C30.5781 39 26.4142 34.8124 26.4142 29.6546C26.4142 26.1325 27.126 23.6546 28.1664 21.7218C29.2114 19.7822 30.5993 18.3696 32.0055 16.9806C34.1287 14.8849 36.3996 13.3907 38.1419 12.4206C39.0127 11.9362 39.7487 11.5829 40.2667 11.3522C40.5256 11.2364 40.7293 11.1511 40.8679 11.0948L41.0246 11.0331L41.0277 11.0316L41.0943 11.027C41.3487 11.0072 41.6031 10.9874 41.8326 11.0102C42.1074 11.0376 42.2127 11.113 42.2528 11.1839V11.1854C42.3134 11.2912 42.3308 11.5296 42.2468 11.8723C42.168 12.1936 42.0234 12.5059 41.8962 12.6856L41.8939 12.6886L41.8879 12.697L41.8659 12.7282L41.7818 12.8485L41.4684 13.2971C41.1126 13.8101 40.7597 14.3252 40.4098 14.8422C39.5685 16.0865 38.5236 17.672 37.7186 19.0237V19.0253C37.5468 19.3146 37.3749 19.6314 37.2196 19.9277ZM14.8054 19.9277L14.5684 20.3808L15.0682 20.4782C19.3502 21.3129 22.5858 25.1075 22.5858 29.6546C22.5858 34.8124 18.4219 39 13.2925 39C8.16467 39 4 34.8124 4 29.6546C4 26.1325 4.71102 23.6546 5.75143 21.7218C6.79638 19.7822 8.18511 18.3696 9.59125 16.9806C11.7137 14.8849 13.9846 13.3907 15.7269 12.4206C16.5977 11.9362 17.3345 11.5829 17.8517 11.3522C18.1106 11.2364 18.3143 11.1511 18.4529 11.0948L18.6104 11.0331L18.6134 11.0316L18.6793 11.027C18.9337 11.0072 19.1882 10.9874 19.4176 11.0102C19.6932 11.0376 19.7985 11.113 19.8378 11.1839L19.8386 11.1854C19.8984 11.2912 19.9166 11.5296 19.8318 11.8723C19.753 12.1936 19.6084 12.5059 19.4812 12.6856L19.4789 12.6886L19.4736 12.697L19.4509 12.7282L19.3676 12.8485C18.9054 13.5097 18.4481 14.1743 17.9955 14.8422C17.1535 16.0865 16.1086 17.672 15.3037 19.0237V19.0253C15.1318 19.3146 14.9606 19.6314 14.8054 19.9277Z" fill="#E6C8FF"/>
<path d="M41.8962 12.6856C42.0234 12.5059 42.168 12.1936 42.2468 11.8723C42.3308 11.5296 42.3134 11.2912 42.2528 11.1854V11.1839C42.2127 11.113 42.1074 11.0376 41.8326 11.0102C41.6031 10.9874 41.3487 11.0072 41.0943 11.027L41.0277 11.0316L41.0246 11.0331L40.8679 11.0948C40.7293 11.1511 40.5256 11.2364 40.2667 11.3522C39.7487 11.5829 39.0127 11.9362 38.1419 12.4206C36.3996 13.3907 34.1287 14.8849 32.0055 16.9806C30.5993 18.3696 29.2114 19.7822 28.1664 21.7218C27.126 23.6546 26.4142 26.1325 26.4142 29.6546C26.4142 34.8124 30.5781 39 35.7075 39C40.8368 39 45 34.8124 45 29.6546C45 25.1075 41.7644 21.3129 37.4824 20.4782L36.9826 20.3808L37.2196 19.9277C37.3749 19.6314 37.5468 19.3146 37.7186 19.0253V19.0237C38.5236 17.672 39.5685 16.0865 40.4098 14.8422C40.7597 14.3252 41.1126 13.8101 41.4684 13.2971L41.7818 12.8485L41.8659 12.7282L41.8879 12.697L41.8939 12.6886L41.8962 12.6856ZM41.8962 12.6856L42.2044 12.9064M19.4812 12.6856C19.6084 12.5059 19.753 12.1936 19.8318 11.8723C19.9166 11.5296 19.8984 11.2912 19.8386 11.1854L19.8378 11.1839C19.7985 11.113 19.6932 11.0376 19.4176 11.0102C19.1882 10.9874 18.9337 11.0072 18.6793 11.027L18.6134 11.0316L18.6104 11.0331L18.4529 11.0948C18.3143 11.1511 18.1106 11.2364 17.8517 11.3522C17.3345 11.5829 16.5977 11.9362 15.7269 12.4206C13.9846 13.3907 11.7137 14.8849 9.59125 16.9806C8.18511 18.3696 6.79638 19.7822 5.75143 21.7218C4.71102 23.6546 4 26.1325 4 29.6546C4 34.8124 8.16467 39 13.2925 39C18.4219 39 22.5858 34.8124 22.5858 29.6546C22.5858 25.1075 19.3502 21.3129 15.0682 20.4782L14.5684 20.3808L14.8054 19.9277C14.9606 19.6314 15.1318 19.3146 15.3037 19.0253V19.0237C16.1086 17.672 17.1535 16.0865 17.9955 14.8422C18.4481 14.1743 18.9054 13.5097 19.3676 12.8485L19.4509 12.7282L19.4736 12.697L19.4789 12.6886L19.4812 12.6856ZM19.4812 12.6856L19.7894 12.9064" stroke="#9069AC" stroke-width="1.75"/>
</svg>
