<svg width="50" height="50" xmlns="http://www.w3.org/2000/svg" fill="none" viewBox="0 0 50 50">
<path fill="#e6c8ff" d="m11.78 30.071.237-.453-.5-.097C7.237 28.686 4 24.89 4 20.344 4 15.186 8.163 11 13.293 11c5.129 0 9.293 4.187 9.293 9.345 0 3.522-.712 6-1.752 7.933-1.045 1.94-2.433 3.352-3.84 4.741-2.123 2.096-4.394 3.59-6.136 4.56-.87.485-1.607.838-2.125 1.069-.259.115-.462.2-.6.257l-.158.062-.003.001-.066.005c-.255.02-.51.04-.739.017-.274-.028-.38-.103-.42-.174v-.002c-.06-.105-.078-.344.006-.686.079-.322.224-.634.35-.814l.003-.003.006-.008.022-.031.084-.12.314-.45c.355-.512.708-1.027 1.058-1.544.842-1.245 1.886-2.83 2.691-4.182v-.001c.172-.29.344-.607.5-.903zm22.415 0 .237-.453-.5-.097c-4.282-.835-7.518-4.63-7.518-9.177 0-5.158 4.164-9.345 9.293-9.345 5.128 0 9.293 4.187 9.293 9.345 0 3.522-.711 6-1.751 7.933-1.045 1.94-2.434 3.352-3.84 4.741-2.123 2.096-4.394 3.59-6.136 4.56-.87.485-1.608.838-2.125 1.069-.259.115-.462.2-.6.257l-.158.062-.003.001-.066.005c-.255.02-.51.04-.739.017-.275-.028-.38-.103-.42-.174v-.002c-.06-.105-.079-.344.006-.686.079-.322.224-.634.35-.814l.003-.003.005-.008.023-.031.083-.12c.463-.662.92-1.326 1.372-1.994.842-1.245 1.887-2.83 2.692-4.182v-.001c.172-.29.343-.607.499-.903z"/>
<path stroke="#9069ac" stroke-width="1.75" d="M7.104 37.313c-.127.18-.272.492-.35.814-.085.342-.067.58-.007.686v.002c.04.07.146.146.42.174.23.022.484.003.739-.017l.066-.005.003-.001.157-.062c.139-.056.342-.142.601-.257.518-.231 1.254-.584 2.125-1.069 1.742-.97 4.013-2.464 6.136-4.56 1.407-1.389 2.795-2.801 3.84-4.74 1.04-1.934 1.752-4.412 1.752-7.934 0-5.158-4.164-9.345-9.293-9.345-5.13 0-9.293 4.187-9.293 9.345 0 4.547 3.236 8.342 7.518 9.177l.5.097-.238.453c-.155.296-.327.613-.499.903v.001c-.805 1.352-1.85 2.937-2.69 4.182-.35.517-.704 1.032-1.06 1.545l-.313.448-.084.12-.022.032-.006.008zm0 0-.308-.22m22.723.22c-.127.18-.272.492-.35.814-.086.342-.067.58-.008.686l.001.002c.04.07.145.146.42.174.23.022.484.003.739-.017l.066-.005.003-.001.157-.062c.139-.056.342-.142.601-.257.517-.231 1.254-.584 2.125-1.069 1.742-.97 4.013-2.464 6.136-4.56 1.406-1.389 2.795-2.801 3.84-4.74C44.289 26.343 45 23.865 45 20.343 45 15.186 40.835 11 35.707 11c-5.129 0-9.293 4.187-9.293 9.345 0 4.547 3.236 8.342 7.518 9.177l.5.097-.237.453c-.156.296-.327.613-.499.903v.001c-.805 1.352-1.85 2.937-2.692 4.182-.452.668-.91 1.332-1.372 1.993l-.083.12-.023.032-.005.008zm0 0-.308-.22"/>
</svg>