<svg width="50" height="50" viewBox="0 0 50 50" fill="none" xmlns="http://www.w3.org/2000/svg">
<path d="M27.4998 6L32.9998 4L37.9998 4.5L42.9998 8L44.9998 11.5L45.9998 15.5L44.9998 21L39.9998 27V29L41.4998 33L34.4998 41H30.9998L27.4998 39.5L22.9998 44.5L18.4998 46H14.4998L10.998 45C8.99805 44 4.79977 40.2 3.99977 37C3.19977 33.8 4.3331 30.3333 4.99977 29L7.99805 24.5L10.498 22L8.99805 17.5L9.99976 15.5L13.998 11L16.498 9H18.4998L22.9998 11L25.998 6.5L27.4998 6Z" fill="#E6C8FF"/>
<path d="M39.2268 27.1152C39.8481 28.3931 40.4686 29.671 41.0891 30.9489C41.7293 32.2672 41.4637 33.8459 40.4282 34.8823L34.8534 40.4562C33.8179 41.4917 32.2392 41.7573 30.9209 41.117C29.6439 40.4966 28.3669 39.877 27.0898 39.2565" stroke="#9069AC" stroke-width="1.71875" stroke-miterlimit="10" stroke-linejoin="round"/>
<path d="M22.8395 10.8742C21.6561 10.2993 20.4736 9.7244 19.2911 9.15034C17.9728 8.5101 16.3942 8.77565 15.3578 9.8112L9.78385 15.386C8.7483 16.4215 8.48276 18.0002 9.12299 19.3185C9.69705 20.501 10.2711 21.6826 10.8452 22.8651" stroke="#9069AC" stroke-width="1.71875" stroke-miterlimit="10" stroke-linejoin="round"/>
<path d="M5.38987 39.7485C2.7974 35.1082 3.5044 29.0931 7.46535 25.2058C8.57317 24.1186 9.83834 23.2877 11.1865 22.7131C16.3499 20.5173 20.5232 16.2356 22.7415 11.0947C23.3286 9.75491 24.1706 8.49971 25.2675 7.4028C30.0278 2.64247 37.7697 2.68243 42.4799 7.52294C47.3204 12.2332 47.3605 19.975 42.6 24.7354C41.5031 25.8323 40.2479 26.6743 38.9082 27.2613C33.7672 29.4797 29.4855 33.653 27.2898 38.8163C26.7152 40.1645 25.8843 41.4297 24.7971 42.5375C20.9128 46.5189 14.875 47.1799 10.25 44.6114" stroke="#9069AC" stroke-width="1.71875" stroke-miterlimit="10" stroke-linecap="round" stroke-linejoin="round"/>
<path d="M10.4526 39.7741C10.3625 39.6841 10.2732 39.5899 10.1871 39.4956C8.6774 37.9651 7.85721 35.9173 7.88342 33.7407C7.90912 31.5818 8.7617 29.5701 10.2842 28.0759C11.0084 27.3653 11.8431 26.8057 12.7653 26.4126C18.791 23.8502 23.7723 18.8521 26.4307 12.7001C26.8321 11.7869 27.3982 10.9615 28.1132 10.2464C31.2952 7.05576 36.5233 7.11214 39.6378 10.3668C42.8925 13.4815 42.9488 18.7093 39.7582 21.8914C39.0432 22.6065 38.2177 23.1725 37.3046 23.5739C31.1526 26.2324 26.1545 31.2137 23.5908 37.2424C23.199 38.1616 22.6394 38.9963 21.9288 39.7204L21.9203 39.729C20.4318 41.2548 18.412 42.1024 16.2326 42.1159C14.0292 42.1295 11.9764 41.2978 10.4526 39.7741Z" stroke="#9069AC" stroke-width="1.71875" stroke-miterlimit="10" stroke-linejoin="round"/>
<path d="M4 35.5C4.5 38.5 5.794 41.076 7.30375 42.6065C7.38978 42.7008 7.47915 42.795 7.56921 42.885C8.99923 44.3136 12.5008 46 15 46" stroke="#9069AC" stroke-width="1.71875" stroke-miterlimit="10" stroke-linejoin="round"/>
</svg>
