<svg width="50" height="50" viewBox="0 0 50 50" fill="none" xmlns="http://www.w3.org/2000/svg">
<g clip-path="url(#clip0_32_12383)">
<path d="M18.2783 26.8841L14.3477 30.8129L14.3486 30.8138L18.1822 34.6475L22.1129 30.7186L18.2783 26.8841Z" fill="#E6C8FF"/>
<mask id="mask0_32_12383" style="mask-type:luminance" maskUnits="userSpaceOnUse" x="1" y="2" width="46" height="46">
<path d="M1 2H47V48H1V2Z" fill="white"/>
</mask>
<g mask="url(#mask0_32_12383)">
<path d="M30.832 2.89795C39.2675 2.89795 46.1055 9.73596 46.1055 18.1714C46.1055 26.6068 39.2675 33.4448 30.832 33.4448C22.3459 33.4448 15.5586 26.5556 15.5586 18.1714C15.5586 9.73596 22.3966 2.89795 30.832 2.89795Z" fill="#E6C8FF"/>
<path d="M30.832 6.4917C37.272 6.4917 42.5117 11.7314 42.5117 18.1714C42.5117 24.6114 37.272 29.8511 30.832 29.8511C24.392 29.8511 19.1523 24.6114 19.1523 18.1714C19.1523 11.7314 24.392 6.4917 30.832 6.4917Z" fill="#FAF4FF"/>
<path d="M38.0195 16.3745V19.9683H32.6289V25.3589H29.0352V19.9683H23.6445V16.3745H29.0352V10.9839H32.6289V16.3745H38.0195Z" fill="#E6C8FF"/>
<path d="M18.1872 34.647L6.26318 46.5675C5.5615 47.2692 4.42408 47.2692 3.7224 46.5675L2.42775 45.2737C1.72697 44.5729 1.72715 43.4336 2.42865 42.7321L14.3527 30.8125L14.3536 30.8134L18.1872 34.647Z" fill="#E6C8FF"/>
<path d="M22.1181 30.7182L18.1874 34.647L6.26336 46.5675C5.56168 47.2692 4.42426 47.2692 3.72258 46.5675L2.42793 45.2737C2.09101 44.9368 1.90234 44.4795 1.90234 44.0025C1.90234 43.5263 2.09191 43.069 2.42883 42.7321L14.3529 30.8125L18.2836 26.8836" stroke="#9069AC" stroke-width="1.79687" stroke-miterlimit="10" stroke-linecap="round" stroke-linejoin="round"/>
<path d="M30.832 29.8511C24.392 29.8511 19.1523 24.6114 19.1523 18.1714C19.1523 11.7314 24.392 6.4917 30.832 6.4917C37.272 6.4917 42.5117 11.7314 42.5117 18.1714C42.5117 24.6114 37.272 29.8511 30.832 29.8511Z" stroke="#9069AC" stroke-width="1.79687" stroke-miterlimit="10" stroke-linecap="round" stroke-linejoin="round"/>
<path d="M18.1861 34.6479L18.1852 34.6471L14.3516 30.8134" stroke="#9069AC" stroke-width="1.79687" stroke-miterlimit="10" stroke-linecap="round" stroke-linejoin="round"/>
<path d="M38.0195 16.3745H32.6289V10.9839H29.0352V16.3745H23.6445V19.9683H29.0352V25.3589H32.6289V19.9683H38.0195V16.3745Z" stroke="#9069AC" stroke-width="1.79687" stroke-miterlimit="10" stroke-linecap="round" stroke-linejoin="round"/>
<path d="M26.8238 32.9129C25.1191 32.4505 23.5328 31.7001 22.1199 30.7177C20.6249 29.6782 19.3248 28.3781 18.2854 26.8831C16.5666 24.4115 15.5586 21.409 15.5586 18.171C15.5586 9.73555 22.3966 2.89754 30.832 2.89754C39.2675 2.89754 46.1055 9.73555 46.1055 18.171C46.1055 25.2194 41.3313 31.1525 34.8402 32.9131" stroke="#9069AC" stroke-width="1.79687" stroke-miterlimit="10" stroke-linecap="round" stroke-linejoin="round"/>
<path d="M26.7652 3.43914C25.0605 3.90157 23.4742 4.65195 22.0613 5.63439C20.5663 6.67388 19.2662 7.97392 18.2268 9.46892C16.508 11.9405 15.5 14.9431 15.5 18.1811C15.5 26.6165 22.338 33.4545 30.7734 33.4545C39.2089 33.4545 46.0469 26.6165 46.0469 18.1811C46.0469 11.1326 41.2727 5.19954 34.7816 3.43896" stroke="#9069AC" stroke-width="1.79687" stroke-miterlimit="10" stroke-linecap="round" stroke-linejoin="round"/>
</g>
</g>
<defs>
<clipPath id="clip0_32_12383">
<rect width="46" height="46" fill="white" transform="translate(1 2)"/>
</clipPath>
</defs>
</svg>
