<svg width="50" height="50" viewBox="0 0 50 50" fill="none" xmlns="http://www.w3.org/2000/svg">
    <path d="M25.1189 7.19744L28.6581 18.09C28.9091 18.8626 29.629 19.3856 30.4413 19.3856H41.8945C41.9419 19.3856 41.9606 19.3982 41.9699 19.4053C41.9845 19.4166 42.0026 19.4387 42.0134 19.472C42.0242 19.5053 42.0226 19.5338 42.0174 19.5515C42.0141 19.5628 42.0063 19.5839 41.968 19.6118L32.7022 26.3438C32.045 26.8212 31.77 27.6675 32.021 28.4401L35.5603 39.3327C35.5749 39.3777 35.5688 39.3994 35.5648 39.4105C35.5586 39.4279 35.5432 39.4519 35.5149 39.4725C35.4865 39.493 35.4589 39.5003 35.4405 39.5008C35.4287 39.5012 35.4062 39.5003 35.3679 39.4725L26.1021 32.7404C25.4449 32.263 24.5551 32.263 23.8979 32.7404L14.6321 39.4725C14.5938 39.5003 14.5713 39.5012 14.5595 39.5008C14.5411 39.5003 14.5135 39.493 14.4851 39.4725C14.4568 39.4519 14.4414 39.4279 14.4352 39.4105C14.4312 39.3994 14.4251 39.3777 14.4397 39.3327L17.979 28.4401C18.23 27.6675 17.955 26.8212 17.2978 26.3438L8.03202 19.6118C7.99371 19.5839 7.98592 19.5628 7.98263 19.5515C7.97745 19.5338 7.97579 19.5053 7.98662 19.472C7.99744 19.4387 8.01551 19.4166 8.03013 19.4053C8.03941 19.3982 8.05814 19.3856 8.1055 19.3856H19.5587C20.371 19.3856 21.0909 18.8626 21.3419 18.09L24.8811 7.19744C24.8958 7.1524 24.9134 7.13846 24.9231 7.13185C24.9384 7.12144 24.965 7.11107 25 7.11107C25.035 7.11107 25.0616 7.12144 25.0769 7.13185C25.0866 7.13846 25.1042 7.1524 25.1189 7.19744Z" fill="#9069ac" stroke="#9069AC" stroke-width="1.75" />
</svg>
