<svg width="50" height="50" viewBox="0 0 50 50" fill="none" xmlns="http://www.w3.org/2000/svg">
<path d="M24.0489 6.92705C24.3483 6.00574 25.6517 6.00574 25.9511 6.92705L29.4903 17.8197C29.6242 18.2317 30.0081 18.5106 30.4413 18.5106H41.8945C42.8632 18.5106 43.266 19.7503 42.4823 20.3197L33.2165 27.0517C32.866 27.3063 32.7193 27.7577 32.8532 28.1697L36.3924 39.0623C36.6918 39.9836 35.6373 40.7497 34.8536 40.1803L25.5878 33.4483C25.2373 33.1937 24.7627 33.1937 24.4122 33.4483L15.1464 40.1803C14.3627 40.7497 13.3082 39.9836 13.6076 39.0623L17.1468 28.1697C17.2807 27.7577 17.134 27.3063 16.7835 27.0517L7.51771 20.3197C6.734 19.7503 7.13677 18.5106 8.1055 18.5106H19.5587C19.9919 18.5106 20.3758 18.2317 20.5097 17.8197L24.0489 6.92705Z" fill="#ffffff"/>
<path d="M25.0003 6.73633C24.8 6.73633 24.6005 6.85168 24.5257 7.08203L20.9847 17.9746C20.7839 18.5926 20.2087 19.0098 19.5589 19.0098H8.10581C7.62141 19.0098 7.42094 19.6313 7.81284 19.916L17.0785 26.6465C17.6042 27.0284 17.8242 27.7062 17.6234 28.3242L14.0843 39.2168C13.9346 39.6775 14.4601 40.0601 14.8519 39.7754L24.1195 33.043C24.3824 32.852 24.6909 32.7578 25.0003 32.7578" fill="#9069AC" />
<path d="M25.0003 6.73633C24.8 6.73633 24.6005 6.85168 24.5257 7.08203L20.9847 17.9746C20.7839 18.5926 20.2087 19.0098 19.5589 19.0098H8.10581C7.62141 19.0098 7.42094 19.6313 7.81284 19.916L17.0785 26.6465C17.6042 27.0284 17.8242 27.7062 17.6234 28.3242L14.0843 39.2168C13.9346 39.6775 14.4601 40.0601 14.8519 39.7754L24.1195 33.043C24.3824 32.852 24.6909 32.7578 25.0003 32.7578" fill="#E6C8FF" />
<path d="M25.1189 7.19744L28.6581 18.09C28.9091 18.8626 29.629 19.3856 30.4413 19.3856H41.8945C41.9419 19.3856 41.9606 19.3982 41.9699 19.4053C41.9845 19.4166 42.0026 19.4387 42.0134 19.472C42.0242 19.5053 42.0226 19.5338 42.0174 19.5515C42.0141 19.5628 42.0063 19.5839 41.968 19.6118L32.7022 26.3438C32.045 26.8212 31.77 27.6675 32.021 28.4401L35.5603 39.3327C35.5749 39.3777 35.5688 39.3994 35.5648 39.4105C35.5586 39.4279 35.5432 39.4519 35.5149 39.4725C35.4865 39.493 35.4589 39.5003 35.4405 39.5008C35.4287 39.5012 35.4062 39.5003 35.3679 39.4725L26.1021 32.7404C25.4449 32.263 24.5551 32.263 23.8979 32.7404L14.6321 39.4725C14.5938 39.5003 14.5713 39.5012 14.5595 39.5008C14.5411 39.5003 14.5135 39.493 14.4851 39.4725C14.4568 39.4519 14.4414 39.4279 14.4352 39.4105C14.4312 39.3994 14.4251 39.3777 14.4397 39.3327L17.979 28.4401C18.23 27.6675 17.955 26.8212 17.2978 26.3438L8.03202 19.6118C7.99371 19.5839 7.98592 19.5628 7.98263 19.5515C7.97745 19.5338 7.97579 19.5053 7.98662 19.472C7.99744 19.4387 8.01551 19.4166 8.03013 19.4053C8.03941 19.3982 8.05814 19.3856 8.1055 19.3856H19.5587C20.371 19.3856 21.0909 18.8626 21.3419 18.09L24.8811 7.19744C24.8958 7.1524 24.9134 7.13846 24.9231 7.13185C24.9384 7.12144 24.965 7.11107 25 7.11107C25.035 7.11107 25.0616 7.12144 25.0769 7.13185C25.0866 7.13846 25.1042 7.1524 25.1189 7.19744Z" stroke="#9069AC" stroke-width="1.75"/>
</svg>
