<svg width="50" height="50" viewBox="0 0 50 50" fill="none" xmlns="http://www.w3.org/2000/svg">
<path d="M19.5 7L20 4.5L21 4H22.5L24.5 4.5L27.5 5L29.5 6.5C29.8333 6.83333 30.5 7.6 30.5 8V12V18C30.1667 19 29.4 21.2 29 22C28.6 22.8 27.5 23.6667 27 24L21.5 29.5L19 32C18.8333 32.5 18.8 34.2 20 37C21.2 39.8 22.8333 40.8333 23.5 41L26.5 42.5H30C30.6667 42.3333 32.5 41.8 34.5 41C37 40 37.5 38.5 38.5 36.5C39.3 34.9 39.5 31.8333 39.5 30.5L39 20.5L36.5 18.5L35.5 15.5L38 11.5L40.5 10.5L43 11L44.5 12C44.8333 12.5 45.6 13.9 46 15.5C46.4 17.1 45.8333 18.1667 45.5 18.5L43 20.5V27.5L42.5 33V36.5L40 40.5L37.5 43.5L32.5 45.5L28 46L21.5 44L18 40.5L16 36L14.5 31.5L5 21.5L3.5 15.5L4 12L3.5 10.5L4.5 6.5L6 5H8.5L10.5 4.5L12.5 4L14 5L14.5 6.5C14.5 6.83333 14.3 7.7 13.5 8.5C12.7 9.3 11.8333 9.16667 11.5 9L10 8H7.5V10V15.5V18.5L9.5 21.5L13 25H16H20.5L23 23.5L25 21.5L26.5 19C26.5 18.6667 26.6 17.5 27 15.5C27.4 13.5 27.1667 11.6667 27 11L26.5 8H24.5L22.5 9L21 8.5L19.5 7Z" fill="#E6C8FF"/>
<path d="M12.1094 9.01562C13.5332 9.01562 14.6875 7.86136 14.6875 6.4375C14.6875 5.01364 13.5332 3.85938 12.1094 3.85938C10.6855 3.85938 9.53125 5.01364 9.53125 6.4375C9.53125 7.86136 10.6855 9.01562 12.1094 9.01562Z" stroke="#9069AC" stroke-width="1.71875" stroke-miterlimit="22.9256" stroke-linecap="round" stroke-linejoin="round"/>
<path d="M22.0781 9.01562C23.502 9.01562 24.6562 7.86136 24.6562 6.4375C24.6562 5.01364 23.502 3.85938 22.0781 3.85938C20.6543 3.85938 19.5 5.01364 19.5 6.4375C19.5 7.86136 20.6543 9.01562 22.0781 9.01562Z" stroke="#9069AC" stroke-width="1.71875" stroke-miterlimit="22.9256" stroke-linecap="round" stroke-linejoin="round"/>
<path d="M41.6121 20.814C44.4385 20.4661 46.4476 17.8927 46.0996 15.0664C45.7516 12.24 43.1783 10.2309 40.352 10.5789C37.5256 10.9269 35.5165 13.5002 35.8645 16.3266C36.2125 19.1529 38.7858 21.162 41.6121 20.814Z" stroke="#9069AC" stroke-width="1.71875" stroke-miterlimit="22.9256" stroke-linecap="round" stroke-linejoin="round"/>
<path d="M41.3767 17.3674C42.3005 17.1493 42.8725 16.2235 42.6544 15.2997C42.4363 14.3759 41.5105 13.8039 40.5868 14.022C39.663 14.2402 39.0909 15.1659 39.309 16.0897C39.5272 17.0135 40.4529 17.5855 41.3767 17.3674Z" stroke="#9069AC" stroke-width="1.71875" stroke-miterlimit="22.9256" stroke-linecap="round" stroke-linejoin="round"/>
<path d="M10.0482 8.15625H7.74805C7.4428 8.15625 7.29688 8.28215 7.29688 8.58594V16.75C7.29688 18.4785 7.72072 19.7278 9.00617 21.0133L13.05 25.0571H21.1375L25.1812 21.0133C26.4666 19.7278 26.8905 18.4785 26.8905 16.75V8.58594C26.8905 8.28206 26.7445 8.15625 26.4394 8.15625H24.1713M24.1713 4.71875H26.4394C28.6154 4.71875 30.328 6.38551 30.328 8.58594V16.75C30.328 19.3249 29.534 21.5213 27.6116 23.4437L26.6545 24.4008M21.1858 29.8695L18.8125 32.2428V32.4766C18.8125 35.2871 19.9635 37.8434 21.8179 39.6977C23.6722 41.5521 26.2285 42.7031 29.039 42.7031C31.8496 42.7031 34.4059 41.5521 36.2602 39.6977C38.1146 37.8434 39.2656 35.2871 39.2656 32.4766V20.8172M42.7031 20.8172V32.4766C42.7031 36.236 41.1664 39.6523 38.6906 42.1282C36.2149 44.6039 32.7985 46.1406 29.0391 46.1406C25.2796 46.1406 21.8632 44.6039 19.3874 42.1281C16.9117 39.6523 15.3749 36.2359 15.3749 32.4766V32.2428L6.57577 23.4437C4.65335 21.5213 3.85938 19.3249 3.85938 16.75V8.58594C3.85938 6.38542 5.57202 4.71875 7.74805 4.71875H10.0483" stroke="#9069AC" stroke-width="1.71875" stroke-miterlimit="22.9256" stroke-linecap="round" stroke-linejoin="round"/>
<path d="M21 30L26.5 24.5" stroke="#9069AC" stroke-width="1.71875" stroke-miterlimit="2.6131" stroke-linecap="round" stroke-linejoin="round"/>
<path d="M15.375 32.2432H18.8126" stroke="#9069AC" stroke-width="1.71875" stroke-miterlimit="22.9256" stroke-linecap="round" stroke-linejoin="round"/>
</svg>