<svg width="50" height="50" viewBox="0 0 50 50" fill="none" xmlns="http://www.w3.org/2000/svg">
<path d="M23.1155 18.7046C23.1155 18.7046 17.8438 27.2603 10.5725 31.0889C7.71077 29.9879 5.72656 28.5671 5.72656 28.5671C5.72656 28.5671 9.43399 20.3937 16.2219 18.5742C18.566 17.946 20.9713 18.1589 23.1155 18.7046Z" fill="#E6C8FF"/>
<path d="M30.6865 6.91113L37.4931 8.6658L41.4922 12.2533L29.8828 11.7727L30.6865 6.91113Z" fill="#E6C8FF"/>
<path d="M28.7858 19.7927C29.695 21.4277 29.6174 23.4319 28.5647 24.9786C26.845 27.5063 23.8822 30.882 19.8113 31.9723C16.5638 32.8427 13.1987 32.1005 10.5723 31.089C17.8435 27.2605 23.1153 18.7047 23.1153 18.7047C23.2493 16.4347 22.3543 13.1107 21.6921 11.0111C21.5944 10.6994 20.9941 9.288 20.9981 8.42468C21.0092 6.07815 22.9 4.17627 25.2465 4.17627C27.593 4.17627 30.1489 6.07815 30.1489 8.42468C30.1489 9.40565 29.702 10.3089 29.0103 11.0276C28.0847 11.9898 27.5013 13.2366 27.4519 14.5715C27.4013 15.9595 27.6637 17.7756 28.7858 19.7927Z" fill="#FAF4FF"/>
<path d="M44.2749 23.3093C44.2749 25.9076 42.1684 28.0141 39.5701 28.0141C36.9717 28.0141 34.8652 25.9076 34.8652 23.3093C34.8652 20.711 39.5701 11.312 39.5701 11.312C39.5701 11.312 44.2749 20.7109 44.2749 23.3093Z" fill="#E6C8FF"/>
<path d="M41.8703 13.3654C42.1861 13.2573 42.4488 13.018 42.5796 12.6963C42.7665 12.2366 42.6449 11.709 42.2754 11.3777L38.2763 7.79024C38.1354 7.66383 37.9659 7.57325 37.7827 7.52633L30.4314 5.64438C30.4144 5.64 30.3973 5.63682 30.3803 5.6333C29.216 4.02945 27.156 3 25.2454 3C22.2542 3 19.782 5.43384 19.8207 8.42463C19.8338 9.435 20.1061 10.2036 20.2587 10.5616C20.3639 10.8061 20.4831 11.09 20.5692 11.3647C21.2996 13.6807 21.7549 15.7056 21.8999 17.2449C19.7589 16.8819 17.7517 16.946 15.9158 17.4379C8.67431 19.3793 4.81477 27.7269 4.65398 28.0812C4.42204 28.5925 4.58386 29.1965 5.04036 29.5233C5.12629 29.5849 7.18037 31.0444 10.1477 32.1861C10.148 32.1862 10.1481 32.1864 10.1484 32.1864C12.4843 33.086 14.6866 33.5369 16.7548 33.5369C17.1194 33.5369 17.4717 33.5212 17.8246 33.4932V45.8338C17.8246 46.4834 18.3749 47 19.0245 47H21.9651C22.6147 47 23.1413 46.4734 23.1413 45.8238C23.1413 45.1742 22.6147 44.6475 21.9651 44.6475H20.177V39.4722H21.2593C21.9089 39.4722 22.4356 38.9456 22.4356 38.296C22.4356 37.6464 21.9089 37.1198 21.2593 37.1198H20.177V33.0859C24.5289 31.8899 27.6635 28.3819 29.5285 25.6401C30.8343 23.7217 30.8805 21.262 29.8218 19.2209C29.8218 19.2209 29.8218 19.2208 29.8218 19.2206C28.9984 17.7049 28.5748 16.155 28.6308 14.6149C28.6525 14.0316 28.811 13.4543 29.0835 12.9183L37.315 13.258C35.8433 16.3814 33.6863 21.3039 33.6863 23.3094C33.6863 26.5521 36.3253 29.1904 39.5681 29.1904C42.8108 29.1904 45.4495 26.5522 45.4495 23.3094C45.4495 21.3269 43.3404 16.4931 41.8703 13.3654ZM36.9201 9.7338L38.268 10.9429L30.7467 10.6325C31.1238 9.93464 31.3242 9.18105 31.3242 8.42463C31.3242 8.38278 31.3213 8.3417 31.3201 8.3002L36.9201 9.7338ZM16.525 19.6945C17.9317 19.3176 19.4824 19.2417 21.152 19.4769H21.1533C19.4086 21.9469 15.4364 26.9939 10.4929 29.7757C9.11397 29.2061 7.97976 28.5768 7.25969 28.1414C8.40687 26.0642 11.6413 21.0035 16.525 19.6945ZM27.5909 24.3169C25.9388 26.7454 23.1949 29.8478 19.5056 30.836C17.6741 31.327 15.6278 31.298 13.3986 30.7528C19.648 26.4972 23.9167 19.6442 24.1155 19.3215C24.2175 19.156 24.2769 18.968 24.2883 18.7738C24.4297 16.3805 23.5638 13.0389 22.8133 10.6594C22.6947 10.2805 22.5431 9.93266 22.4215 9.63627C22.2402 9.19463 22.1732 8.56978 22.1732 8.42446C22.1732 6.73037 23.5514 5.3522 25.2455 5.3522C26.9333 5.3522 28.9718 6.72255 28.9718 8.42446C28.9718 9.20606 28.5313 9.82782 28.1618 10.2118C27.0039 11.4152 26.334 12.9479 26.2755 14.5284C26.2035 16.5045 26.702 18.4679 27.7571 20.3643C28.4568 21.6235 28.3933 23.1379 27.5909 24.3169ZM39.5688 26.8381C37.6231 26.8381 36.0402 25.2551 36.0402 23.3095C36.0402 21.9289 37.9165 17.5072 39.569 14.0058C41.2213 17.5069 43.0975 21.9281 43.0975 23.3095C43.0974 25.2551 41.5146 26.8381 39.5688 26.8381Z" fill="#9069AC"/>
<path d="M25.8821 9.23354C26.3693 9.23354 26.7643 8.83858 26.7643 8.35139C26.7643 7.86419 26.3693 7.46924 25.8821 7.46924C25.3949 7.46924 25 7.86419 25 8.35139C25 8.83858 25.3949 9.23354 25.8821 9.23354Z" fill="#9069AC"/>
</svg>
