<svg width="50" height="50" viewBox="0 0 50 50" fill="none" xmlns="http://www.w3.org/2000/svg">
<g clip-path="url(#clip0_32_12179)">
<path d="M32.4336 10.2808L34.8388 7.8756L37.2439 10.2808L34.8388 12.6859L32.4336 10.2808Z" fill="#E6C8FF"/>
<path d="M37.3027 15.1519L39.7079 12.7467L42.1131 15.1519L39.7079 17.557L37.3027 15.1519Z" fill="#E6C8FF"/>
<path d="M30.8706 8.10472C28.3526 11.775 24.6739 17.1288 23.0216 19.492C22.3992 20.3822 20.9232 22.4466 20.6371 23.1226C20.2443 24.0506 20.0245 27.8522 19.3931 29.3928C18.8373 30.7492 18.6188 31.3795 17.5825 32.4161L4.6875 45.3128L5.15105 45.7765C5.41969 46.0452 5.79773 46.1756 6.1792 46.1315C7.95622 45.9256 9.57055 45.0671 10.8936 43.8448C13.3572 41.5685 19.8574 35.7155 22.3397 33.4827C22.9798 32.9069 23.5259 32.1715 23.6422 31.3225C23.8674 29.6805 23.7838 26.0674 24.2446 24.7207C24.5458 23.8408 26.1175 21.3773 26.8124 20.3054C28.8273 17.1979 34.894 7.814 34.894 7.814C35.5678 6.8032 35.4436 5.41771 34.5209 4.54536C33.5815 3.65711 32.0942 3.6181 31.1129 4.45994C30.0071 5.4086 29.9265 7.05414 30.8706 8.10472Z" fill="#E6C8FF"/>
<path d="M16.515 27.6579C14.2825 30.1404 8.43025 36.6415 6.15428 39.1054C4.93208 40.4287 4.07374 42.0433 3.86783 43.8206C3.82366 44.2021 3.95411 44.5802 4.22275 44.8488L4.6863 45.3124L17.5814 32.4156C18.6178 31.3791 19.2481 31.1607 20.6042 30.6048C22.1447 29.9733 25.9457 29.7535 26.8736 29.3606C27.5495 29.0746 29.6137 27.5983 30.5036 26.9759C32.8665 25.3233 38.2195 21.6441 41.8894 19.1258C42.9398 20.0701 44.5852 19.9894 45.5338 18.8835C46.3754 17.9022 46.3364 16.4147 45.4483 15.4751C44.5761 14.5523 43.1908 14.4281 42.1801 15.102C42.1801 15.102 32.7976 21.1695 29.6903 23.1847C28.6187 23.8797 26.1555 25.4515 25.2756 25.7527C23.9292 26.2137 20.3165 26.13 18.6749 26.3552C17.826 26.4716 17.0907 27.0176 16.515 27.6579Z" fill="#E6C8FF"/>
<path d="M46.0727 14.8847C45.7452 14.5374 45.3577 14.2684 44.9203 14.0836C44.4984 13.9057 44.0532 13.8154 43.5969 13.8154H43.5926C43.1334 13.8154 42.6852 13.9088 42.2686 14.0846L40.3219 12.1376C40.1607 11.9765 39.9421 11.8859 39.7142 11.8859C39.4863 11.8859 39.2677 11.9765 39.1066 12.1376L38.5115 12.7327L37.2622 11.4833L37.8573 10.8881C38.0184 10.727 38.109 10.5083 38.109 10.2804C38.109 10.0525 38.0184 9.83386 37.8573 9.67264L35.9127 7.72779C36.4604 6.43701 36.1647 4.91763 35.1108 3.92145C33.8604 2.73852 31.8587 2.68807 30.5532 3.80758C29.8472 4.41327 29.4254 5.25563 29.3656 6.17945C29.321 6.86833 29.4802 7.53667 29.8198 8.11709C27.579 11.3824 20.114 22.1533 19.8456 22.7877C19.6415 23.2695 19.513 24.1064 19.3234 25.4252C19.0481 25.4466 18.7902 25.4715 18.5581 25.5028C18.0365 25.575 17.5226 25.7711 17.0302 26.0856C16.6245 26.3443 16.2473 26.6708 15.876 27.0825C14.0378 29.1273 7.85805 35.9947 5.52313 38.5215C4.09742 40.0651 3.23031 41.8623 3.01375 43.7214C3.00516 43.8023 3 43.8848 3 43.9664C3 44.244 3.05328 44.5139 3.15812 44.77C3.26469 45.0278 3.41766 45.2591 3.61445 45.456L4.54232 46.3833C4.93978 46.7821 5.47062 47.0001 6.02732 47.0001C6.11025 47.0001 6.19387 46.9952 6.27757 46.9854C8.13399 46.7708 9.93172 45.9033 11.4766 44.4766C14.0217 42.1248 20.8744 35.9569 22.9141 34.1225C23.8178 33.3098 24.364 32.3821 24.4938 31.4384C24.523 31.224 24.5485 30.973 24.5716 30.6742C24.7207 30.6528 25.862 30.4837 26.2435 30.4115C26.6079 30.3393 26.9104 30.2749 27.2086 30.1519C27.4431 30.0505 27.6734 29.9181 27.9932 29.7231C28.789 29.2314 37.8412 22.95 37.9032 22.9062C38.2907 22.6345 38.3852 22.0974 38.1128 21.7088C37.9521 21.4802 37.6891 21.3435 37.409 21.3435C37.2319 21.3435 37.061 21.3977 36.9157 21.5C36.9157 21.5 26.6139 28.5387 26.5383 28.5687C26.5031 28.585 22.1632 29.307 21.7095 29.4016C21.0899 29.5331 20.6482 29.6586 20.2787 29.809C20.1824 29.8485 18.9994 30.3323 18.5556 30.5781C18.0134 30.8781 17.5106 31.2683 16.9735 31.8073L4.7282 44.0541C4.72219 44.0257 4.71961 43.9355 4.72133 43.92C4.8932 42.4271 5.60734 40.9642 6.78555 39.6887C9.02938 37.2598 14.7837 30.8677 17.1539 28.2326C17.4117 27.9455 17.6884 27.704 17.9548 27.5338C18.2376 27.3542 18.5186 27.2433 18.7919 27.2064C19.3573 27.1273 23.3706 26.9322 24.0005 26.8634C24.5213 26.805 25.0705 26.7284 25.5544 26.5652C25.8663 26.4569 26.1955 26.2918 26.5942 26.0779C27.4407 25.6206 42.6577 15.8163 42.6577 15.8163C42.9335 15.6315 43.2575 15.5344 43.5927 15.5336C44.0636 15.5354 44.501 15.7244 44.8242 16.0656C45.1189 16.3768 45.2813 16.7902 45.2813 17.2294C45.2805 17.635 45.1387 18.0235 44.8817 18.3235C44.5526 18.7051 44.0945 18.9165 43.5927 18.9183C43.1742 18.9174 42.7737 18.7645 42.4643 18.486C42.3062 18.3441 42.1016 18.2659 41.8895 18.2659C41.715 18.2659 41.5474 18.3183 41.4031 18.4163C40.0865 19.3205 38.1141 20.675 36.1935 21.9969C35.8025 22.2651 35.7037 22.8015 35.9727 23.1916C36.1325 23.4245 36.3981 23.5638 36.6817 23.5638C36.8553 23.5638 37.0237 23.5114 37.1681 23.4125C38.8576 22.2505 40.5729 21.0722 41.8783 20.1757C42.3974 20.4773 42.9896 20.6372 43.5893 20.6372H43.5988C44.5931 20.6372 45.5358 20.2014 46.1863 19.4425C46.7113 18.8297 47.0002 18.0441 47.0002 17.2294C47 16.3501 46.6709 15.5173 46.0727 14.8847ZM18.1895 33.0234C18.7025 32.512 19.0402 32.2765 19.39 32.0806C19.7423 31.8846 20.8724 31.4231 20.93 31.3999C21.2102 31.2838 21.6974 31.1531 22.2689 31.0423C22.4473 31.0072 22.6326 30.9736 22.8223 30.9411C22.8123 31.0367 22.8019 31.1246 22.7909 31.2052C22.6979 31.8806 22.1816 32.4694 21.7648 32.8442C19.7231 34.6804 12.8631 40.8549 10.3104 43.2139C9.03505 44.3916 7.5723 45.1053 6.07897 45.2779C6.03308 45.2834 5.9877 45.2809 5.94448 45.2712L5.94302 45.2708L18.1895 33.0234ZM40.7536 15.0005C40.2574 15.3214 39.7757 15.633 39.3083 15.9353L38.5242 15.1512L39.7142 13.9609L40.7536 15.0005ZM34.8441 11.4706L34.0601 10.6865C34.4241 10.1237 34.7423 9.63165 34.9949 9.24106L36.0341 10.2805L34.8441 11.4706ZM21.0916 25.3283L21.0738 25.3292C21.1905 24.5265 21.3164 23.7224 21.4284 23.4579C21.6477 22.9392 22.9421 21.0995 23.4949 20.3139C23.4949 20.3139 29.383 11.792 31.5789 8.59138C31.8034 8.26404 31.7746 7.8255 31.5092 7.53039C31.2031 7.18999 31.0509 6.74974 31.0808 6.29066C31.1104 5.83252 31.3204 5.41401 31.672 5.11245C32.3182 4.55867 33.3097 4.58385 33.9298 5.17055C34.5316 5.73945 34.6363 6.65099 34.1786 7.33806C34.1765 7.34133 34.1743 7.34451 34.1722 7.34777C34.1115 7.44162 28.0823 16.766 26.0913 19.8378C24.5679 22.1863 23.673 23.7356 23.4316 24.4418C23.3595 24.6521 23.2971 24.9065 23.2432 25.2081C22.561 25.2626 21.7901 25.297 21.0916 25.3283ZM29.223 22.4628C28.6455 22.8376 26.1043 24.3889 25.7777 24.5651C25.5162 24.7078 25.257 24.8351 25.0944 24.9021C25.3437 24.2858 26.2415 22.7649 27.5336 20.773C28.6855 18.9957 31.188 15.1273 33.1055 12.1627L34.2365 13.2938C34.4043 13.4615 34.6242 13.5455 34.8441 13.5455C35.0641 13.5455 35.284 13.4615 35.4518 13.2938L36.0467 12.6988L37.2961 13.9483L36.7012 14.5433C36.3656 14.879 36.3656 15.4232 36.7012 15.7589L37.8321 16.89C33.532 19.6715 30.6423 21.5422 29.223 22.4628Z" fill="#9069AC"/>
</g>
<defs>
<clipPath id="clip0_32_12179">
<rect width="44" height="44" fill="white" transform="translate(3 3)"/>
</clipPath>
</defs>
</svg>
