<svg width="50" height="50" viewBox="0 0 50 50" fill="none" xmlns="http://www.w3.org/2000/svg">
<path d="M31.9432 7.89551H12.8594V21.3731H31.9432V7.89551Z" fill="#FAF4FF"/>
<path d="M12.8594 21.3726V25.8074C12.8594 29.6802 15.9989 32.8197 19.8716 32.8197H24.9302C28.8029 32.8197 31.9424 29.6802 31.9424 25.8074V21.3726H12.8594Z" fill="#E6C8FF"/>
<path d="M22.4032 4.01514C20.2604 4.01514 18.5234 5.75211 18.5234 7.89487H26.283C26.2829 5.75219 24.5459 4.01514 22.4032 4.01514Z" fill="#E6C8FF"/>
<path d="M24.7538 32.8193H20.0508V36.0593H24.7538V32.8193Z" fill="#E6C8FF"/>
<path d="M41.1404 44.9692H26.8979C24.978 44.9692 23.4161 43.4073 23.4161 41.4874V37.0747H24.7522C25.3129 37.0747 25.7675 36.6202 25.7675 36.0594V33.7911C29.8019 33.3709 32.9576 29.9509 32.9576 25.8072C32.9576 24.6239 32.9576 8.36104 32.9576 7.895C32.9576 7.33409 32.503 6.87965 31.9422 6.87965H27.1893C26.7205 4.66616 24.7518 3 22.4007 3C20.0497 3 18.081 4.66616 17.6122 6.87973H12.8591C12.2984 6.87973 11.8438 7.33426 11.8438 7.89509C11.8438 8.36241 11.8438 24.6266 11.8438 25.8073C11.8438 29.951 14.9995 33.371 19.0338 33.7912V36.0595C19.0338 36.6204 19.4884 37.0748 20.0491 37.0748H21.3852V41.4874C21.3852 44.5271 23.8582 46.9999 26.8979 46.9999H41.1402C41.7009 46.9999 42.1555 46.5454 42.1555 45.9846C42.1555 45.4237 41.7012 44.9692 41.1404 44.9692ZM25.0792 6.87973H19.7222C20.6578 4.41995 24.1442 4.42123 25.0792 6.87973ZM30.9269 8.91052V20.3571H13.8745V17.6871H19.0364C19.5971 17.6871 20.0517 17.2326 20.0517 16.6718C20.0517 16.1109 19.5971 15.6564 19.0364 15.6564H13.8745V13.6113H21.3356C21.8964 13.6113 22.351 13.1568 22.351 12.596C22.351 12.035 21.8964 11.5806 21.3356 11.5806H13.8745V8.91052C15.0285 8.91052 30.4008 8.91052 30.9269 8.91052ZM13.8745 25.8073V22.3878H30.9269V25.8073C30.9269 28.9419 28.4727 31.8043 24.7523 31.8043C22.9002 31.8043 21.7751 31.8043 19.8715 31.8043C16.5647 31.8043 13.8745 29.1141 13.8745 25.8073ZM21.0646 33.8351H23.7368V35.0442H21.0646V33.8351Z" fill="#9069AC"/>
</svg>
