<svg width="50" height="50" viewBox="0 0 50 50" fill="none" xmlns="http://www.w3.org/2000/svg">
<path d="M35 16L32 12.5L27.5 16L25 15L19 19.5L12.5 25.5L9.5 24.5L6 28L7.5 32L14.5 39L19.5 41.5L23 38L22 35L28.5 28L32.5 21.5L31 20L35 16Z" fill="#E6C8FF"/>
<path fill-rule="evenodd" clip-rule="evenodd" d="M8.80305 33.084C7.59528 31.4879 6.54916 29.7547 5.67578 27.8998L9.32649 24.2491C10.3412 24.7269 11.3196 25.2564 12.259 25.8358L18.8002 19.2946L25.8583 14.6704L32.673 21.485L28.0487 28.543L21.5075 35.0843C22.0869 36.0236 22.6165 37.002 23.0942 38.0168L19.4435 41.6675C17.5884 40.7941 15.8551 39.7479 14.259 38.54" stroke="#9069AC" stroke-width="1.71875" stroke-miterlimit="22.9256" stroke-linecap="round" stroke-linejoin="round"/>
<path d="M21.5062 35.0844C19.6195 33.9208 17.8898 32.5559 16.338 31.0041C14.7864 29.4524 13.4215 27.7227 12.2578 25.8359" stroke="#9069AC" stroke-width="1.71875" stroke-miterlimit="22.9256" stroke-linecap="round" stroke-linejoin="round"/>
<path d="M27.3281 15.8957L31.5163 12.2974L35.0453 15.8263L31.4326 20.0313" stroke="#9069AC" stroke-width="1.71875" stroke-miterlimit="22.9256" stroke-linecap="round" stroke-linejoin="round"/>
<path d="M33.4023 13.9384L39.77 7.57073C41.1755 6.16522 43.4755 6.16522 44.881 7.57073C46.2865 8.97624 46.2864 11.2763 44.881 12.6818L41.5434 16.0195C39.4101 18.1527 39.4101 21.6439 41.5434 23.7773C42.7918 25.0257 44.5051 25.5432 46.1392 25.3304" stroke="#9069AC" stroke-width="1.71875" stroke-miterlimit="22.9256" stroke-linecap="round" stroke-linejoin="round"/>
<path d="M15.1797 29.4286L22.0566 22.5518L24.791 25.2862L17.9142 32.1631" stroke="#9069AC" stroke-width="1.71875" stroke-miterlimit="22.9256" stroke-linecap="round" stroke-linejoin="round"/>
<path d="M3.85938 36.6084C3.85938 38.4317 4.58366 40.1804 5.87298 41.4697C7.1623 42.759 8.91095 43.4834 10.7344 43.4834" stroke="#9069AC" stroke-width="1.71875" stroke-miterlimit="22.9256" stroke-linecap="round" stroke-linejoin="round"/>
<path d="M7.29688 36.6084C7.29688 37.5201 7.65902 38.3944 8.30372 39.0391C8.94834 39.6838 9.82266 40.0459 10.7344 40.0459" stroke="#9069AC" stroke-width="1.71875" stroke-miterlimit="22.9256" stroke-linecap="round" stroke-linejoin="round"/>
</svg>
