<svg width="50" height="50" viewBox="0 0 50 50" fill="none" xmlns="http://www.w3.org/2000/svg">
<g clip-path="url(#clip0_32_12366)">
<path d="M44.6758 47.1016H35.2422C34.4731 47.1016 33.8496 46.478 33.8496 45.709V43.6426C33.8496 42.8735 34.4731 42.25 35.2422 42.25H44.6758C46.0155 42.25 47.1016 43.336 47.1016 44.6758C47.1016 46.0155 46.0155 47.1016 44.6758 47.1016Z" fill="#E6C8FF"/>
<path d="M44.6758 42.25H43.1484V47.1016H44.6758C46.0155 47.1016 47.1016 46.0155 47.1016 44.6758C47.1016 43.336 46.0155 42.25 44.6758 42.25Z" fill="#E6C8FF"/>
<path d="M39.2852 32.9062H10.7148C8.73011 32.9062 7.12109 31.2972 7.12109 29.3125V6.49219C7.12109 4.50745 8.73011 2.89844 10.7148 2.89844H39.2852C41.2699 2.89844 42.8789 4.50745 42.8789 6.49219V29.3125C42.8789 31.2972 41.2699 32.9062 39.2852 32.9062Z" fill="#E6C8FF"/>
<path d="M38.3867 29.3125H11.6133C11.1171 29.3125 10.7148 28.9103 10.7148 28.4141V7.39062C10.7148 6.89442 11.1171 6.49219 11.6133 6.49219H38.3867C38.8829 6.49219 39.2852 6.89442 39.2852 7.39062V28.4141C39.2852 28.9103 38.8829 29.3125 38.3867 29.3125Z" fill="#FAF4FF"/>
<path d="M28.5938 32.9062H21.4062V37.2188H28.5938V32.9062Z" fill="#E6C8FF"/>
<path d="M28.5153 37.2188H21.485C20.1039 37.2188 18.9844 38.3383 18.9844 39.7194V40.8125H31.016V39.7194C31.0159 38.3383 29.8963 37.2188 28.5153 37.2188Z" fill="#E6C8FF"/>
<path d="M28.7553 11.4966C26.4233 12.7716 23.58 12.7716 21.248 11.4966L14.3164 20.3044C20.2177 26.2057 29.7856 26.2057 35.6869 20.3044L28.7553 11.4966Z" fill="#E6C8FF"/>
<path d="M44.6758 41.3514H35.2422C33.9789 41.3514 32.9512 42.3792 32.9512 43.6424V43.7772H5.3766C4.50556 43.7772 3.79688 43.0685 3.79688 42.1975C3.79688 41.3264 4.50556 40.6177 5.3766 40.6177H18.7194C19.2155 40.6177 19.6178 40.2154 19.6178 39.7192C19.6178 39.2231 19.2155 38.8208 18.7194 38.8208H5.3766C3.51468 38.8208 2 40.3356 2 42.1975C2 44.0594 3.51468 45.5741 5.3766 45.5741H32.9512V45.7089C32.9512 46.9721 33.9789 47.9999 35.2422 47.9999H44.6758C46.5088 47.9999 48 46.5086 48 44.6756C48 42.8427 46.5088 41.3514 44.6758 41.3514ZM34.748 45.7089V43.6424C34.748 43.3699 34.9697 43.1483 35.2422 43.1483H42.25V46.203H35.2422C34.9697 46.203 34.748 45.9813 34.748 45.7089ZM44.6758 46.203H44.0469V43.1483H44.6758C45.518 43.1483 46.2031 43.8335 46.2031 44.6756C46.2031 45.5178 45.518 46.203 44.6758 46.203Z" fill="#9069AC"/>
<path d="M15.5308 39.084C15.3628 39.2512 15.2676 39.4829 15.2676 39.7192C15.2676 39.9555 15.3628 40.1873 15.5308 40.3543C15.6979 40.5224 15.9297 40.6177 16.166 40.6177C16.4023 40.6177 16.6332 40.5224 16.8012 40.3543C16.9682 40.1873 17.0645 39.9555 17.0645 39.7192C17.0645 39.4829 16.9683 39.2512 16.8012 39.084C16.6341 38.9169 16.4023 38.8208 16.166 38.8208C15.9288 38.8208 15.6979 38.9168 15.5308 39.084Z" fill="#9069AC"/>
<path d="M10.7148 33.8047H20.5078V36.4641C19.1084 36.8849 18.0858 38.1847 18.0858 39.7194V40.8125C18.0858 41.3086 18.4881 41.7109 18.9842 41.7109H31.0158C31.5119 41.7109 31.9142 41.3086 31.9142 40.8125V39.7194C31.9142 38.1847 30.8916 36.8849 29.4922 36.4641V33.8047H39.2852C41.7621 33.8047 43.7773 31.7895 43.7773 29.3125V21.1966C43.7773 20.7005 43.375 20.2982 42.8789 20.2982C42.3828 20.2982 41.9805 20.7005 41.9805 21.1966V29.3125C41.9805 30.7987 40.7714 32.0078 39.2852 32.0078H10.7148C9.22865 32.0078 8.01953 30.7987 8.01953 29.3125V6.49219C8.01953 5.00599 9.22865 3.79688 10.7148 3.79688H39.2852C40.7714 3.79688 41.9805 5.00599 41.9805 6.49219V21.6016C41.9805 22.0977 42.3828 22.5 42.8789 22.5C43.375 22.5 43.7773 22.0977 43.7773 21.6016V6.49219C43.7773 4.0152 41.7621 2 39.2852 2H10.7148C8.23785 2 6.22266 4.0152 6.22266 6.49219V29.3125C6.22266 31.7895 8.23785 33.8047 10.7148 33.8047ZM30.1173 39.7194V39.9141H19.8827V39.7194C19.8827 38.8359 20.6014 38.1172 21.4849 38.1172H28.5151C29.3986 38.1172 30.1173 38.8359 30.1173 39.7194ZM27.6953 33.8047V36.3203H22.3047V33.8047H27.6953Z" fill="#9069AC"/>
<path d="M11.6133 5.59375C10.6225 5.59375 9.81641 6.39983 9.81641 7.39062V28.4141C9.81641 29.4049 10.6225 30.2109 11.6133 30.2109H38.3867C39.3775 30.2109 40.1836 29.4049 40.1836 28.4141V7.39062C40.1836 6.39983 39.3775 5.59375 38.3867 5.59375H11.6133ZM38.3867 28.4141H11.6133V7.39062H38.3867L38.3879 28.414C38.3879 28.414 38.3875 28.4141 38.3867 28.4141Z" fill="#9069AC"/>
<path d="M29.4613 10.9411C29.1899 10.5964 28.7094 10.4979 28.3242 10.7084C26.2748 11.829 23.7285 11.829 21.6791 10.7084C21.2938 10.4977 20.8133 10.5964 20.542 10.9411L13.6104 19.7489C13.3289 20.1065 13.3594 20.6181 13.6811 20.9399C16.8022 24.0609 20.9019 25.6214 25.0017 25.6214C29.1014 25.6214 33.2012 24.0609 36.3223 20.9399C36.644 20.6181 36.6745 20.1066 36.393 19.7489L29.4613 10.9411ZM15.5294 20.2159L21.5057 12.6221C23.7188 13.584 26.2844 13.584 28.4975 12.6221L34.4738 20.2159C29.0967 25.0282 20.9065 25.0282 15.5294 20.2159Z" fill="#9069AC"/>
<path d="M14.3086 10.9844H17.483C17.9792 10.9844 18.3815 10.5821 18.3815 10.0859C18.3815 9.58982 17.9792 9.1875 17.483 9.1875H14.3086C13.8125 9.1875 13.4102 9.58982 13.4102 10.0859C13.4102 10.5821 13.8125 10.9844 14.3086 10.9844Z" fill="#9069AC"/>
</g>
<defs>
<clipPath id="clip0_32_12366">
<rect width="46" height="46" fill="white" transform="translate(2 2)"/>
</clipPath>
</defs>
</svg>
