<svg width="50" height="50" viewBox="0 0 50 50" fill="none" xmlns="http://www.w3.org/2000/svg">
<path d="M9.5 32L7 35.5L8 37.5L9.5 37L12.5 34.5L15.5 35.5L33 18L32 16L36.5 11L38 11.5H40.5V9.5L35 4H33V6.5V8L28.5 12.5L26.5 11L8.5 29L9.5 32Z" fill="#E6C8FF"/>
<path d="M9.74863 31.5224L12.8375 34.6111L8.31176 37.8618L6.49805 36.048L9.74863 31.5224Z" stroke="#9069AC" stroke-width="1.71875" stroke-miterlimit="10" stroke-linecap="round" stroke-linejoin="round"/>
<path d="M33.671 7.6196L36.7374 10.686L31.7226 15.7007L28.6562 12.6344L33.671 7.6196Z" stroke="#9069AC" stroke-width="1.71875" stroke-miterlimit="10" stroke-linecap="round" stroke-linejoin="round"/>
<path d="M34.9974 18.9746L25.3828 9.35997" stroke="#9069AC" stroke-width="1.71875" stroke-miterlimit="10" stroke-linecap="round" stroke-linejoin="round"/>
<path d="M7.23803 37.1091L2.84766 41.4995" stroke="#9069AC" stroke-width="1.71875" stroke-miterlimit="10" stroke-linecap="round" stroke-linejoin="round"/>
<path d="M35.4156 4.37586L39.9761 8.9364C40.6655 9.62571 40.6655 10.7434 39.9761 11.4326C39.2868 12.1219 38.1692 12.122 37.4799 11.4327L32.9193 6.87218C32.23 6.18278 32.23 5.06516 32.9193 4.37586C33.6086 3.68655 34.7263 3.68655 35.4156 4.37586Z" stroke="#9069AC" stroke-width="1.71875" stroke-miterlimit="10" stroke-linecap="round" stroke-linejoin="round"/>
<path d="M12.8711 25.2025L19.191 31.5225" stroke="#9069AC" stroke-width="1.71875" stroke-miterlimit="10" stroke-linecap="round" stroke-linejoin="round"/>
<path d="M39.1133 33.2143C39.1133 29.3979 36.0195 26.3042 32.2031 26.3042C28.3867 26.3042 25.293 29.3979 25.293 33.2143C25.293 37.0307 28.3867 40.1245 32.2031 40.1245C36.0195 40.1245 39.1133 37.0307 39.1133 33.2143Z" fill="#E6C8FF"/>
<path d="M39.1133 33.2143C39.1133 29.3979 36.0195 26.3042 32.2031 26.3042C28.3867 26.3042 25.293 29.3979 25.293 33.2143C25.293 37.0307 28.3867 40.1245 32.2031 40.1245C36.0195 40.1245 39.1133 37.0307 39.1133 33.2143Z" stroke="#9069AC" stroke-width="1.71875" stroke-miterlimit="10" stroke-linecap="round" stroke-linejoin="round"/>
<path d="M33.9258 33.2143C33.9258 32.2651 33.1562 31.4956 32.207 31.4956C31.2578 31.4956 30.4883 32.2651 30.4883 33.2143C30.4883 34.1636 31.2578 34.9331 32.207 34.9331C33.1562 34.9331 33.9258 34.1636 33.9258 33.2143Z" fill="#FAF4FF" stroke="#9069AC" stroke-width="1.71875" stroke-miterlimit="10" stroke-linecap="round" stroke-linejoin="round"/>
<path d="M30.4883 44.4214C30.4883 45.3706 31.2578 46.1401 32.207 46.1401C33.1562 46.1401 33.9258 45.3706 33.9258 44.4214C33.9258 43.4721 33.1562 42.7026 32.207 42.7026C31.2578 42.7026 30.4883 43.4721 30.4883 44.4214Z" stroke="#9069AC" stroke-width="1.71875" stroke-miterlimit="10" stroke-linecap="round" stroke-linejoin="round"/>
<path d="M32.207 42.7026V40.1245" stroke="#9069AC" stroke-width="1.71875" stroke-miterlimit="10" stroke-linecap="round" stroke-linejoin="round"/>
<path d="M30.4883 22.0073C30.4883 21.058 31.2578 20.2886 32.207 20.2886C33.1562 20.2886 33.9258 21.058 33.9258 22.0073C33.9258 22.9566 33.1562 23.7261 32.207 23.7261C31.2578 23.7261 30.4883 22.9566 30.4883 22.0073Z" stroke="#9069AC" stroke-width="1.71875" stroke-miterlimit="10" stroke-linecap="round" stroke-linejoin="round"/>
<path d="M32.207 23.7261V26.3042" stroke="#9069AC" stroke-width="1.71875" stroke-miterlimit="10" stroke-linecap="round" stroke-linejoin="round"/>
<path d="M20.9961 31.4956C20.0468 31.4956 19.2773 32.2651 19.2773 33.2143C19.2773 34.1636 20.0468 34.9331 20.9961 34.9331C21.9454 34.9331 22.7148 34.1636 22.7148 33.2143C22.7148 32.2651 21.9454 31.4956 20.9961 31.4956Z" stroke="#9069AC" stroke-width="1.71875" stroke-miterlimit="10" stroke-linecap="round" stroke-linejoin="round"/>
<path d="M22.7148 33.2144H25.293" stroke="#9069AC" stroke-width="1.71875" stroke-miterlimit="10" stroke-linecap="round" stroke-linejoin="round"/>
<path d="M43.4102 31.4956C44.3593 31.4956 45.1289 32.2651 45.1289 33.2143C45.1289 34.1636 44.3593 34.9331 43.4102 34.9331C42.4609 34.9331 41.6914 34.1636 41.6914 33.2143C41.6914 32.2651 42.4609 31.4956 43.4102 31.4956Z" stroke="#9069AC" stroke-width="1.71875" stroke-miterlimit="10" stroke-linecap="round" stroke-linejoin="round"/>
<path d="M41.6914 33.2144H39.1133" stroke="#9069AC" stroke-width="1.71875" stroke-miterlimit="10" stroke-linecap="round" stroke-linejoin="round"/>
<path d="M23.062 39.9238C22.3908 40.5951 22.3908 41.6833 23.062 42.3545C23.7333 43.0257 24.8215 43.0257 25.4927 42.3545C26.164 41.6833 26.164 40.5951 25.4927 39.9238C24.8215 39.2525 23.7333 39.2525 23.062 39.9238Z" stroke="#9069AC" stroke-width="1.71875" stroke-miterlimit="10" stroke-linecap="round" stroke-linejoin="round"/>
<path d="M25.4961 39.9238L27.3191 38.1007" stroke="#9069AC" stroke-width="1.71875" stroke-miterlimit="10" stroke-linecap="round" stroke-linejoin="round"/>
<path d="M38.9213 24.0747C39.5926 23.4034 40.6808 23.4034 41.3521 24.0747C42.0233 24.7459 42.0233 25.8342 41.3521 26.5053C40.6808 27.1766 39.5926 27.1766 38.9213 26.5053C38.2502 25.8342 38.2502 24.7459 38.9213 24.0747Z" stroke="#9069AC" stroke-width="1.71875" stroke-miterlimit="10" stroke-linecap="round" stroke-linejoin="round"/>
<path d="M38.9206 26.505L37.0977 28.3281" stroke="#9069AC" stroke-width="1.71875" stroke-miterlimit="10" stroke-linecap="round" stroke-linejoin="round"/>
<path d="M25.4927 24.0747C24.8214 23.4034 23.7332 23.4034 23.062 24.0747C22.3908 24.7459 22.3908 25.8342 23.062 26.5053C23.7332 27.1766 24.8214 27.1766 25.4927 26.5053C26.164 25.8342 26.164 24.7459 25.4927 24.0747Z" stroke="#9069AC" stroke-width="1.71875" stroke-miterlimit="10" stroke-linecap="round" stroke-linejoin="round"/>
<path d="M25.4961 26.505L27.3191 28.3281" stroke="#9069AC" stroke-width="1.71875" stroke-miterlimit="10" stroke-linecap="round" stroke-linejoin="round"/>
<path d="M41.3521 39.9238C42.0233 40.5951 42.0233 41.6833 41.3521 42.3545C40.6808 43.0257 39.5926 43.0257 38.9213 42.3545C38.2502 41.6833 38.2502 40.5951 38.9213 39.9238C39.5926 39.2525 40.6808 39.2525 41.3521 39.9238Z" stroke="#9069AC" stroke-width="1.71875" stroke-miterlimit="10" stroke-linecap="round" stroke-linejoin="round"/>
<path d="M38.9206 39.9233L37.0977 38.1003" stroke="#9069AC" stroke-width="1.71875" stroke-miterlimit="10" stroke-linecap="round" stroke-linejoin="round"/>
<path d="M15.168 22.1667L26.6909 10.6747L33.6761 17.66L25.9998 25.3364" stroke="#9069AC" stroke-width="1.71875" stroke-miterlimit="10" stroke-linecap="round" stroke-linejoin="round"/>
<path d="M9.65234 27.7188L16.4163 20.9548" stroke="#9069AC" stroke-width="1.71875" stroke-miterlimit="10" stroke-linecap="round" stroke-linejoin="round"/>
<path d="M24.3246 27.0074L16.3292 35.0027C15.4696 35.8624 14.0758 35.8624 13.2161 35.0027L9.34394 31.1306C8.48431 30.2708 8.48431 28.8771 9.34394 28.0174L9.64292 27.7183" stroke="#9069AC" stroke-width="1.71875" stroke-miterlimit="10" stroke-linecap="round" stroke-linejoin="round"/>
</svg>
