<svg width="50" height="50" viewBox="0 0 50 50" fill="none" xmlns="http://www.w3.org/2000/svg">
<path d="M44.631 43.0675C45.9955 43.0675 47.1016 41.9614 47.1016 40.5969V19.1509H2.89844V40.597C2.89844 41.9615 4.0045 43.0676 5.36896 43.0676L44.631 43.0675Z" fill="#FAF4FF"/>
<path d="M44.631 6.93213H5.36896C4.0045 6.93213 2.89844 8.0382 2.89844 9.40265V19.1509H47.1016V9.40265C47.1016 8.0382 45.9955 6.93213 44.631 6.93213Z" fill="#E6C8FF"/>
<path d="M21.0392 38.0265H9.09789C8.36755 38.0265 7.77539 37.4344 7.77539 36.704V25.4031C7.77539 24.6727 8.36746 24.0806 9.09789 24.0806H21.0392C21.7695 24.0806 22.3617 24.6726 22.3617 25.4031V36.7041C22.3616 37.4344 21.7695 38.0265 21.0392 38.0265Z" fill="#E6C8FF"/>
<path d="M15.0762 31.9329C13.2823 31.9329 11.8281 30.4787 11.8281 28.6848V27.3287C11.8281 25.5348 13.2823 24.0806 15.0762 24.0806C16.8702 24.0806 18.3244 25.5348 18.3244 27.3287V28.6848C18.3244 30.4786 16.8702 31.9329 15.0762 31.9329Z" fill="#E6C8FF"/>
<path d="M22.075 37.5274C21.8333 37.8312 21.4594 38.0261 21.0411 38.0261H9.09961C8.68121 38.0261 8.30827 37.832 8.06641 37.5282L8.17296 36.8839C8.38059 35.6257 9.25064 34.5774 10.4485 34.1407L12.4544 33.4097C12.825 33.2753 13.0898 32.9461 13.1416 32.5547L13.2943 31.4046C13.8042 31.7387 14.4149 31.9327 15.0704 31.9327C15.7258 31.9327 16.3365 31.7387 16.8472 31.4038L16.9999 32.5547C17.0516 32.9461 17.3156 33.2753 17.6855 33.4097L19.693 34.1407C20.8908 34.5774 21.7609 35.6257 21.9685 36.8839L22.075 37.5274Z" fill="#E6C8FF"/>
<path d="M44.631 6.03369H5.36896C3.51135 6.03369 2 7.54495 2 9.40256V40.5969C2 42.4546 3.51135 43.9659 5.36896 43.9659L29.1562 43.966C29.6524 43.966 30.0546 43.5638 30.0546 43.0676C30.0546 42.5713 29.6524 42.1691 29.1562 42.1691L5.36896 42.169C4.50215 42.169 3.79688 41.4638 3.79688 40.5969V20.0493H46.2031V40.597C46.2031 41.4638 45.4979 42.1691 44.631 42.1691H28.6923C28.1961 42.1691 27.7939 42.5713 27.7939 43.0676C27.7939 43.5638 28.1961 43.966 28.6923 43.966H44.631C46.4886 43.966 48 42.4547 48 40.597V9.40256C48 7.54495 46.4886 6.03369 44.631 6.03369ZM3.79688 18.2524V9.40256C3.79688 8.53575 4.50215 7.83048 5.36896 7.83048H44.631C45.4979 7.83048 46.2031 8.53566 46.2031 9.40256V18.2524L3.79688 18.2524Z" fill="#9069AC"/>
<path d="M21.043 23.1821H9.1018C7.87723 23.1821 6.88086 24.1784 6.88086 25.4031V36.704C6.88086 37.913 7.89358 38.9249 9.1018 38.9249H21.0431C22.2516 38.9249 23.264 37.9134 23.264 36.704V25.403C23.2639 24.1784 22.2677 23.1821 21.043 23.1821ZM21.467 25.403V34.1848C21.0472 33.8023 20.5527 33.4974 20.0025 33.2967L17.9944 32.5656C17.9395 32.5456 17.9005 32.4964 17.8926 32.4368L17.8077 31.7971C18.672 31.0366 19.2188 29.9236 19.2188 28.6846V27.3286C19.2188 26.4568 18.9478 25.6474 18.4862 24.9789H21.0428C21.2768 24.979 21.467 25.1692 21.467 25.403ZM21.0439 37.1279C21.0437 37.1279 21.0435 37.1279 21.0433 37.1279H9.1018C9.10135 37.1279 9.10099 37.1278 9.10063 37.1278C9.08212 37.1277 9.06442 37.1246 9.04645 37.1223L9.06164 37.0304C9.21617 36.0939 9.86637 35.3102 10.7583 34.9851L12.7629 34.2547C13.443 34.0079 13.9269 33.4134 14.0308 32.6995C14.7093 32.8747 15.4366 32.8748 16.1151 32.6992C16.2192 33.4134 16.7021 34.0078 17.3804 34.2543L19.3875 34.9851C20.2796 35.3103 20.9298 36.094 21.0843 37.0309L21.0994 37.1222C21.081 37.1247 21.0629 37.1279 21.0439 37.1279ZM17.422 27.3286V28.6847C17.422 29.5293 16.9739 30.271 16.3031 30.6852C15.5585 31.1461 14.5916 31.1455 13.8458 30.6879C13.1726 30.2742 12.7227 29.531 12.7227 28.6846V27.3286C12.7227 26.033 13.7767 24.9789 15.0724 24.9789C16.368 24.9789 17.422 26.0331 17.422 27.3286ZM9.1018 24.979H11.6584C11.197 25.6474 10.9258 26.4568 10.9258 27.3287V28.6848C10.9258 29.9242 11.4731 31.0375 12.338 31.7981L12.2531 32.4376C12.2453 32.4963 12.206 32.5454 12.149 32.566L10.143 33.297C9.59252 33.4976 9.09757 33.8029 8.67773 34.1857V25.4031C8.67773 25.1692 8.86793 24.979 9.1018 24.979Z" fill="#9069AC"/>
<path d="M41.9679 23.1821H27.1445C26.6483 23.1821 26.2461 23.5844 26.2461 24.0806C26.2461 24.5768 26.6483 24.979 27.1445 24.979H41.968C42.4642 24.979 42.8665 24.5768 42.8665 24.0806C42.8665 23.5844 42.4641 23.1821 41.9679 23.1821Z" fill="#9069AC"/>
<path d="M41.9678 27.9941H33.7148C33.2186 27.9941 32.8164 28.3964 32.8164 28.8926C32.8164 29.3888 33.2186 29.791 33.7148 29.791H41.9678C42.464 29.791 42.8662 29.3888 42.8662 28.8926C42.8662 28.3964 42.464 27.9941 41.9678 27.9941Z" fill="#9069AC"/>
<path d="M30.6895 28.8926C30.6895 28.3964 30.2873 27.9941 29.7911 27.9941H27.1445C26.6483 27.9941 26.2461 28.3964 26.2461 28.8926C26.2461 29.3888 26.6483 29.791 27.1445 29.791H29.7911C30.2873 29.791 30.6895 29.3888 30.6895 28.8926Z" fill="#9069AC"/>
<path d="M41.9668 37.1279H34.7129C34.2167 37.1279 33.8145 37.5302 33.8145 38.0264C33.8145 38.5226 34.2167 38.9248 34.7129 38.9248H41.9668C42.463 38.9248 42.8652 38.5226 42.8652 38.0264C42.8652 37.5302 42.463 37.1279 41.9668 37.1279Z" fill="#9069AC"/>
<path d="M34.7876 10.1323C34.7845 10.1241 34.7812 10.1159 34.7779 10.1077C34.6195 9.72272 34.2484 9.47412 33.8321 9.47412C33.8319 9.47412 33.8314 9.47412 33.8311 9.47412C33.4145 9.47448 33.0433 9.72398 32.8856 10.1096C32.8828 10.1163 32.8801 10.1232 32.8775 10.1301L30.8188 15.5353C30.6422 15.999 30.875 16.5181 31.3387 16.6947C31.4439 16.7348 31.552 16.7538 31.6583 16.7538C32.0203 16.7538 32.3616 16.5333 32.498 16.1748L32.7904 15.4074H34.8578L35.1464 16.1723C35.3216 16.6366 35.8399 16.8706 36.3043 16.6957C36.7685 16.5205 37.0028 16.0021 36.8276 15.5379L34.7876 10.1323ZM33.4747 13.6103L33.8288 12.6807L34.1796 13.6103H33.4747Z" fill="#9069AC"/>
<path d="M21.4551 9.47412C20.9589 9.47412 20.5566 9.87635 20.5566 10.3726V15.855C20.5566 16.3512 20.9589 16.7534 21.4551 16.7534C21.9513 16.7534 22.3535 16.3512 22.3535 15.855V10.3726C22.3535 9.87635 21.9513 9.47412 21.4551 9.47412Z" fill="#9069AC"/>
<path d="M18.1955 9.52976C17.7248 9.37343 17.2161 9.62823 17.0596 10.0991L15.9889 13.3222L14.8627 10.0777C14.7 9.60891 14.1881 9.36085 13.7193 9.52356C13.2506 9.68635 13.0024 10.1982 13.1652 10.667L15.0418 16.0732C15.1865 16.4807 15.5731 16.7533 16.005 16.7533H16.0119C16.4467 16.7503 16.8328 16.4718 16.9748 16.0542L18.7648 10.6657C18.9213 10.1948 18.6664 9.68618 18.1955 9.52976Z" fill="#9069AC"/>
<path d="M27.8656 12.314C27.2306 12.0798 26.6368 11.8254 26.4162 11.7294C26.3809 11.6922 26.3673 11.6436 26.3758 11.5843C26.3929 11.4653 26.4973 11.3686 26.6624 11.3188C27.3298 11.1176 27.9627 11.6244 27.969 11.6295C27.969 11.6295 28.6961 12.0909 29.2051 11.4618C29.7215 10.8238 29.1252 10.2482 29.1252 10.2482C28.6216 9.82497 27.427 9.21169 26.1441 9.5982C25.3069 9.85039 24.7141 10.5135 24.5971 11.3289C24.4866 12.099 24.8207 12.8399 25.469 13.2627C25.5087 13.2885 25.5504 13.3113 25.5936 13.3305C25.6256 13.3448 26.3868 13.6836 27.2437 13.9997C27.5352 14.1073 27.8628 14.305 27.8264 14.5087C27.7941 14.6892 27.5341 14.9564 27.0785 14.9564C26.5928 14.9564 26.1275 14.7629 25.8337 14.4388C25.5005 14.0712 24.9323 14.0432 24.5646 14.3765C24.197 14.7097 24.169 15.2779 24.5023 15.6455C25.1403 16.3495 26.0793 16.7534 27.0785 16.7534C28.3373 16.7534 29.3957 15.9422 29.5952 14.8246C29.7471 13.9753 29.3723 12.8697 27.8656 12.314Z" fill="#9069AC"/>
</svg>
