<svg width="14" height="14" viewBox="0 0 14 14" fill="none" xmlns="http://www.w3.org/2000/svg">
<path d="M12.8319 9.86989V11.6199C12.8325 11.7824 12.7993 11.9432 12.7342 12.092C12.6691 12.2409 12.5736 12.3745 12.4539 12.4843C12.3342 12.5941 12.1929 12.6778 12.039 12.7298C11.8851 12.7819 11.722 12.8012 11.5602 12.7866C9.76519 12.5915 8.04095 11.9781 6.52604 10.9957C5.1166 10.1001 3.92165 8.90516 3.02604 7.49573C2.04019 5.97393 1.42668 4.24131 1.2352 2.43823C1.22063 2.27692 1.2398 2.11434 1.2915 1.96084C1.34319 1.80735 1.42629 1.6663 1.53548 1.54667C1.64468 1.42705 1.77759 1.33147 1.92575 1.26603C2.07391 1.20059 2.23407 1.16671 2.39604 1.16656H4.14604C4.42913 1.16377 4.70358 1.26402 4.91823 1.44862C5.13288 1.63322 5.27308 1.88957 5.3127 2.16989C5.38657 2.72993 5.52355 3.27982 5.72104 3.80906C5.79952 4.01785 5.81651 4.24476 5.76998 4.46291C5.72346 4.68105 5.61537 4.88129 5.45854 5.03989L4.7177 5.78073C5.54811 7.24113 6.7573 8.45032 8.2177 9.28073L8.95854 8.53989C9.11714 8.38306 9.31738 8.27497 9.53552 8.22845C9.75367 8.18192 9.98058 8.19891 10.1894 8.27739C10.7186 8.47488 11.2685 8.61186 11.8285 8.68573C12.1119 8.7257 12.3707 8.86843 12.5557 9.08677C12.7407 9.3051 12.839 9.58381 12.8319 9.86989Z" stroke="#9069AC" stroke-linecap="round" stroke-linejoin="round"/>
</svg>
