<svg width="56" height="39" viewBox="0 0 56 39" fill="none" xmlns="http://www.w3.org/2000/svg">
    <path d="M45.1 12.5456L44.7867 13.1412L45.4474 13.2692C51.1018 14.3645 55.375 19.3474 55.375 25.3183C55.375 32.0922 49.8764 37.5908 43.1025 37.5908C36.3286 37.5908 30.83 32.0922 30.83 25.3183C30.83 20.6936 31.7687 17.4393 33.1435 14.9016C34.5233 12.3549 36.3568 10.4998 38.2144 8.67598L38.2144 8.67596C41.0172 5.92366 44.0162 3.96198 46.317 2.68806C47.4666 2.05157 48.4396 1.58804 49.1234 1.28431C49.4652 1.13248 49.7346 1.02067 49.9174 0.947227C50.0088 0.910507 50.0785 0.883389 50.1248 0.865662L50.1288 0.86414C50.158 0.861942 50.1872 0.859715 50.2164 0.857479C50.552 0.831833 50.888 0.806156 51.1913 0.83577C51.5549 0.871269 51.6939 0.970623 51.7462 1.06393L51.7474 1.06597C51.8259 1.20431 51.8497 1.51755 51.7385 1.96761C51.6342 2.39002 51.4435 2.79943 51.2752 3.03585L51.2749 3.03625L51.6825 3.32582L51.2748 3.03633L51.2747 3.03652L51.2742 3.03721L51.2723 3.0399L51.2649 3.05039L51.2358 3.09136L51.1242 3.24941C51.0272 3.38714 50.8863 3.58765 50.7106 3.83922C50.3594 4.3423 49.8692 5.04978 49.3128 5.86773C48.2014 7.50176 46.8211 9.58383 45.7585 11.359L45.7577 11.3603C45.5316 11.7406 45.3046 12.1565 45.1 12.5456Z" fill="#FAF4FF" stroke="#9069AC"/>
    <path d="M15.4984 12.5456L15.1851 13.1412L15.8458 13.2692C21.5003 14.3645 25.7734 19.3474 25.7734 25.3183C25.7734 32.0922 20.2748 37.5908 13.5009 37.5908C6.72708 37.5908 1.22844 32.0922 1.22844 25.3183C1.22844 20.6936 2.16714 17.4393 3.54198 14.9016C4.92174 12.3549 6.75525 10.4998 8.61282 8.67598L8.61284 8.67596C11.4156 5.92366 14.4146 3.96198 16.7155 2.68806C17.8651 2.05157 18.8381 1.58804 19.5218 1.28431C19.8637 1.13248 20.133 1.02067 20.3158 0.947227C20.4072 0.910507 20.4769 0.883389 20.5232 0.865662L20.5272 0.86414C20.5564 0.861942 20.5856 0.859715 20.6148 0.857479C20.9504 0.831833 21.2864 0.806156 21.5897 0.83577C21.9533 0.871269 22.0923 0.970623 22.1447 1.06393L22.1458 1.06597C22.2243 1.20431 22.2481 1.51755 22.137 1.96761C22.0326 2.39002 21.8419 2.79943 21.6736 3.03585L21.6733 3.03625L22.0809 3.32582L21.6733 3.03633L21.6731 3.03652L21.6726 3.03721L21.6707 3.0399L21.6633 3.05039L21.6343 3.09136L21.5227 3.24941C21.4256 3.38714 21.2847 3.58765 21.1091 3.83922C20.7579 4.3423 20.2676 5.04978 19.7113 5.86773C18.5998 7.50176 17.2195 9.58383 16.1569 11.359L16.1562 11.3603C15.93 11.7406 15.7031 12.1565 15.4984 12.5456Z" fill="#FAF4FF" stroke="#9069AC"/>
</svg>