<svg xmlns="http://www.w3.org/2000/svg" xml:space="preserve" viewBox="0 0 39.69 39.69">
  <path fill="#f0f0f0" fill-rule="evenodd" d="M0 0h39.69v39.69H0z"/>
  <path fill="#9c4314" fill-rule="evenodd" d="M11.71 21.31s.26-.46.23-.38c.12.09.34 0 .18-.2l.13-.23c.08-.16-.1-.23-.18-.12l-.13.22c-.23-.1-.25.15-.14.2l-.18.25.1.26z"/>
  <path fill="#9c4314" fill-rule="evenodd" d="M11.68 21.21s-.46-.25-.39-.23c.09-.12 0-.33-.2-.17-.09-.04-.15-.09-.23-.12-.17-.09-.23.1-.12.17l.22.13c-.1.24.16.25.2.14l.42.25c.08-.03.01-.14.1-.17z"/>
  <path fill="#9c4314" fill-rule="evenodd" d="M13.32 23.97c0-.01.02-.53.03-.45.14.02.3-.16.06-.26V23c0-.19-.2-.16-.21-.03l-.01.26c-.26.02-.15.25-.03.24 0 .09-.03.23-.04.31l.2.19z"/>
  <path fill="#9c4314" fill-rule="evenodd" d="M13.25 23.9c-.01 0-.53-.01-.45-.02.02-.15-.16-.3-.26-.06h-.26c-.19 0-.16.2-.02.21l.26.01c.01.26.25.14.23.02l.44.05c.06-.07 0-.15.06-.22z"/>
  <path fill="#42b2f3" fill-rule="evenodd" stroke="#000" stroke-width=".07525" d="M18.63 25.68s.17.24.25.24c.25.02 2.23 0 2.23 0l.07-.04c.07-.08.06-.13.13-.21.1-.1.25-.14.35-.24.45-.11.85-.22 1.3-.29-.04-.26-.3-.2-.45-.31-.05-.04-.04-.08-.01-.13l.99-.45v-.1c-.7.08-1.35.21-2.1.24l-2.58 1.06-.18.23z"/>
  <path fill="none" stroke="#000" stroke-width=".0301pt" d="M11.5 20.94c.04 0 0 0 0-.1"/>
  <path fill="#008d00" fill-rule="evenodd" stroke="#286726" stroke-width=".139363" d="M11.54 21.06c-.13-.47-.34-.88-.85-1-.1-.03-.16-.3 0-.28.09.03 0-.02.09.01.09.04.22-.03.17-.18l-.17-.33c-.03-.03.03-.22.18-.12.07.04.14.15.24.17.04 0 .06-.12.06-.21v-.3c-.03-.19.13-.28.26-.14v.08c.04.06.07.07.11.01.06-.05.12-.1.17-.17.1-.03.17-.07.17.14l-.2.23c-.04.06-.11.12.02.16l.18.03c.12.05.13.18.05.19 0 0-.1.1-.26.2-.05.04-.1.09-.05.14.1.04.07 0 .23 0 .13-.03.12.3-.12.28-.08.02-.18.02-.22.13l-.02.31c-.01.22.02.51.02.52.02.15-.04.1-.06.13z"/>
  <path fill="#008d00" fill-rule="evenodd" stroke="#286726" stroke-width=".139363" d="M13 23.78c-.01-.02-.46-.51-.98-.46-.1.02-.25-.22-.1-.26h.12c.08-.06-.06-.24-.13-.18 0-.01-.18.04-.25.03-.22-.02-.32-.28-.16-.37.1.04.3.04.4.03.1-.03.06-.13-.04-.14-.14-.02-.72-.16-.67-.23-.09-.16 0-.28.17-.2.14.09.15.04.12-.02-.04-.12-.08-.1-.09-.2 0-.06.01-.12.11-.08.04-.03.11.21.37.12.04.04.08-.27.26-.22.13.04.04.18.07.37.02.13.15.1.16.04-.02-.3.26-.3.3-.2.02.07.05.27.01.45-.02.1 0 .29.06.32.1 0 .04-.02.1-.12.12-.08.3.2.1.33-.23.05.12.91.15.96-.03.03-.07-.01-.08.03z"/>
  <path fill="#9c4314" fill-rule="evenodd" d="M15.77 26.08c0-.01-.07-.53-.05-.45.15 0 .27-.2.02-.27l-.04-.26c-.03-.18-.22-.12-.2.01 0 .1 0 .17.02.26-.25.05-.1.27.01.24l.01.31z"/>
  <path fill="#9c4314" fill-rule="evenodd" d="M15.76 26.02s-.52.07-.45.05c0-.15-.2-.26-.26-.01l-.26.04c-.18.03-.12.22.01.2.1-.01.16 0 .26-.03.06.26.27.1.24 0l.44-.03c.05-.08-.03-.15.02-.22z"/>
  <path fill="#33b1e9" fill-rule="evenodd" stroke="#000" stroke-width=".079163" d="M15.59 23.2c1.25.74 1.58.63 1.52.3.06 0 .08.06.26-.07-.03.48.5.76.82.7.3.02.26.4.26.4.02.4-.12.56-.1.96l-.01-.05c-.36-.09-1.07-.1-1.33-.15 1.21-.83-.93-.85-1.13-.88-.14-.02-.04-.16.05-.2.66-.13-.63-.76-.6-.84-.08-.04 0-.08 0-.08.1-.06.17-.03.26-.09z"/>
  <path fill="#983d25" fill-rule="evenodd" stroke="#000" stroke-width=".11287499999999999" d="M18.73 23.83a.4.4 0 0 0-.4.4c-.06.3-.05.72 0 1.12 0 .22.18.4.4.4.87.09 1.8.06 2.6 0a.4.4 0 0 0 .4-.4c.1-.36.08-.73 0-1.13a.4.4 0 0 0-.4-.4c-.86-.03-1.75-.08-2.6 0z"/>
  <path fill="#268728" fill-rule="evenodd" stroke="#000003" stroke-linecap="round" stroke-linejoin="round" stroke-width=".07525" d="m15.79 13.1-.6.51c-.25.11-.51.25-.32.82-.11.74.48.86 1 .7.1-.19.12-.32.2-.51-.22-.04-.35.04-.56.03-.14-.02-.15-.13-.1-.2l.66-.33c0-.04-.01-.01-.02-.04-.18.1-.32.12-.51.2-.16.06-.2-.14-.14-.23l.4-.59a.7.7 0 0 0-.01-.36z"/>
  <path fill="#fff" fill-rule="evenodd" stroke="#000" stroke-width=".07525" d="M17.45 23.24a.31.31 0 1 0-.62 0 .31.31 0 1 0 .62 0h-.31Z"/>
  <path fill="#fff" fill-rule="evenodd" stroke="#000" stroke-width=".07526000000000001" d="M15.97 24.41a.3.3 0 1 0-.59 0 .3.3 0 1 0 .6 0h-.3Z"/>
  <path fill="#fff" fill-rule="evenodd" stroke="#000" stroke-width=".074692" d="M23.29 25.07a.3.3 0 1 0-.6 0 .3.3 0 1 0 .6 0h-.3Z"/>
  <path fill="#ba4600" fill-rule="evenodd" stroke="#000" stroke-linejoin="round" stroke-width=".0301pt" d="m15.81 13.49.02.47c-.01-.17-.07-.3-.1-.37a.5.5 0 0 1 .08-.1z"/>
  <path fill="#973100" fill-rule="evenodd" stroke="#000" stroke-width=".108488" d="M18.7 25.43a.3.3 0 1 0-.59 0 .3.3 0 1 0 .6 0h-.3Z"/>
  <path fill="#973100" fill-rule="evenodd" stroke="#000" stroke-width=".108488" d="M21.8 25.43a.3.3 0 1 0-.58 0 .3.3 0 1 0 .59 0h-.3Z"/>
  <path fill="#973100" fill-rule="evenodd" stroke="#000" stroke-width=".108488" d="M21.8 24a.3.3 0 1 0-.58 0 .3.3 0 1 0 .59 0h-.3Z"/>
  <path fill="#973100" fill-rule="evenodd" stroke="#000" stroke-width=".108488" d="M18.72 24a.3.3 0 1 0-.59 0 .3.3 0 1 0 .59 0h-.3Z"/>
  <path fill="#008d00" fill-rule="evenodd" stroke="#286726" stroke-width=".139363" d="M15.81 26.24c-.01-.03-.14-.4-.9-.42-.1 0-.16.03-.38.01-.12.01-.07-.13-.02-.19.08-.05-.3-.03-.42-.01-.13 0-.21-.03-.29-.05-.22-.02-.35-.17-.19-.27.07-.07.35.01.45 0 .1-.04.1-.2 0-.22-.15-.02-.77-.07-.72-.14-.1-.16-.06-.24.18-.2.14.07.13-.03.1-.1-.04-.11-.26-.13-.27-.23-.04-.25.12-.28.22-.24.04-.03-.18-.23.07-.32.07-.02.2 0 .24.23.13.04.04-.15.22-.23.15-.07-.01.69.17.68.16.07.13-.41.26-.32.29-.07.15.92.28.86.2.18.22-.17.28-.13.1 0 .17 0 .12.24-.05.17.02.21.05.28.2.43.48.43.58.62.03.3-.02.1-.03.15z"/>
  <path fill="#009400" fill-rule="evenodd" stroke="#000" stroke-width=".07525" d="M19.4 26.9c-.36.29-.73.48-.87.78.16-.02.22-.05.35-.03.13-.3.54-.45.79-.7-.1-.01-.19-.04-.28-.06z"/>
  <path fill="#009400" fill-rule="evenodd" stroke="#000" stroke-width=".07525" d="M20.35 26.92c.32.3.72.47.86.79-.16-.02-.23-.05-.32-.02-.14-.3-.57-.47-.81-.7l.27-.07z"/>
  <path fill="#fff" fill-rule="evenodd" stroke="#000" stroke-width=".07525" d="M20.1 26.98c.4.24.55.4.8.7a.98.98 0 0 0-.34.1c-.3-.38-.52-.51-.77-.75.1-.02.22-.02.31-.05z"/>
  <path fill="#ffba00" fill-rule="evenodd" stroke="#000" stroke-opacity=".77" stroke-width=".07525" d="M16.4 14.26c-.15.05-.22.18-.23.3-.58.4-.16 1.2.38 1.04-.4-.6 0-.93.44-.72.13.1.23.3.24.29.08-.18.41-.34.41-.34s.27.03.32-.14c.03-.11.28-.57.28-.57l-.86-.17-.6-.02-.3.14c-.05.07-.03.13-.07.2z"/>
  <path fill="#d40000" fill-rule="evenodd" stroke="#000" stroke-width=".07525" d="M19.79 27c.39.24.57.46.8.76-.1.03-.13.2-.2.24-.18-.38-.5-.7-.82-1.03.09-.02.12.06.22.03z"/>
  <path fill="#fff" fill-rule="evenodd" stroke="#000" stroke-width=".07525" d="M19.64 26.96c-.4.23-.53.38-.77.68.11.01.26.08.32.12.29-.38.51-.52.76-.76l-.31-.04z"/>
  <path fill="#d40000" fill-rule="evenodd" stroke="#000" stroke-width=".07525" d="M19.96 26.98c-.4.23-.56.47-.8.77.2.14.15.14.19.22.18-.38.6-.69.93-1.01-.1-.02-.23.04-.32.02z"/>
  <path fill="#973000" fill-rule="evenodd" stroke="#000" stroke-width="2.24" d="M203.69 472.45a16.13 9.06 0 1 0-32.26 0 16.13 9.06 0 1 0 32.26 0h-16.13z" transform="matrix(.0312 .0102 -.0094 .034 13.64 5.21)"/>
  <path fill="#008d2b" fill-rule="evenodd" stroke="#005e00" stroke-width=".07525" d="m19.32 26.48-.96.68c-.06.05.2.1.29.06.3-.2.45-.34.75-.55l.17-.1c-.12 0-.13-.08-.25-.09z"/>
  <path fill="#973000" fill-rule="evenodd" stroke="#000" stroke-width="2.55" d="M203.69 472.45a16.13 9.06 0 1 0-32.26 0 16.13 9.06 0 1 0 32.26 0h-16.13z" transform="matrix(.0265 -.0104 .0125 .0279 5.99 14.12)"/>
  <path fill="#008d00" fill-rule="evenodd" stroke="#000" stroke-width=".079163" d="M22.2 23.36c.01-.78.7-.1.96-.42.63-.73.68-.8 1.23-.71 1.49.58-.06 1.93-1.58 1.32-.16-.1-.44-.1-.61-.2z"/>
  <g fill="#6d390b" fill-rule="evenodd">
    <path d="M27.8 20.8a.2.16 21.54 1 0-.39-.1.2.16 21.54 1 0 .38.1l-.19-.05z"/>
    <path d="m27.74 20.77.36.31-.09.11-.36-.31z"/>
  </g>
  <path fill="#6d390b" fill-rule="evenodd" d="m25.55 21.91.08.11.27-.23-.07-.11z"/>
  <path fill="none" stroke="#000" stroke-linecap="round" stroke-width=".11287499999999999" d="M18.73 23.82c.46.14.8 1.81 1.25 1.96"/>
  <path fill="none" stroke="#000" stroke-linecap="round" stroke-width=".11287499999999999" d="M19.17 23.81c.46.14.79 1.81 1.24 1.96"/>
  <path fill="none" stroke="#000" stroke-linecap="round" stroke-width=".11287499999999999" d="M19.6 23.8c.46.13.8 1.81 1.25 1.96"/>
  <path fill="#973000" fill-rule="evenodd" stroke="#000" stroke-width="2.24" d="M203.69 472.45a16.13 9.06 0 1 0-32.26 0 16.13 9.06 0 1 0 32.26 0h-16.13z" transform="matrix(.0265 -.0104 .0125 .0279 12.72 12.96)"/>
  <path fill="#dc0000" fill-rule="evenodd" stroke="#000" stroke-width=".071939" d="M25.77 22.3c.02.09-.02.2-.17.24-.16.04-.3-.02-.33-.1-.02-.1.07-.22.22-.26.16-.05.26.03.28.12z"/>
  <path fill="#008d00" fill-rule="evenodd" stroke="#286026" stroke-width=".139363" d="M18.86 26.58c-.24.05-.77.16-1 .63-.04.08-.39.15-.34 0l.13-.17c0-.1-.23-.07-.22.02a.3.3 0 0 0-.18.07c-.14.18-.37.17-.37-.02a.51.51 0 0 0 .18-.22c.03-.1-.17-.14-.24-.06-.14.07-.22.17-.39.25-.18.07-.36-.05-.2-.14.14-.07.02-.24-.05-.24-.12-.03-.61.05-.7 0-.07 0-.2-.19-.05-.22.14-.05.36.05.42-.22.06-.44.77.23.65.04-.26-.38.18-.47.32-.2.05.1.32.28.4.25.15.02-.27-.37.06-.43.08.01.21.02.3.15.07.07.09.34.35.36.06-.08 0-.04-.05-.15 0-.14.23-.13.33.1.1.19.61.06 1.09.07.15-.02.39.11-.44.13z"/>
  <path fill="#dc0000" fill-rule="evenodd" stroke="#000" stroke-width=".07525" d="M25.25 22.28c.08.13.08.33-.15.48-.22.14-.48.12-.57 0-.08-.13 0-.38.22-.53.23-.14.41-.08.5.05z"/>
  <path fill="#dc0000" fill-rule="evenodd" stroke="#000" stroke-width=".071939" d="M25.4 21.75c.09.05.14.16.05.3-.09.14-.24.2-.32.14-.07-.05-.1-.2 0-.34.08-.14.2-.15.28-.1z"/>
  <path fill="#dc0000" fill-rule="evenodd" stroke="#000" stroke-width=".071939" d="M25.64 21.98c.06.08.05.2-.08.3-.14.08-.3.07-.35 0-.05-.08 0-.24.13-.32.14-.1.25-.05.3.02z"/>
  <path fill="#d90000" fill-rule="evenodd" stroke="#000" stroke-width=".05418" d="M26.15 21.53c.04.05.04.15-.06.21-.1.07-.23.06-.26 0-.04-.05 0-.17.1-.23.1-.07.18-.04.22.02z"/>
  <path fill="#fff" fill-rule="evenodd" stroke="#000" stroke-width=".07525" d="M19.69 26.22c-.2.03-.32.04-.36.18-.02.1 0 .23.02.34 0 .13.16.21.34.25h.32c.14 0 .39-.14.39-.26.02-.07.02-.19.02-.27 0-.21-.15-.22-.34-.24z"/>
  <path fill="#008f00" fill-rule="evenodd" stroke="#286326" stroke-width=".12431299999999999" d="M26.8 23.7c-.02-.73-.22-1.8.7-2.17.11-.03.15.03.11.13l-.8 2.05z"/>
  <path fill="#008c00" fill-rule="evenodd" stroke="#286326" stroke-width=".12431299999999999" d="M27.97 22.2c.17-.3.57-.38.7-.37-.27.28-.55.98-.7 1.21-.23.39-.9.66-1.29.9l1.3-1.74z"/>
  <path fill="#009400" fill-rule="evenodd" stroke="#000" stroke-width=".0301pt" d="m19.7 26.22-.2.03-.16.1-.03.2.04.22.09.13.25.08z"/>
  <path fill="#008d00" fill-rule="evenodd" stroke="#286326" stroke-width=".12431299999999999" d="M26.68 23.93c.03-.03.52-2.35 1.34-2.63.14.18.07.55.02.75a3.98 3.98 0 0 1-1.36 1.88z"/>
  <g fill="#6d390b" fill-rule="evenodd">
    <path d="M28.5 21.07a.16.2-75.08 1 1 .37.14.16.2-75.08 1 1-.37-.14l.18.07z"/>
    <path d="m28.56 21.07-.48.04.02.14.47-.04z"/>
  </g>
  <g fill="#6d390b" fill-rule="evenodd">
    <path d="M26.49 23.45a.21.17 45.48 1 0-.34-.25.21.17 45.48 1 0 .34.25l-.17-.13z"/>
    <path d="m26.45 23.4.25.45-.13.08-.25-.46z"/>
  </g>
  <g fill="#6d390b" fill-rule="evenodd">
    <path d="M27.08 24.1a.17.21 76.33 1 0 .4-.17.17.21 76.33 1 0-.4.16l.2-.08z"/>
    <path d="m27.15 24.1-.52-.03v-.16l.52.03z"/>
  </g>
  <path fill="#008c00" fill-rule="evenodd" stroke="#286326" stroke-width=".10113599999999999" d="M26.32 24.62c.51-.27.2.11.16.32-.15.52-.29.53-.46.62-.26.23-1.1.12-1.5.22.5-.36 1.32-.8 1.8-1.16z"/>
  <path fill="#008c00" fill-rule="evenodd" stroke="#286326" stroke-width=".10113599999999999" d="M25.57 24.5c.2-.16.24-.53.23-.66-.2.27-.68.57-.84.73-.27.23-.43.85-.58 1.22.42-.44.78-.84 1.19-1.29z"/>
  <path fill="#008c00" fill-rule="evenodd" stroke="#286326" stroke-width=".12431299999999999" d="M22.94 26.63c.33-.1.9.14.99.25-.4 0-1.05.28-1.32.33-.44.1-1.64-.57-2.08-.67.72-.04 1.67.2 2.41.09z"/>
  <path fill="#00602b" fill-rule="evenodd" stroke="#004500" stroke-width=".07525" d="m20.43 26.56.96.67c.06.05-.2.1-.29.06-.3-.2-.45-.34-.75-.54l-.17-.1c.12 0 .12-.08.25-.1z"/>
  <path fill="#008c00" fill-rule="evenodd" stroke="#286326" stroke-width=".11859399999999999" d="M24.34 25.78c.04-.02 1.38-1.83 2.22-1.76.05.2-.16.5-.28.65-.56.66-1.34.94-1.94 1.1z"/>
  <g fill="#6d390b" fill-rule="evenodd">
    <path d="M24.18 25.51a.21.17 73.59 1 0-.19-.38.21.17 73.59 1 0 .19.38l-.1-.2z"/>
    <path d="M24.17 25.44v.52h-.15v-.51z"/>
  </g>
  <g fill="#6d390b" fill-rule="evenodd">
    <path d="M24.53 26.26a.17.21-73.06 1 0 .42.05.17.21-73.06 1 0-.42-.05l.2.02z"/>
    <path d="m24.59 26.29-.44-.28.08-.14.44.29z"/>
  </g>
  <path fill="#dc0000" fill-rule="evenodd" stroke="#000" stroke-width=".056287" d="M13.12 19.66c.03-.06.13-.1.24-.04.11.07.16.18.12.24-.04.06-.17.07-.28.01-.11-.06-.12-.15-.08-.21z"/>
  <path fill="#008c00" fill-rule="evenodd" stroke="#286326" stroke-width=".10113599999999999" d="M22.71 26.38c.56-.14.52-.41.78-.64-.6-.1-1.08.12-1.33.26-.41.26-.52.55-.87.74.6-.07.87-.16 1.42-.36z"/>
  <path fill="#008c00" fill-rule="evenodd" stroke="#286326" stroke-width=".11859399999999999" d="M20.9 26.55c1.59.12 1.33-.53 3.08-.51-.03.2-.36.46-.53.55-.77.4-2.02.6-2.55-.04z"/>
  <path fill="#d40000" fill-rule="evenodd" stroke="#000" stroke-width=".0301pt" d="M20.1 26.21v.75l.2-.08.08-.14.04-.19-.02-.21-.15-.1z"/>
  <path fill="#6d390b" fill-rule="evenodd" d="m13.47 19.27-.25-.28.09-.08.25.28z"/>
  <path fill="#dc0000" fill-rule="evenodd" stroke="#000" stroke-width=".066521" d="M13.15 19.44c.05-.08.15-.13.27-.05.13.09.18.23.13.3-.04.08-.18.1-.3.02-.13-.08-.14-.2-.1-.27z"/>
  <path fill="#dc0000" fill-rule="evenodd" stroke="#000" stroke-width=".06050099999999999" d="M13.85 19.12c.08 0 .16.07.15.22 0 .14-.08.25-.15.25-.08 0-.15-.11-.15-.26 0-.14.08-.2.15-.2z"/>
  <path fill="#dc0000" fill-rule="evenodd" stroke="#000" stroke-width=".06622" d="M13.5 19.18c.08-.02.19.02.23.16.03.15-.02.28-.1.3-.08.03-.2-.06-.24-.2-.04-.15.03-.24.1-.26z"/>
  <path fill="#008d00" fill-rule="evenodd" stroke="#000" stroke-linecap="round" stroke-linejoin="round" stroke-width=".07525" d="M15.55 21.5c-.25-.63-.93-1.68-1.62-1.17-.76.66.35 1.7 1.3 1.64l.32-.47z"/>
  <path fill="#dc0000" fill-rule="evenodd" stroke="#000" stroke-width=".078862" d="M13.58 19.65c.13-.09.34-.09.5.14.16.23.14.5.01.6-.13.09-.4.01-.55-.22-.16-.23-.1-.43.04-.52z"/>
  <path fill="#dc0000" fill-rule="evenodd" stroke="#000" stroke-width=".05658799999999999" d="M13.09 18.6c.06-.04.16-.04.23.07.07.1.06.23 0 .27-.06.04-.18 0-.25-.1s-.04-.2.02-.24z"/>
  <path fill="#008d00" fill-rule="evenodd" stroke="#000" stroke-width=".079163" d="M17.65 22.25c-.31-.55-1.16-1.25-2.03-.8-1.02.71.42 1.79 1.89 1.26.13-.14 0-.32.14-.46z"/>
  <path fill="#008d00" fill-rule="evenodd" stroke="#000" stroke-width=".079163" d="M20.53 22.58c-.3-.56-1.98-1.19-2.7-.66-.91 1.03.42 1.74 2.22 1.23.13-.14.35-.44.48-.57z"/>
  <path fill="none" stroke="#000" stroke-linecap="round" stroke-linejoin="round" stroke-width=".07525" d="m14.05 20.5.2.23-.02-.31"/>
  <path fill="none" stroke="#000" stroke-linecap="round" stroke-linejoin="round" stroke-width=".07525" d="m14.37 20.94.18.2"/>
  <path fill="none" stroke="#000" stroke-linecap="round" stroke-linejoin="round" stroke-width=".07525" d="m15.03 20.82.01.21h.12"/>
  <path fill="none" stroke="#000" stroke-linecap="round" stroke-linejoin="round" stroke-width=".07525" d="M15.03 21.53c-.05-.02-.2-.15-.2-.15"/>
  <path fill="none" stroke="#000" stroke-linecap="round" stroke-linejoin="round" stroke-width=".07525" d="m14.59 21.55-.25-.08"/>
  <path fill="none" stroke="#000" stroke-width=".07525" d="m14.12 21.08-.24-.08"/>
  <path fill="none" stroke="#000" stroke-linecap="round" stroke-linejoin="round" stroke-width=".07525" d="M13.66 20.94h-.2"/>
  <path fill="none" stroke="#000" stroke-linecap="round" stroke-linejoin="round" stroke-width=".0301pt" d="M14.62 20.26v-.27"/>
  <path fill="none" stroke="#000" stroke-linecap="round" stroke-linejoin="round" stroke-width=".07525" d="m14.27 21.7-.38-.02"/>
  <path fill="none" stroke="#000" stroke-linecap="round" stroke-linejoin="round" stroke-width=".07525" d="m14.9 21.94-.28.1"/>
  <path fill="none" stroke="#000" stroke-linecap="round" stroke-linejoin="round" stroke-width=".07525" d="m15.3 20.99.22-.12"/>
  <path fill="none" stroke="#000" stroke-linecap="round" stroke-linejoin="round" stroke-width=".07525" d="m14.69 20.69-.07-.3"/>
  <path fill="none" stroke="#000" stroke-width=".07525" d="M19.68 26.22c-.2.02-.31.03-.35.18a1 1 0 0 0 .01.34c.04.18.16.2.35.24H20c.13 0 .35-.08.39-.25.02-.09.01-.2.01-.27-.02-.2-.15-.23-.34-.25z"/>
  <path fill="none" stroke="#000" stroke-width=".07525" d="M19.7 26.22v.74"/>
  <path fill="none" stroke="#000" stroke-width=".07525" d="m20.1 26.22-.01.74"/>
  <path fill="#008c00" fill-rule="evenodd" stroke="#286326" stroke-width=".067725" d="M28.13 19.86c.12-.38-.29-.48-.38-.7-.18.37-.12.74-.09.94.08.31.36.53.4.8.09-.4.08-.65.07-1.04z"/>
  <path fill="#008c00" fill-rule="evenodd" stroke="#286326" stroke-width=".089999" d="M28.67 19.5c0-.2.28-.36.4-.4-.07.42.05.61.02.78-.03.27-.53.7-.75.93l.33-1.3z"/>
  <path fill="#008c00" fill-rule="evenodd" stroke="#286326" stroke-width=".096019" d="M28.09 21.15c.01-.02-.21-1.96.35-2.37.15.09.2.37.2.52.04.67.06 1-.55 1.85z"/>
  <path fill="#dc0000" fill-rule="evenodd" stroke="#000" stroke-width=".08307599999999998" d="M16.87 21.1c.16.06.3.23.21.51-.08.29-.22.47-.43.4-.27-.06-.32-.31-.23-.6.08-.28.29-.36.45-.3z"/>
  <path fill="#dc0000" fill-rule="evenodd" stroke="#000" stroke-width=".09541699999999999" d="M17.14 20.81c.05.04.08.12.02.2-.06.08-.17.11-.22.08-.05-.04-.06-.14 0-.22.07-.09.15-.1.2-.06z"/>
  <path fill="#dc0000" fill-rule="evenodd" stroke="#000" stroke-width=".09541699999999999" d="M16.72 20.73c.06-.01.13.01.15.12.02.1-.02.2-.08.2-.07.02-.15-.04-.17-.15-.02-.1.04-.16.1-.17z"/>
  <path fill="#dc0000" fill-rule="evenodd" stroke="#000" stroke-width=".09541699999999999" d="M16.9 20.95c.05.02.1.08.08.18-.04.1-.12.16-.18.14-.06-.01-.1-.1-.07-.2s.1-.13.17-.12z"/>
  <path fill="#dc0000" fill-rule="evenodd" stroke="#000" stroke-width=".075852" d="M16.98 20.6c.05 0 .1.06.07.13-.03.08-.1.12-.15.1-.05 0-.09-.08-.06-.15.03-.08.1-.1.14-.08z"/>
  <path fill="#dc0000" fill-rule="evenodd" stroke="#000" stroke-width=".09541699999999999" d="M17.24 21.05c.06.04.09.1.02.18-.08.07-.19.09-.24.05-.06-.04-.06-.13 0-.2.08-.07.17-.07.22-.03z"/>
  <path fill="#dc0000" fill-rule="evenodd" stroke="#000" stroke-width=".08668799999999999" d="M16.56 20.9c.05-.01.12.02.13.12 0 .1-.04.18-.1.18-.05 0-.12-.05-.13-.15-.01-.1.04-.15.1-.16z"/>
  <path fill="none" stroke="#000" stroke-width=".0301pt" d="M15.73 25.9v-.01Z"/>
  <path fill="#fff" fill-rule="evenodd" stroke="#000" stroke-width=".07525" d="M22.91 22.17c.32.17.2.56-.01.66-.02-.25-.18-.33-.42-.39.13-.07.26-.3.43-.27z"/>
  <path fill="#008d00" fill-rule="evenodd" stroke="#000" stroke-width=".079163" d="M19.94 23.73c.11-1.7 1.4-1.9 2.25-1.6 1.24.9-.02 1.65-1.89 1.7-.16-.1-.2-.01-.36-.1z"/>
  <path fill="#fff" fill-rule="evenodd" stroke="#000" stroke-width=".080066" d="M20.31 21.83c-.4-.02-.52.37-.36.57.16-.2.36-.2.63-.12-.08-.13-.08-.4-.27-.45z"/>
  <path fill="#fff" fill-rule="evenodd" stroke="#000" stroke-width=".07525" d="M20.52 22.33c-.31.17-.25.56-.02.66 0-.25.17-.33.41-.39-.12-.07-.22-.3-.4-.27z"/>
  <path fill="#f6aa00" fill-rule="evenodd" stroke="#000" stroke-linecap="round" stroke-linejoin="round" stroke-width=".07525" d="M22.96 22.2c0-.13-.11-.25-.24-.27-.15-.02-.3.08-.46-.03a4.07 4.07 0 0 1-.48-.47l-.32-.16c-.13.17-.22.36-.4.47-.1.03-.13.08-.3.06-.17-.08-.36-.12-.46-.03.08.16.06.38.03.54.06.03.13-.01.2 0 .23.01.17.26.26.37.24.06.37-.05.4-.25.07-.1.26-.12.4-.15.16-.03.34-.08.48 0 .12.06.2.13.25.25 0 0 .19.02.37-.01 0-.11-.02-.31.27-.32z"/>
  <path fill="none" stroke="#000" stroke-width=".07525" d="m21.34 21.44.01.4c.05.15.37.14.41.04v-.45"/>
  <path fill="none" stroke="#000" stroke-linecap="round" stroke-width=".07525" d="M21.45 22.3c.07-.02.1-.22.1-.22"/>
  <path fill="none" stroke="#000" stroke-linecap="round" stroke-width=".07525" d="m21.73 22.25.02-.16"/>
  <path fill="none" stroke="#000" stroke-linecap="round" stroke-width=".07525" d="m22.03 22.25-.03-.17"/>
  <path fill="none" stroke="#000" stroke-linecap="round" stroke-width=".07525" d="M21.25 22.12s-.15-.17-.1-.15"/>
  <path fill="none" stroke="#000" stroke-linecap="round" stroke-width=".07525" d="M21 22.38c.01 0-.24-.26-.2-.24"/>
  <path fill="none" stroke="#000" stroke-linecap="round" stroke-width=".07525" d="M20.76 21.9c0-.02-.01-.12.03-.1"/>
  <path fill="none" stroke="#000" stroke-linecap="round" stroke-width=".07525" d="M21.32 21.84c-.38.33-.74.19-.79.46"/>
  <path fill="none" stroke="#000" stroke-linecap="round" stroke-width=".07525" d="M22.26 22.02c.02-.01.06-.1.01-.1"/>
  <path fill="none" stroke="#000" stroke-linecap="round" stroke-linejoin="round" stroke-width=".07525" d="m16.15 22.19.29-.03-.26-.17"/>
  <path fill="none" stroke="#000" stroke-linecap="round" stroke-linejoin="round" stroke-width=".07525" d="m17.88 22.47.3-.03-.23-.26"/>
  <path fill="none" stroke="#000" stroke-linecap="round" stroke-linejoin="round" stroke-width=".07525" d="M18.58 22.52c-.01-.05.3 0 .3-.03l-.2-.22"/>
  <path fill="none" stroke="#000" stroke-linecap="round" stroke-linejoin="round" stroke-width=".07525" d="m18.21 21.52.19.22-.01-.3"/>
  <path fill="none" stroke="#000" stroke-linecap="round" stroke-linejoin="round" stroke-width=".07525" d="M23.57 23v.33l.2-.23"/>
  <path fill="none" stroke="#000" stroke-linecap="round" stroke-linejoin="round" stroke-width=".07525" d="m21.3 22.93-.04.29.3-.17"/>
  <path fill="none" stroke="#000" stroke-linecap="round" stroke-linejoin="round" stroke-width=".07525" d="m15.94 21.48.2.19"/>
  <path fill="none" stroke="#000" stroke-linecap="round" stroke-linejoin="round" stroke-width=".07525" d="m15.6 21.8.19.18"/>
  <path fill="none" stroke="#000" stroke-linecap="round" stroke-linejoin="round" stroke-width=".07525" d="m16.88 22.28.26-.03"/>
  <path fill="none" stroke="#000" stroke-linecap="round" stroke-linejoin="round" stroke-width=".07525" d="m16.46 22.54.26-.02"/>
  <path fill="none" stroke="#000" stroke-linecap="round" stroke-linejoin="round" stroke-width=".07525" d="m18.37 21.94.19.18"/>
  <path fill="none" stroke="#000" stroke-linecap="round" stroke-linejoin="round" stroke-width=".07525" d="m19.15 22.04.18.18"/>
  <path fill="none" stroke="#000" stroke-linecap="round" stroke-linejoin="round" stroke-width=".07525" d="m17.7 21.7.18.18"/>
  <path fill="none" stroke="#000" stroke-linecap="round" stroke-linejoin="round" stroke-width=".07525" d="m15.73 21.1.19.19"/>
  <path fill="none" stroke="#000" stroke-linecap="round" stroke-linejoin="round" stroke-width=".07525" d="m17.82 23.38.17-.2"/>
  <path fill="none" stroke="#000" stroke-linecap="round" stroke-linejoin="round" stroke-width=".07525" d="m18.7 23.54.17-.2"/>
  <path fill="none" stroke="#000" stroke-linecap="round" stroke-linejoin="round" stroke-width=".07525" d="m15.33 22.52.26-.02"/>
  <path fill="none" stroke="#000" stroke-linecap="round" stroke-linejoin="round" stroke-width=".080066" d="m15.83 22.33.18.01-.26-.19"/>
  <path fill="none" stroke="#000" stroke-linecap="round" stroke-linejoin="round" stroke-width=".07525" d="m16.16 22.89.26-.02"/>
  <path fill="none" stroke="#000" stroke-linecap="round" stroke-linejoin="round" stroke-width=".07525" d="m19.28 22.63.27-.01"/>
  <path fill="none" stroke="#000" stroke-linecap="round" stroke-linejoin="round" stroke-width=".07525" d="m18.84 23 .26-.01"/>
  <path fill="none" stroke="#000" stroke-linecap="round" stroke-linejoin="round" stroke-width=".07525" d="m19.15 21.65.2.22-.02-.31"/>
  <path fill="none" stroke="#000" stroke-linecap="round" stroke-linejoin="round" stroke-width=".07525" d="m21.72 22.44-.19.2"/>
  <path fill="none" stroke="#000" stroke-linecap="round" stroke-linejoin="round" stroke-width=".07525" d="m22.34 22.65-.2.19"/>
  <path fill="none" stroke="#000" stroke-linecap="round" stroke-linejoin="round" stroke-width=".07525" d="m22.06 23.17-.18.2"/>
  <path fill="none" stroke="#000" stroke-linecap="round" stroke-linejoin="round" stroke-width=".07525" d="m24.26 23.22-.18.19"/>
  <path fill="none" stroke="#000" stroke-linecap="round" stroke-linejoin="round" stroke-width=".07525" d="m23.1 23.09-.18.18"/>
  <path fill="none" stroke="#000" stroke-linecap="round" stroke-linejoin="round" stroke-width=".07525" d="m24.24 21.97-.18.18"/>
  <path fill="none" stroke="#000" stroke-linecap="round" stroke-linejoin="round" stroke-width=".07525" d="m25.13 23.23-.26-.02"/>
  <path fill="none" stroke="#000" stroke-linecap="round" stroke-linejoin="round" stroke-width=".07525" d="m22.92 23.82.01-.27"/>
  <path fill="none" stroke="#000" stroke-linecap="round" stroke-linejoin="round" stroke-width=".07525" d="m23.75 22.62.14-.23"/>
  <path fill="none" stroke="#000" stroke-linecap="round" stroke-linejoin="round" stroke-width=".07525" d="m24.17 22.88.14-.23"/>
  <path fill="none" stroke="#000" stroke-linecap="round" stroke-linejoin="round" stroke-width=".07525" d="M24.52 23.6h-.3l.21.15"/>
  <path fill="none" stroke="#000" stroke-linecap="round" stroke-linejoin="round" stroke-width=".07525" d="m20.56 23.52-.03.29.3-.16"/>
  <path fill="none" stroke="#000" stroke-linecap="round" stroke-linejoin="round" stroke-width=".07525" d="M18.21 23c.04-.02.22-.08.2-.11l-.18-.07"/>
  <path fill="#9c4314" fill-rule="evenodd" stroke="#000" stroke-linejoin="round" stroke-opacity=".77" stroke-width=".07525" d="M26.16 21.22c.12.1.33-1 .3-1.33 0-.03-.04-.75.11-1.27.1-.17.1-1.48-.04-1.82.11-.01.25-.05.27-.19-.53.2-.66-1.12-1.17-1.87-.5-.76-1.1-1.2-1.75-1.66.05-.12.12-.25.22-.37-.78.4-2.01-1.03-3.82-.92-.4.04-.6.06-.7.31-.34.03-.68.1-.68.55 0 .1.1.3.31.3.3.09.54.02.74.43l.05.43s-.26-.33-.4-.39c.03-.06-.03-.1.08-.18-.14-.08-.38-.02-.38-.02s-.52-.24-.95-.18l-.08-.34c-.07.21-.24.2-.26.4l-.15-.46c-.15.2-.11.42-.16.63-.06.05-.18.05-.2-.09-.02-.16-.04-.18-.04-.38-.11.2-.24.28-.28.6l-.12-.35c.01.42-.35.67-.7.96-.1.18.02.19.03.28l.18.09.32-.03c.06.07.01.08.15.12.38.1.85-.35 1.22.36-.17.14-.34.48-.29.54.07 0-.13.1.14 0-.29.29-.48.65-.48.68-.03.08.12-.01.08.13.05-.1.07-.01.07-.01-.65.7-.02 1.47-.09 1.88.11.18.12 0 .26-.02.12.5.44.8.65 1.2a.77.77 0 0 0-.43 0c.01.2.18.38.32.54l-.29.1c-.2.1-.34.2-.48.37-.1.23.46.28.72.32-.02.08-.06.19-.01.28.42.04.9-.08.9-.1 0-.03.1-.09.1-.09.05.12.18.15.23.13.08 0 .2-.31.15-.55.15.18.29.47.44.65.04.05.1.01.14-.02.13.2.3.4.43.6.07.09.06.06.15.06.08-.02.15-.03.2-.2 0 0 .03.03.06.12.1.07.18-.1.23-.16.03-.08.16.02.16-.03.04.03.07.16.12.2.07-.03.14-.18.14-.35.07.15.1.13.15.17.04-.04.05-.18.1-.22-.01-.08.54.53.56.53.06.04.37.14.43.03.16.1.58.16.65 0 .34.14.75-.02.73-.19.32.13.8.05.8.02.06 0 .21-.15.07-.26-1.05-.73-2.6-1.94-3.2-2.23 0-.22-.16-1-.34-1.21-.03-.11.04-.25.14-.24.41.38.56.35.77.4.24.2.32.47.55.73.11.03.24.14.21.04a3.55 3.55 0 0 0-.76-1.2c.23.11.6.41.85.63.17.27.21.5.36.84.11.07.22.32.2.11-.02-.4-.3-1.03-.3-1.07.45.35.44.9.58 1.24.11.17.17.4.22.34.05-.08-.13-1.04-.13-1.04l-.08-.37c.33.19.45.91.6 1.78 0 .14.06.29.05.38.07.09.15.33.15.18 0 0 0-1.4-.1-1.73-.02-.18.05-.46.05-.46l.37 1.81v.43l.18.18.1-1.06-.13-1.26v-.37c0-.12.12-.1.2.05.01.3 0 .55.02.86.06.35.1.6.12 1.06.02.37.03 1.24.1 1.22z"/>
  <path fill="none" stroke="#000" stroke-linecap="round" stroke-linejoin="round" stroke-width=".07525" d="M20.31 23.27c-.02-.04-.03-.23-.07-.23l-.1.17"/>
  <path fill="none" stroke="#000" stroke-linecap="round" stroke-linejoin="round" stroke-width=".07525" d="m23.61 22.26-.02.19"/>
  <path fill="none" stroke="#000" stroke-linecap="round" stroke-linejoin="round" stroke-width=".07525" d="M21.97 23.63c-.04.01-.22-.03-.23 0l.13.16"/>
  <path fill="none" stroke="#000" stroke-width=".0301pt" d="M19.2 19.46v.02-.02.02-.02.34c.02.05.02.1.02.15 0 .05.02.1.04.14 0 .06.02.1.04.15 0 .05.02.09.03.13 0 .05.03.08.03.12l.05.1.03.04"/>
  <path fill="none" stroke="#000" stroke-width=".0301pt" d="M18.45 20.66c0-.02 0-.07.02-.1l.1-.13c.06-.03.1-.07.14-.12l.12-.08.09-.06c.03-.02.05-.04.1-.05.03-.02.1-.01.14-.01l.1-.01"/>
  <path fill="none" stroke="#000" stroke-linecap="round" stroke-opacity=".77" stroke-width=".07525" d="M25.53 17.27c.15.11.31.35.38.78"/>
  <path fill="none" stroke="#000" stroke-linecap="round" stroke-opacity=".77" stroke-width=".07525" d="M24.68 17.42c.22.2.34.4.5.89"/>
  <path fill="#00c600" fill-rule="evenodd" stroke="#000" stroke-linecap="round" stroke-opacity=".77" stroke-width=".07525" d="M24.15 17.65c.14.15.22.31.29.5"/>
  <path fill="#00c600" fill-rule="evenodd" stroke="#000" stroke-linecap="round" stroke-opacity=".77" stroke-width=".07525" d="M23.25 17.16c.17.2.45.5.6.8"/>
  <path fill="none" stroke="#000" stroke-opacity=".77" stroke-width=".07525" d="M19.57 12.06c.02.87 1.29.66 1.4 1.47.24.9.13 1.47-.22 1.75-.2.2-.05.53.01.7.33.83.83.97 1.04 1.69"/>
  <path fill="none" stroke="#000" stroke-linecap="round" stroke-opacity=".77" stroke-width=".07525" d="M19.1 12.65c0-.01.03-.04.06-.05.12-.05.2-.05.33-.06.11 0 .22 0 .33.03"/>
  <path fill="none" stroke="#000" stroke-opacity=".77" stroke-width=".07525" d="m20.74 20.62.44.72"/>
  <path fill="none" stroke="#000" stroke-opacity=".77" stroke-width=".07525" d="m22.15 19.55 2.36 1.81"/>
  <path fill="none" stroke="#000" stroke-opacity=".77" stroke-width=".07525" d="m22.09 20.05 1.72 1.51"/>
  <path fill="none" stroke="#000" stroke-opacity=".77" stroke-width=".07525" d="M18.84 18.17c.22.45.87 1.05 1.25 1.14.02-.29 0-.4-.05-.6"/>
  <path fill="none" stroke="#000" stroke-opacity=".77" stroke-width=".07525" d="M19.57 17.9c.23.46.43.94 1.04 1.22a2.8 2.8 0 0 0-.4-1.65"/>
  <path fill="none" stroke="#000" stroke-opacity=".77" stroke-width=".07525" d="M19.68 17.3c.2.13.4.18.53.2.06-.44.12-.9-.24-1.53"/>
  <path fill="none" stroke="#000" stroke-opacity=".77" stroke-width=".07525" d="M18.88 17.56c.3.34.55.35.69.37.1-.3.14-.94.02-1.62"/>
  <path fill="none" stroke="#000" stroke-opacity=".77" stroke-width=".07525" d="M18.08 17.83c.3.4 1.01 1.14 1.39 1.42.01-.07.03-.1.03-.3"/>
  <path fill="none" stroke="#000" stroke-opacity=".77" stroke-width=".07525" d="M23.3 13.49c.32.38 1.58 1.65 1.83 2.24.44.97 1.23 1.15 1.43 1.05"/>
  <path fill="none" stroke="#000" stroke-opacity=".77" stroke-width=".07525" d="M21.13 18.74c.12.46.32 1.3.62 1.44.05-.05.1-.14.09-.35"/>
  <path fill="none" stroke="#000" stroke-opacity=".77" stroke-width=".07525" d="M19.42 16.1c.13.14.16.26.3.28.17-.14.47-.9.36-1.48"/>
  <path fill="none" stroke="#000" stroke-opacity=".77" stroke-width=".07525" d="M18.72 16.08c.06.3.12.57.34.57.36-.3.46-.98.36-1.54"/>
  <path fill="none" stroke="#000" stroke-opacity=".77" stroke-width=".07525" d="m18.58 17.7-.16-.36"/>
  <path fill="none" stroke="#000" stroke-opacity=".77" stroke-width=".07525" d="m22.07 20.58 1.09.98"/>
  <path fill="none" stroke="#000" stroke-opacity=".77" stroke-width=".07525" d="m21.56 20.18.33.94"/>
  <path fill="none" stroke="#000" stroke-opacity=".77" stroke-width=".07525" d="M20.08 19.32c.23.45.72 1.1 1.1 1.2v-.32"/>
  <path fill="none" stroke="#000" stroke-opacity=".77" stroke-width=".07525" d="M19.5 19.23c.22.45.9 1.19 1.28 1.4.01-.06.07-.07.06-.27"/>
  <path fill="none" stroke="#000" stroke-opacity=".77" stroke-width=".07525" d="m21.16 20.5.48.8"/>
  <path fill="none" stroke="#000" stroke-opacity=".77" stroke-width=".07525" d="M20.58 18.5c.21.12.43.22.57.24a3.87 3.87 0 0 0-.5-1.88"/>
  <path fill="none" stroke="#000" stroke-opacity=".77" stroke-width=".07525" d="M18.18 15.93c-.06.23-.05.48.16.49.6-.26.24-.52.76-1.4"/>
  <path fill="none" stroke="#000" stroke-opacity=".77" stroke-width=".07525" d="M18.97 14.34c.23.45.3.76.65.88.07-.04.25-.83-.35-1.48"/>
  <path fill="none" stroke="#000" stroke-opacity=".77" stroke-width=".07525" d="M19.7 14.72c.12.13.29.17.43.16.13-.27-.16-1.04-.54-1.44"/>
  <path fill="none" stroke="#000" stroke-opacity=".77" stroke-width=".07525" d="M23.05 14.1c.29.4 1.54 1.8 2.08 2.25.12-.02.3.13.13-.38"/>
  <path fill="none" stroke="#000" stroke-opacity=".77" stroke-width=".07525" d="M22.91 14.98c.29.4.81 1.08 1.35 1.53.13.05.26.03.3 0 .05-.04.01-.36.02-.69"/>
  <path fill="none" stroke="#000" stroke-opacity=".77" stroke-width=".07525" d="M22.57 15.49c.33.36.76.77 1.29 1.25.13.05.25.05.27 0 0-.05.03-.04 0-.36"/>
  <path fill="none" stroke="#000" stroke-opacity=".77" stroke-width=".07525" d="M22.12 16.13c.32.36.62.63.92.7.14.01.22.01.23-.04v-.6"/>
  <path fill="none" stroke="#000" stroke-opacity=".77" stroke-width=".07525" d="M21.65 16.61c.33.36.33.51.62.58.15.02.25 0 .28-.05.05-.1.06-.21.06-.5"/>
  <path fill="none" stroke="#000" stroke-linecap="round" stroke-opacity=".77" stroke-width=".07525" d="M21.52 14.26c.33.06.36-.23.33-.43-.03-.26-.21-.37-.43-.31"/>
  <path fill="none" stroke="#000" stroke-linecap="round" stroke-opacity=".77" stroke-width=".07525" d="M21.34 15.39c.15.06.35.05.42-.12.05-.14.03-.47-.18-.42"/>
  <path fill="none" stroke="#000" stroke-linecap="round" stroke-opacity=".77" stroke-width=".07525" d="M21.57 14.85c.3.02.32-.12.31-.29-.01-.2-.15-.35-.36-.3"/>
  <path fill="none" stroke="#000" stroke-opacity=".77" stroke-width=".07525" d="M21.86 14.07c.43-.26 1.67.79.73 1.12"/>
  <path fill="none" stroke="#000" stroke-opacity=".77" stroke-width=".07525" d="M21.76 14.81c.44-.26 1.39.6.42.93"/>
  <path fill="none" stroke="#000" stroke-opacity=".77" stroke-width=".07525" d="M21.6 15.4c.49.02 1.04.8.1.89"/>
  <path fill="none" stroke="#000" stroke-linecap="round" stroke-opacity=".77" stroke-width=".07525" d="M21.03 15.82c.16.05.25.1.39-.03a.28.28 0 0 0-.08-.4"/>
  <path fill="none" stroke="#000" stroke-opacity=".77" stroke-width=".07525" d="M16.99 14.88c.16-.21.56-.35.7-.07"/>
  <path fill="none" stroke="#000" stroke-opacity=".77" stroke-width=".07525" d="M21.32 15.85c.29.1.73.88-.02.96"/>
  <path fill="none" stroke="#000" stroke-linecap="round" stroke-opacity=".77" stroke-width=".07525" d="M20.97 12.31c.32.06.48.59.74.63.48.07-.06-.55-.16-.62"/>
  <path fill="none" stroke="#000" stroke-opacity=".77" stroke-width=".07525" d="M16.18 14.55c.15 0 .28-.02.38-.19"/>
  <path fill="none" stroke="#000" stroke-opacity=".77" stroke-width=".07525" d="M17.62 16.06c.09.15.3.09.46-.02.24-.13.04-.6.6-1"/>
  <path fill="none" stroke="#000" stroke-opacity=".77" stroke-width=".07525" d="M17.92 18.04c.3.4.89.99 1.25 1.3.01-.06.07-.09.06-.3"/>
  <path fill="none" stroke="#000" stroke-opacity=".77" stroke-width=".07525" d="m19.16 19.32.69.96"/>
  <path fill="none" stroke="#000" stroke-opacity=".77" stroke-width=".07525" d="M20.6 19.09c.12.46.57 1.2.87 1.33.05-.05.08-.25.08-.45"/>
  <path fill="none" stroke="#000" stroke-opacity=".77" stroke-width=".07525" d="m20.44 20.41-.04.44"/>
  <path fill="none" stroke="#000" stroke-opacity=".77" stroke-width=".07525" d="M21.48 18.26c.11.47.29 1.6.55 1.8.05-.05.15-.99.15-1.19"/>
  <path fill="none" stroke="#000" stroke-opacity=".77" stroke-width=".07525" d="M21.13 18.23c.15.02.24.02.36.02a3.25 3.25 0 0 0-.53-1.67"/>
  <path fill="#00c600" fill-rule="evenodd" stroke="#000" stroke-linecap="round" stroke-opacity=".77" stroke-width=".07525" d="m21.99 17.03-.02.49"/>
  <path fill="none" stroke="#000" stroke-opacity=".77" stroke-width=".07525" d="M20.25 16.81c.16.07.28.09.4.08.14-.66-.2-.66-.62-1.13"/>
  <path fill="none" stroke="#000" stroke-linecap="round" stroke-opacity=".77" stroke-width=".07525" d="M22.12 12.42c.33.06.12.55.56.7.37.12.17-.4.06-.46"/>
  <path fill="none" stroke="#000" stroke-opacity=".77" stroke-width=".07525" d="M21.64 13.5c.24-.16 1.07.07 1.36.31.08.08.2.38-.18.66"/>
  <path fill="none" stroke="#000" stroke-opacity=".77" stroke-width=".07525" d="M17.2 13.9c.68-.65 1-.57 1.76-.09.11.03.23 0 .3-.04.04-.1 0-.19-.05-.26-.34-.25-.6-.32-.92-.27"/>
  <path fill="none" stroke="#000" stroke-opacity=".77" stroke-width=".07525" d="M18.17 16.34c-.15.22-.27.7-.02 1.25.02.06.08.12.01.16-.12.07-.18.17-.25.28"/>
  <path fill="none" stroke="#000" stroke-opacity=".77" stroke-width=".07525" d="M22.09 19.79c0-.82-.11-1.47-.44-2.06"/>
  <path fill="none" stroke="#000" stroke-opacity=".77" stroke-width=".07525" d="M20.68 16.6c.1 0 .24.02.3 0 .04-.13-.05-.28-.09-.39.06 0 .14 0 .19-.02.03-.1 0-.25 0-.37"/>
  <path fill="#fff" fill-rule="evenodd" stroke="#000" stroke-opacity=".77" stroke-width=".07525" d="M16.64 14.28c.03-.18.2-.38.37-.49.1-.05.15.01.19.03.05.08.02.23 0 .28-.05.1-.15.18-.32.25-.1-.04-.15-.03-.24-.07z"/>
  <path fill="none" stroke="#000" stroke-opacity=".77" stroke-width=".07525" d="M18.2 17.75c.04.01.43.44.43.44h.23l.02-.65"/>
  <path fill="none" stroke="#000" stroke-linecap="round" stroke-linejoin="round" stroke-opacity=".77" stroke-width=".07525" d="M18.83 16.49c-.07.26-.04.51 0 .77"/>
  <path fill="none" stroke="#000" stroke-opacity=".77" stroke-width=".07525" d="m18.33 17.7.09-.36"/>
  <path fill="none" stroke="#000" stroke-opacity=".77" stroke-width=".07525" d="M18.5 16.35a1.3 1.3 0 0 0-.1.82"/>
  <path fill="none" stroke="#000" stroke-opacity=".77" stroke-width=".07525" d="M21.68 17.78h-.22"/>
  <path fill="#9f3000" fill-rule="evenodd" stroke="#000" stroke-width=".07525" d="M13.78 16.95c.03.1-.07.04-.1.07-.1.04-.28-.1-.39-.42.06-.09.37-.29.47-.24 0 0 .2.07.22.15-.03.12-.2.45-.2.44z"/>
  <path fill="none" stroke="#000" stroke-opacity=".77" stroke-width=".07525" d="M21.68 17.78v-.44"/>
  <path fill="none" stroke="#000" stroke-opacity=".77" stroke-width=".07525" d="m22.03 20.06.07 1.05"/>
  <path fill="#238700" fill-rule="evenodd" stroke="#000" stroke-width=".07525" d="M13.78 16.99c.2.2.54.06.6.55.02.28-.37.83 0 1.32.13.2.46.4.46.4.18.2.23.54.35.81.24.36.57.44.83.35 0 0 .87-.38.87-.4l-.44-.58-.5.42c-.06 0-.34.02-.45-.34 0-.47-.24-.73-.61-.92-.19-.14-.34-.37-.18-.68.1-.3.2-.78-.14-1.1-.22-.15-.37-.26-.6-.3-.3.1-.3.08-.2.47z"/>
  <path fill="none" stroke="#000" stroke-opacity=".77" stroke-width=".07525" d="M18.07 12.9c-.11.22-.1.35-.08.56"/>
  <path fill="none" stroke="#000" stroke-opacity=".77" stroke-width=".07525" d="M17.48 13.96h.27c.08 0 .1-.03.16-.07a.86.86 0 0 0 .1-.08.5.5 0 0 1 .1-.06c.06 0 .1 0 .15.02l.12.07a.3.3 0 0 0 .12.02l.18.01c.05 0 .1.01.14.03.05.03.08.06.11.1l.02.13v.14c0 .06-.02.1-.03.14-.03.03-.05.06-.1.06-.03.03-.1.03-.15.03h-.16c-.03-.03-.07-.05-.11-.1-.03-.05-.04-.06-.1-.08a.97.97 0 0 0-.14-.01c-.05 0-.09 0-.11-.02a.23.23 0 0 0-.11-.05l-.15-.01h-.08"/>
  <path fill="none" stroke="#000" stroke-opacity=".77" stroke-width=".07525" d="M17.73 14.05h.01c-.02-.02-.01 0 .04.01l.2.03.2.01h.14"/>
  <path fill="none" stroke="#000" stroke-opacity=".77" stroke-width=".07525" d="M18.36 13.89h-.01c.03 0 0 0-.03.05 0 .05-.02.08 0 .13a.3.3 0 0 1 .11.06c.04.03.03.05.03.1l-.05.1-.04.1a.57.57 0 0 0-.02.14v.1"/>
  <path fill="none" stroke="#000" stroke-opacity=".77" stroke-width=".07525" d="M21.88 12.76c.01.02.2.39.43.15.04-.04.05-.07.05-.14 0-.03 0-.07-.02-.1"/>
  <path fill="#fff" fill-rule="evenodd" stroke="#000" stroke-width=".040936" d="M16.26 20.25c.11.16.32.08.36-.05-.14.01-.2-.07-.24-.2-.03.08-.15.16-.12.25z"/>
  <path fill="none" stroke="#000" stroke-opacity=".77" stroke-width=".07525" d="M22.87 13.1c0 .01.2.2.5.2.07 0 .4-.1.52-.25"/>
  <path fill="none" stroke="#000" stroke-opacity=".77" stroke-width=".07525" d="m23.28 13.28.01.2c0 .08.02.14 0 .2-.04.09-.07.12-.15.14-.06.03-.07 0-.14 0"/>
  <path fill="none" stroke="#000" stroke-opacity=".77" stroke-width=".07525" d="M21.63 12.9s.22.5.28.56"/>
  <path fill="#fff" fill-rule="evenodd" stroke="#000" stroke-width=".040936" d="M16.4 20.16c.11.16.32.08.36-.05-.14.01-.2-.07-.25-.2-.03.07-.14.16-.11.25z"/>
  <path fill="#fff" fill-rule="evenodd" stroke="#000" stroke-width=".040936" d="M16.61 20.07c.11.16.32.08.36-.05-.14 0-.2-.07-.24-.2-.03.07-.15.16-.12.25z"/>
  <path fill="none" stroke="#000" stroke-opacity=".77" stroke-width=".07525" d="M20.43 12.65h.07c.22-.04.95.1 1.08.23"/>
  <path fill="none" stroke="#000" stroke-opacity=".77" stroke-width=".07525" d="M20.57 16.2v.08c.03.03 0-.08-.02-.14a.37.37 0 0 1-.02-.16v-.06"/>
  <path fill="none" stroke="#000" stroke-opacity=".77" stroke-width=".07525" d="M19.2 19.44v.02-.02.02-.08.56l.04.13c0 .06.02.1.04.15 0 .05.02.1.04.13 0 .05.02.08.03.12.01.05.03.08.05.1.01.02.02.09.04.09"/>
  <path fill="none" stroke="#000" stroke-opacity=".77" stroke-width=".07525" d="M18.6 18.86v.27l.03.2.03.15c0 .05.07.24.09.28l.07.12.12.03h.14c.05-.01.07-.02.1-.06 0-.03 0-.05.02-.06"/>
  <path fill="none" stroke="#000" stroke-opacity=".77" stroke-width=".07525" d="M18.43 20.64c0-.02 0-.07.02-.1a.97.97 0 0 1 .11-.13c.05-.03.19-.21.59-.32h.1"/>
  <path fill="none" stroke="#000" stroke-opacity=".77" stroke-width=".07525" d="M18.48 19.75s.22.12.33.12"/>
  <path fill="none" stroke="#000" stroke-width=".0301pt" d="M19.1 20.13h-.02.02s-.01 0 0 0z"/>
  <path fill="#ffbc00" fill-rule="evenodd" stroke="#000" stroke-width=".07525" d="M19 20.12c-.03-.02-1.06-.32-1.04-.32.02 0-.38.27-.38.27l.98.34.4-.29z"/>
  <path fill="#f7b200" fill-rule="evenodd" stroke="#000" stroke-width=".07525" d="M18.01 19.8c.07-.17.05-.4-.16-.53-.49-.3-1.3-.27-1.46.08-.17-.02-.26.11-.28.25-.43.12-.03.62.07.64.15.05.19.01.22-.04.08.02.19-.06.22-.12.1.01.18.01.18-.1.3.29.7.48.75.12l.46-.3z"/>
  <path fill="none" stroke="#000" stroke-width=".07525" d="M16.11 19.59c-.03.2.1.4.3.6"/>
  <path fill="none" stroke="#000" stroke-width=".07525" d="M16.38 19.35c-.03.2.03.52.23.72"/>
  <path fill="none" stroke="#000" stroke-width=".07525" d="M16.68 19.14c-.18.16-.08.65.12.85"/>
  <path fill="#288800" fill-rule="evenodd" stroke="#000100" stroke-linejoin="round" stroke-width=".07525" d="M17.19 15.13c.44.58-.17 1.21-.7 1.58-.63.5-.97 1.46.13 1.52.4-.01.84-.05 1.08.27.25.31.26.89-.36 1.26-.06-.05-.15-.21-.22-.26-.06-.05-.1.01-.17-.04-.02-.2.3-.5 0-.57-.4.07-1.79.08-1.77-1.25.03-.3.19-.63.44-.96.25-.34.95-.76 1.02-.94.1-.16-.1-.47-.25-.51-.13-.34.44-.7.8-.1z"/>
  <path fill="none" stroke="#000" stroke-width=".07525" d="m16.22 16.15.02.78"/>
  <path fill="none" stroke="#000" stroke-width=".07525" d="m15.82 16.46.82.12"/>
  <path fill="none" stroke="#000" stroke-width=".07525" d="m16.43 15.98.7.14"/>
  <path fill="none" stroke="#000" stroke-opacity=".64" stroke-width=".07525" d="m15.69 16.6.58.34"/>
  <path fill="none" stroke="#000" stroke-opacity=".64" stroke-width=".07525" d="m15.27 17.32.46.49"/>
  <path fill="none" stroke="#000" stroke-opacity=".64" stroke-width=".07525" d="m15.7 16.63.07 1.14"/>
  <path fill="none" stroke="#000" stroke-opacity=".64" stroke-width=".07525" d="m15.38 17.1.75.02"/>
  <path fill="none" stroke="#000" stroke-width=".07525" d="M14.6 19.04c.11-.11.23-.27.3-.42"/>
  <path fill="none" stroke="#000" stroke-width=".07525" d="M14.83 19.23c.16-.1.36-.17.56-.21"/>
  <path fill="none" stroke="#000" stroke-width=".07525" d="M15.12 19.9c.13-.11.28-.23.38-.4"/>
  <path fill="none" stroke="#000" stroke-width=".07525" d="M15.12 19.92c.24 0 .48-.03.72-.07"/>
  <path fill="none" stroke="#000" stroke-width=".07525" d="M15.55 20.4c.18-.07.34-.18.47-.28"/>
  <path fill="none" stroke="#000" stroke-width=".07525" d="M14.32 18.8c.13-.11.27-.24.38-.37"/>
  <path fill="none" stroke="#000" stroke-width=".07525" d="M14.21 18.44c.15-.04.3-.12.43-.19"/>
  <path fill="none" stroke="#000" stroke-width=".07525" d="M14.27 18.07c.12-.05.26-.07.39-.07"/>
  <path fill="none" stroke="#000" stroke-width=".07525" d="M14.38 17.73c.15-.02.24 0 .39.04"/>
  <path fill="none" stroke="#000" stroke-width=".07525" d="M14.4 17.51c.12-.06.26-.1.4-.09"/>
  <path fill="none" stroke="#000" stroke-width=".07525" d="m14.34 17.35.43-.29"/>
  <path fill="none" stroke="#000" stroke-width=".07525" d="m14.27 17.23.36-.36"/>
  <path fill="none" stroke="#000" stroke-width=".07525" d="m14.17 17.18.26-.45"/>
  <path fill="none" stroke="#000" stroke-width=".07525" d="M15.22 14.52v.64"/>
  <path fill="none" stroke="#000" stroke-width=".07525" d="M15.86 14.63c-.09.18-.22.4-.4.56"/>
  <path fill="none" stroke="#000" stroke-width=".07525" d="M15.39 14.5c-.2-.01-.37.09-.51.21"/>
  <path fill="#9d4600" fill-opacity=".99" fill-rule="evenodd" stroke="#000" stroke-linecap="round" stroke-linejoin="round" stroke-width=".0301pt" d="M16.39 15c.31.1.73.26.68 1.18.26-.28.38-.67.05-1.17-.22-.24-.54-.29-.73-.02z"/>
  <path fill="none" stroke="#000" stroke-width=".07525" d="M16.53 15.3c.01-.18.26-.4.4-.45"/>
  <path fill="none" stroke="#000" stroke-width=".07525" d="M16.63 15.46c.06-.23.35-.4.48-.46"/>
  <path fill="none" stroke="#000" stroke-width=".07525" d="M16.63 15.78c.12 0 .58-.25.69-.4"/>
  <path fill="none" stroke="#000" stroke-width=".07525" d="M16.67 15.61c.15-.1.42-.33.56-.38"/>
  <path fill="none" stroke="#000" stroke-width=".07525" d="M17.07 15.8c.11-.07.15-.05.27-.17"/>
  <path fill="none" stroke="#000" stroke-width=".07525" d="M16.39 15c.31.1.7.33.67 1.18"/>
  <path fill="none" stroke="#000" stroke-opacity=".64" stroke-width=".07525" d="m15.34 18.29.43-.52"/>
  <path fill="none" stroke="#000" stroke-opacity=".64" stroke-width=".07525" d="M15.4 18.4h.38"/>
  <path fill="none" stroke="#000" stroke-opacity=".64" stroke-width=".07525" d="m15.18 17.88.54.3"/>
  <path fill="#9d4600" fill-rule="evenodd" stroke="#000" stroke-width=".0301pt" d="M15.9 17.82a.87.87 0 0 1-.25-.06c.04.7.11.73.22.99.33.2.9.16 1.13.1.03.04.17.21.08.27-.1.05-.13.17-.13.35.05.06.1.01.16.05s.13.18.18.3c.05.13.7-.47.58-.92-.07-.42-.36-.56-.36-.56-.4-.2-.97-.07-1.17-.15-.26-.06-.42-.28-.44-.37z"/>
  <path fill="none" stroke="#000" stroke-width=".07525" d="M17.04 19.04c.35-.16.72-.17.82-.16"/>
  <path fill="none" stroke="#000" stroke-width=".07525" d="M15.69 18.12c.07-.04.18-.14.31-.14"/>
  <path fill="none" stroke="#000" stroke-width=".07525" d="M16.33 18.88c.06-.37.21-.61.3-.67"/>
  <path fill="none" stroke="#000" stroke-width=".07525" d="M16.53 18.9c.07-.36.24-.62.32-.68"/>
  <path fill="none" stroke="#000" stroke-width=".07525" d="M16.77 18.88c.06-.36.21-.6.3-.66"/>
  <path fill="none" stroke="#000" stroke-width=".07525" d="M16.94 18.86a.94.94 0 0 1 .35-.61"/>
  <path fill="none" stroke="#000" stroke-width=".07525" d="M17.06 18.96c.06-.37.37-.57.45-.63"/>
  <path fill="none" stroke="#000" stroke-width=".07525" d="M17.07 19.02c.2-.3.56-.46.66-.48"/>
  <path fill="none" stroke="#000" stroke-width=".07525" d="M16.1 18.83c.07-.36.23-.56.31-.62"/>
  <path fill="none" stroke="#000" stroke-width=".07525" d="M15.9 18.77a.96.96 0 0 1 .33-.62"/>
  <path fill="none" stroke="#000" stroke-width=".07525" d="M16.98 19.52c.17-.13.28.28.28.33.01.05.04.1.13.15"/>
  <path fill="none" stroke="#000" stroke-width=".07525" d="M15.77 18.51c.07-.18.21-.38.3-.45"/>
  <path fill="#fff" fill-rule="evenodd" stroke="#000" stroke-width=".080066" d="M16.67 19.16c-.21.34.03.63.3.51-.02-.23-.08-.38.13-.6-.15 0-.29-.05-.43.09z"/>
  <path fill="none" stroke="#000" stroke-width=".07525" d="m15.87 16.67.1.5"/>
  <path fill="none" stroke="#000" stroke-width=".07525" d="m15.97 17.13-.18.61"/>
  <path fill="none" stroke="#000" stroke-width=".07525" d="M17.04 19.07c.37-.07.73 0 .82.04"/>
  <path fill="none" stroke="#000" stroke-width=".080969" d="M17 19.13c.38 0 .71.15.8.22"/>
  <path fill="none" stroke="#000" stroke-width=".080367" d="M17 19.2c.37.09.53.27.6.35"/>
  <path fill="none" stroke="#000" stroke-width=".080367" d="M16.97 19.29c.33.18.4.33.45.43"/>
  <path fill="#296526" fill-rule="evenodd" d="m11.49 21.06.18-.04.19.82-.18.05z"/>
  <path fill="#296526" fill-rule="evenodd" d="m12.97 23.84.37.43.14-.12-.35-.44-.16.13z"/>
  <path fill="#296526" fill-rule="evenodd" d="m24.37 25.66-.46.33.1.15.48-.3z"/>
  <path fill="#296526" fill-rule="evenodd" d="m26.81 23.63-.41.38.12.14.43-.37z"/>
  <path fill="#296526" fill-rule="evenodd" d="m28.12 20.9-.15.36.08.11.17-.35z"/>
  <path fill="none" stroke="#000" stroke-width=".07525" d="M15.9 18.79c-.2-.33-.23-.68-.24-1.02.1.05.19.08.25.06"/>
  <path fill="none" stroke="#000" stroke-width=".07525" d="M15.2 14.5c-.17-.4.02-.63.23-.83"/>
  <path fill-rule="evenodd" d="M15.46 13.56a.15.1-44.88 1 0-.22.2.15.1-44.88 1 0 .22-.2l-.1.1z"/>
  <path fill="none" stroke="#000" stroke-width=".097825" d="m14.4 16.7-.64-.08"/>
  <path fill="none" stroke="#000" stroke-width=".097825" d="M14.14 17.14c0-.03-.39-.5-.39-.5"/>
  <path fill="#0b7226" fill-rule="evenodd" d="M0 0h8.4v39.69H0z"/>
  <path fill="#bc0000" fill-rule="evenodd" d="M31.45 0h8.24v39.69h-8.24z"/>
</svg>
